<svg xmlns="http://www.w3.org/2000/svg" xmlns:xlink="http://www.w3.org/1999/xlink" width="113.842" height="101.604" viewBox="0 0 113.842 101.604">
  <defs>
    <clipPath id="clip-path">
      <rect id="Rectangle_412062" data-name="Rectangle 412062" width="84" height="78" transform="translate(82.732 -8782.629)" fill="#fff" stroke="#707070" stroke-width="1"/>
    </clipPath>
  </defs>
  <g id="Group_1204676" data-name="Group 1204676" transform="translate(-67.701 8794.665)">
    <g id="Group_1204629" data-name="Group 1204629" transform="translate(67.701 -8794.665)">
      <ellipse id="Ellipse_12787" data-name="Ellipse 12787" cx="28.658" cy="28.658" rx="28.658" ry="28.658" transform="translate(56.527 44.289)" fill="#59cae4"/>
      <ellipse id="Ellipse_12788" data-name="Ellipse 12788" cx="20.842" cy="20.842" rx="20.842" ry="20.842" fill="#59cae4"/>
    </g>
    <g id="Mask_Group_1099437" data-name="Mask Group 1099437" clip-path="url(#clip-path)">
      <g id="budget-management_18303633" transform="translate(79.932 -8788.428)">
        <path id="Path_1277335" data-name="Path 1277335" d="M31.23,45.611H77.24A3.3,3.3,0,0,1,80.532,48.9v28.54a3.3,3.3,0,0,1-3.292,3.292H34.522a3.3,3.3,0,0,1-3.292-3.292Z" fill="#937661" fill-rule="evenodd"/>
        <path id="Path_1277336" data-name="Path 1277336" d="M73.488,59.83h8.944a3.344,3.344,0,0,1,0,6.688H73.488a5.134,5.134,0,1,1,0-6.688Z" fill="#cad0d7" fill-rule="evenodd"/>
        <path id="Path_1277337" data-name="Path 1277337" d="M69.591,60.771a2.4,2.4,0,1,1-2.4,2.4A2.4,2.4,0,0,1,69.591,60.771Z" fill="#ffe38d" fill-rule="evenodd"/>
        <path id="Path_1277338" data-name="Path 1277338" d="M34.758,49.139H80.532V45.611A3.538,3.538,0,0,0,77,42.083H34.758a3.528,3.528,0,0,0,0,7.056Z" fill="#d5a889" fill-rule="evenodd"/>
        <path id="Path_1277339" data-name="Path 1277339" d="M46.9,69.538H6.359A2.543,2.543,0,0,1,3.824,67V16.275a2.543,2.543,0,0,1,2.536-2.536H46.9a2.543,2.543,0,0,1,2.536,2.536V67A2.543,2.543,0,0,1,46.9,69.538Z" fill="#e4e8eb" fill-rule="evenodd"/>
        <path id="Path_1277340" data-name="Path 1277340" d="M8.893,18.81H44.367v10.3H8.893Z" fill="#6cb2e8" fill-rule="evenodd"/>
        <g id="Group_1204673" data-name="Group 1204673">
          <path id="Path_1277341" data-name="Path 1277341" d="M12.988,56.281A4.093,4.093,0,1,1,8.9,60.374,4.094,4.094,0,0,1,12.988,56.281Z" fill="#444c4c" fill-rule="evenodd"/>
          <path id="Path_1277342" data-name="Path 1277342" d="M12.988,45.119A4.094,4.094,0,1,1,8.9,49.212a4.094,4.094,0,0,1,4.093-4.093Z" fill="#444c4c" fill-rule="evenodd"/>
          <path id="Path_1277343" data-name="Path 1277343" d="M12.988,33.958A4.094,4.094,0,1,1,8.9,38.051,4.094,4.094,0,0,1,12.988,33.958Z" fill="#444c4c" fill-rule="evenodd"/>
          <path id="Path_1277344" data-name="Path 1277344" d="M26.631,56.281a4.093,4.093,0,1,1-4.093,4.093A4.094,4.094,0,0,1,26.631,56.281Z" fill="#444c4c" fill-rule="evenodd"/>
          <path id="Path_1277345" data-name="Path 1277345" d="M26.631,45.119a4.094,4.094,0,1,1-4.093,4.093,4.094,4.094,0,0,1,4.093-4.093Z" fill="#444c4c" fill-rule="evenodd"/>
          <path id="Path_1277346" data-name="Path 1277346" d="M26.631,33.958a4.094,4.094,0,1,1-4.093,4.093A4.094,4.094,0,0,1,26.631,33.958Z" fill="#444c4c" fill-rule="evenodd"/>
          <path id="Path_1277347" data-name="Path 1277347" d="M40.274,33.958a4.094,4.094,0,1,1-4.095,4.093A4.093,4.093,0,0,1,40.274,33.958Z" fill="#444c4c" fill-rule="evenodd"/>
        </g>
        <path id="Path_1277348" data-name="Path 1277348" d="M38.714,64.467h3.117a2.543,2.543,0,0,0,2.536-2.536V47.653a2.543,2.543,0,0,0-2.536-2.536H38.714a2.543,2.543,0,0,0-2.536,2.536V61.931A2.544,2.544,0,0,0,38.714,64.467Z" fill="#fa4959" fill-rule="evenodd"/>
        <path id="Path_1277349" data-name="Path 1277349" d="M76.085,14.854l2.362-1.365,2.83,4.9-2.361,1.363a11.845,11.845,0,0,1,0,6.527l2.361,1.363-2.83,4.9-2.362-1.365a11.738,11.738,0,0,1-5.651,3.264v2.726H64.775V34.445a11.774,11.774,0,0,1-5.651-3.264l-2.362,1.365-2.83-4.9,2.361-1.363a11.845,11.845,0,0,1,0-6.527L53.932,18.39l2.83-4.9,2.362,1.365a11.738,11.738,0,0,1,5.651-3.264V8.862h5.659v2.726a11.755,11.755,0,0,1,5.651,3.265Z" fill="#6cb2e8" fill-rule="evenodd"/>
        <circle id="Ellipse_12872" data-name="Ellipse 12872" cx="5.12" cy="5.12" r="5.12" transform="translate(62.486 17.895)" fill="#e4e8eb"/>
        <path id="Path_1277350" data-name="Path 1277350" d="M69.591,59.063a4.11,4.11,0,1,0,3.12,6.785,1.026,1.026,0,0,1,.777-.357h8.944a2.32,2.32,0,0,0,0-4.639H73.488a1.02,1.02,0,0,1-.777-.357,4.122,4.122,0,0,0-3.12-1.431ZM67.606,18.919a4.1,4.1,0,1,0,4.1,4.1A4.1,4.1,0,0,0,67.606,18.919Zm0,10.243a6.144,6.144,0,1,1,6.144-6.144A6.151,6.151,0,0,1,67.606,29.161ZM65.8,36.146v-1.7a1.022,1.022,0,0,0-.779-.994,10.723,10.723,0,0,1-5.157-2.98,1.027,1.027,0,0,0-1.249-.177l-1.475.852-1.806-3.127,1.473-.85A1.025,1.025,0,0,0,57.28,26a10.827,10.827,0,0,1,0-5.96,1.024,1.024,0,0,0-.472-1.171l-1.473-.85,1.8-3.127,1.475.852a1.027,1.027,0,0,0,1.251-.177,10.721,10.721,0,0,1,5.157-2.98,1.026,1.026,0,0,0,.779-.994v-1.7h3.61v1.7a1.022,1.022,0,0,0,.779.994,10.735,10.735,0,0,1,5.159,2.98,1.024,1.024,0,0,0,1.249.177l1.475-.852,1.8,3.127-1.472.85a1.022,1.022,0,0,0-.472,1.171,10.821,10.821,0,0,1,0,5.959,1.022,1.022,0,0,0,.472,1.171l1.472.85-1.8,3.127L76.6,30.29a1.027,1.027,0,0,0-1.251.177,10.721,10.721,0,0,1-5.157,2.98,1.026,1.026,0,0,0-.779.994v1.7H65.8Zm4.636,2.049H64.777a1.024,1.024,0,0,1-1.024-1.024V35.22a12.771,12.771,0,0,1-4.786-2.765l-1.692.976a1.025,1.025,0,0,1-1.4-.374l-2.83-4.9a1.022,1.022,0,0,1,.374-1.4l1.689-.976a12.814,12.814,0,0,1-.3-2.763,12.953,12.953,0,0,1,.3-2.765l-1.689-.975a1.022,1.022,0,0,1-.374-1.4l2.83-4.9a1.025,1.025,0,0,1,1.4-.373l1.69.976a12.782,12.782,0,0,1,4.786-2.767V8.864A1.023,1.023,0,0,1,64.775,7.84h5.659a1.024,1.024,0,0,1,1.024,1.024v1.949a12.762,12.762,0,0,1,4.786,2.767l1.692-.976a1.023,1.023,0,0,1,1.4.373l2.83,4.9a1.03,1.03,0,0,1,.1.777,1.016,1.016,0,0,1-.478.621l-1.689.975a12.915,12.915,0,0,1,0,5.528l1.689.976a1.021,1.021,0,0,1,.374,1.4l-2.83,4.9a1.024,1.024,0,0,1-1.4.374l-1.692-.976a12.721,12.721,0,0,1-4.786,2.765v1.951a1.021,1.021,0,0,1-1.02,1.027Zm-31.72,7.948a1.512,1.512,0,0,0-1.51,1.51V61.931a1.512,1.512,0,0,0,1.51,1.51h3.117a1.512,1.512,0,0,0,1.51-1.51V47.653a1.512,1.512,0,0,0-1.51-1.51Zm3.117,19.348H38.716a3.562,3.562,0,0,1-3.559-3.559V47.653a3.562,3.562,0,0,1,3.559-3.559h3.117a3.562,3.562,0,0,1,3.559,3.559V61.931A3.564,3.564,0,0,1,41.833,65.491ZM40.274,34.984a3.069,3.069,0,1,0,3.069,3.069,3.073,3.073,0,0,0-3.069-3.069Zm0,8.188a5.119,5.119,0,1,1,5.117-5.119A5.124,5.124,0,0,1,40.274,43.172ZM26.631,34.984A3.069,3.069,0,1,0,29.7,38.053,3.073,3.073,0,0,0,26.631,34.984Zm0,8.188a5.119,5.119,0,1,1,5.119-5.119A5.124,5.124,0,0,1,26.631,43.172Zm0,2.971A3.069,3.069,0,1,0,29.7,49.212,3.073,3.073,0,0,0,26.631,46.143Zm0,8.188a5.119,5.119,0,1,1,5.119-5.119A5.124,5.124,0,0,1,26.631,54.331Zm0,2.973A3.069,3.069,0,1,0,29.7,60.374,3.073,3.073,0,0,0,26.631,57.3Zm0,8.186a5.119,5.119,0,1,1,5.119-5.119A5.124,5.124,0,0,1,26.631,65.491ZM12.988,34.984a3.069,3.069,0,1,0,3.069,3.069,3.073,3.073,0,0,0-3.069-3.069Zm0,8.188a5.119,5.119,0,1,1,5.119-5.119A5.124,5.124,0,0,1,12.988,43.172Zm0,2.971a3.069,3.069,0,1,0,3.069,3.069A3.073,3.073,0,0,0,12.988,46.143Zm0,8.188a5.119,5.119,0,1,1,5.119-5.119A5.124,5.124,0,0,1,12.988,54.331Zm0,2.973a3.069,3.069,0,1,0,3.069,3.069A3.073,3.073,0,0,0,12.988,57.3Zm0,8.186a5.119,5.119,0,1,1,5.119-5.119A5.124,5.124,0,0,1,12.988,65.491ZM9.919,28.085H43.345V19.834H9.919Zm34.448,2.049H8.893A1.024,1.024,0,0,1,7.87,29.111V18.81a1.023,1.023,0,0,1,1.024-1.024H44.367a1.023,1.023,0,0,1,1.024,1.024v10.3A1.022,1.022,0,0,1,44.367,30.134ZM6.359,14.764H46.9a1.512,1.512,0,0,1,1.51,1.51V67a1.512,1.512,0,0,1-1.51,1.51H6.359A1.512,1.512,0,0,1,4.849,67V16.275a1.512,1.512,0,0,1,1.51-1.51ZM46.9,70.562A3.564,3.564,0,0,0,50.462,67V50.163H79.508V58.8H73.932a6.159,6.159,0,1,0,0,8.738h5.575v9.9a2.27,2.27,0,0,1-2.268,2.268H34.523a2.27,2.27,0,0,1-2.268-2.268V70.56H46.9Zm-16.7,0H6.359A3.564,3.564,0,0,1,2.8,67V16.275a3.564,3.564,0,0,1,3.559-3.559H46.9a3.562,3.562,0,0,1,3.559,3.559V41.058H77a4.558,4.558,0,0,1,4.553,4.552V58.8h.875a4.368,4.368,0,0,1,0,8.736h-.875v9.9a4.322,4.322,0,0,1-4.317,4.317H34.523a4.322,4.322,0,0,1-4.317-4.317V70.562ZM50.462,43.107v5.008H79.508v-2.5a2.508,2.508,0,0,0-2.5-2.5ZM48.8,75.422a1.024,1.024,0,1,0,0-2.047H37.339a1.024,1.024,0,0,0,0,2.047Zm20.79-13.627a1.379,1.379,0,1,1-1.379,1.379A1.381,1.381,0,0,1,69.591,61.795Zm0,4.807a3.428,3.428,0,1,1,3.428-3.428A3.433,3.433,0,0,1,69.591,66.6Z" fill-rule="evenodd"/>
      </g>
    </g>
  </g>
</svg>
