<svg xmlns="http://www.w3.org/2000/svg" xmlns:xlink="http://www.w3.org/1999/xlink" width="931.487" height="554.027" viewBox="0 0 931.487 554.027">
  <defs>
    <clipPath id="clip-path">
      <path id="Path_1275774" data-name="Path 1275774" d="M118.049,76.345H1005.5A21.606,21.606,0,0,1,1027.1,97.952v35.467a21.605,21.605,0,0,1-21.607,21.607H118.049a21.606,21.606,0,0,1-21.607-21.607V97.952A21.606,21.606,0,0,1,118.049,76.345Zm0,0" fill="#ff9b08"/>
    </clipPath>
    <clipPath id="clip-path-2">
      <rect id="Rectangle_411967" data-name="Rectangle 411967" width="931.487" height="80.425" fill="#ff9b08"/>
    </clipPath>
    <clipPath id="clip-path-3">
      <path id="Path_1275773" data-name="Path 1275773" d="M.413.722H931.295V79.4H.413Zm0,0" fill="#ff9b08"/>
    </clipPath>
    <clipPath id="clip-path-4">
      <path id="Path_1275772" data-name="Path 1275772" d="M22.019.722H909.467a21.606,21.606,0,0,1,21.607,21.607V57.8A21.606,21.606,0,0,1,909.467,79.4H22.019A21.606,21.606,0,0,1,.413,57.8V22.329A21.606,21.606,0,0,1,22.019.722Zm0,0" fill="#ff9b08"/>
    </clipPath>
    <clipPath id="clip-path-5">
      <path id="Path_1275784" data-name="Path 1275784" d="M437.842,189.939h865.889c17.866,0,32.346,9.674,32.346,21.607v35.467c0,11.934-14.48,21.607-32.346,21.607H437.842c-17.866,0-32.346-9.673-32.346-21.607V211.546C405.5,199.613,419.976,189.939,437.842,189.939Zm0,0" transform="translate(-405.496 -189.939)" fill="#2c6471"/>
    </clipPath>
    <clipPath id="clip-path-6">
      <rect id="Rectangle_411969" data-name="Rectangle 411969" width="932.654" height="79.224" fill="#2c6471"/>
    </clipPath>
    <clipPath id="clip-path-7">
      <path id="Path_1275783" data-name="Path 1275783" d="M.971.281H931.792V78.962H.971Zm0,0" transform="translate(-0.971 -0.281)" fill="#2c6471"/>
    </clipPath>
    <clipPath id="clip-path-8">
      <path id="Path_1275782" data-name="Path 1275782" d="M33.317.281h865.89c17.866,0,32.346,9.673,32.346,21.607V57.355c0,11.933-14.48,21.607-32.346,21.607H33.317C15.452,78.962.971,69.289.971,57.355V21.888C.971,9.955,15.452.281,33.317.281Zm0,0" transform="translate(-0.971 -0.281)" fill="#2c6471"/>
    </clipPath>
    <clipPath id="clip-path-9">
      <rect id="Rectangle_411970" data-name="Rectangle 411970" width="931.487" height="203.057" fill="#c7f4e0"/>
    </clipPath>
    <clipPath id="clip-path-10">
      <path id="Path_1275788" data-name="Path 1275788" d="M.413,1.046H931.295V203.2H.413Zm0,0" transform="translate(-0.413 -1.046)" fill="#c7f4e0"/>
    </clipPath>
    <clipPath id="clip-path-11">
      <path id="Path_1275787" data-name="Path 1275787" d="M22.019,1.046H909.467c11.934,0,21.607,7.177,21.607,16.031V187.167c0,8.854-9.673,16.031-21.607,16.031H22.019C10.086,203.2.413,196.021.413,187.167V17.076C.413,8.223,10.086,1.046,22.019,1.046Zm0,0" transform="translate(-0.413 -1.046)" fill="#c7f4e0"/>
    </clipPath>
    <clipPath id="clip-path-12">
      <rect id="Rectangle_412034" data-name="Rectangle 412034" width="56" height="54" transform="translate(551 1971)" fill="#fff" stroke="#707070" stroke-width="1"/>
    </clipPath>
    <clipPath id="clip-path-13">
      <rect id="Rectangle_412035" data-name="Rectangle 412035" width="56" height="54" transform="translate(1032 1971)" fill="#fff" stroke="#707070" stroke-width="1"/>
    </clipPath>
  </defs>
  <g id="Group_1205196" data-name="Group 1205196" transform="translate(-334.05 -1652)">
    <g id="Group_1204498" data-name="Group 1204498" transform="translate(238.021 1575.654)" clip-path="url(#clip-path)">
      <g id="Group_1204497" data-name="Group 1204497" transform="translate(96.03 75.623)">
        <g id="Group_1204496" data-name="Group 1204496" clip-path="url(#clip-path-2)">
          <g id="Group_1204495" data-name="Group 1204495" clip-path="url(#clip-path-3)">
            <g id="Group_1204494" data-name="Group 1204494" clip-path="url(#clip-path-4)">
              <path id="Path_1275771" data-name="Path 1275771" d="M.413.722H931.069V79.4H.413Zm0,0" fill="#ff9b08"/>
            </g>
          </g>
        </g>
      </g>
    </g>
    <path id="Path_1275775" data-name="Path 1275775" d="M96.442,76.345H1027.4v78.68H96.442Zm0,0" transform="translate(238.021 1575.654)" fill="#ff9b08"/>
    <g id="Group_1204510" data-name="Group 1204510" transform="translate(334.463 1765.594)" clip-path="url(#clip-path-5)">
      <g id="Group_1204509" data-name="Group 1204509" transform="translate(-1.454 -0.281)">
        <g id="Group_1204508" data-name="Group 1204508" clip-path="url(#clip-path-6)">
          <g id="Group_1204507" data-name="Group 1204507" transform="translate(1.453 0.281)" clip-path="url(#clip-path-7)">
            <g id="Group_1204506" data-name="Group 1204506" transform="translate(0)" clip-path="url(#clip-path-8)">
              <path id="Path_1275781" data-name="Path 1275781" d="M.971.281H931.329V78.962H.971Zm0,0" transform="translate(-0.971 -0.281)" fill="#2c6471"/>
            </g>
          </g>
        </g>
      </g>
    </g>
    <path id="Path_1275785" data-name="Path 1275785" d="M405.5,189.939h930.821V268.62H405.5Zm0,0" transform="translate(-71.033 1575.654)" fill="#2c6471"/>
    <g id="Group_1204515" data-name="Group 1204515" transform="translate(334.05 1888.021)">
      <g id="Group_1204514" data-name="Group 1204514" clip-path="url(#clip-path-9)">
        <g id="Group_1204513" data-name="Group 1204513" transform="translate(0.413 0.776)" clip-path="url(#clip-path-10)">
          <g id="Group_1204512" data-name="Group 1204512" clip-path="url(#clip-path-11)">
            <path id="Path_1275786" data-name="Path 1275786" d="M.413,1.046H930.624V203.2H.413Zm0,0" transform="translate(-0.413 -1.046)" fill="#c7f4e0"/>
          </g>
        </g>
      </g>
    </g>
    <path id="Path_1275789" data-name="Path 1275789" d="M118.049,313.142H1005.5c11.934,0,21.607,7.177,21.607,16.031V499.263c0,8.854-9.673,16.031-21.607,16.031H118.049c-11.933,0-21.607-7.176-21.607-16.031V329.172C96.442,320.319,106.115,313.142,118.049,313.142Zm0,0" transform="translate(238.021 1575.654)" fill="#c7f4e0"/>
    <path id="Path_1275790" data-name="Path 1275790" d="M96.442,313.142h931.074V515.294H96.442Zm0,0" transform="translate(238.021 1575.654)" fill="#c7f4e0"/>
    <path id="Path_1275795" data-name="Path 1275795" d="M96.442,621.575h931.074v85.77H96.442Zm0,0" transform="translate(238.021 1498.682)" fill="#c7f4e0"/>
    <path id="Path_1278051" data-name="Path 1278051" d="M-54.857-4.333a4.673,4.673,0,0,1-.721,2.36,4.35,4.35,0,0,1-1.85,1.586,6.3,6.3,0,0,1-2.72.563,5.025,5.025,0,0,1-3.973-1.644,6.786,6.786,0,0,1-1.45-4.641v-.633a7.746,7.746,0,0,1,.655-3.292,4.961,4.961,0,0,1,1.885-2.18,5.26,5.26,0,0,1,2.848-.769,5.516,5.516,0,0,1,3.744,1.226,4.844,4.844,0,0,1,1.608,3.379h-3.076a2.292,2.292,0,0,0-.589-1.679,2.422,2.422,0,0,0-1.687-.51,1.843,1.843,0,0,0-1.687.861,5.536,5.536,0,0,0-.562,2.751v.905a6.126,6.126,0,0,0,.514,2.927,1.882,1.882,0,0,0,1.771.879,2.369,2.369,0,0,0,1.626-.5,2.126,2.126,0,0,0,.6-1.591Zm6.987,3.3a3.054,3.054,0,0,1-2.54,1.2,3,3,0,0,1-2.369-.91,3.826,3.826,0,0,1-.8-2.615V-9.51h2.962v6.179a1.065,1.065,0,0,0,1.187,1.222,1.548,1.548,0,0,0,1.45-.729V-9.51H-45V0h-2.777Zm9.088,1.2a4.889,4.889,0,0,1-3.542-1.305,4.507,4.507,0,0,1-1.354-3.4v-.246a5.84,5.84,0,0,1,.541-2.575,3.955,3.955,0,0,1,1.578-1.727A4.763,4.763,0,0,1-39.1-9.686a4.117,4.117,0,0,1,3.164,1.244,4.887,4.887,0,0,1,1.16,3.467v1.151h-5.889a2.135,2.135,0,0,0,.694,1.257,2.066,2.066,0,0,0,1.389.457,2.662,2.662,0,0,0,2.2-.984l1.354,1.6A3.784,3.784,0,0,1-36.6-.277,5.3,5.3,0,0,1-38.782.176ZM-39.116-7.4q-1.3,0-1.547,1.723h2.988v-.229a1.467,1.467,0,0,0-.36-1.1A1.434,1.434,0,0,0-39.116-7.4Zm8.253-2.109.1,1.116A3.225,3.225,0,0,1-28.05-9.686a2.713,2.713,0,0,1,2.219.888,4.226,4.226,0,0,1,.76,2.672V0h-2.971V-6a1.6,1.6,0,0,0-.29-1.059A1.342,1.342,0,0,0-29.386-7.4a1.413,1.413,0,0,0-1.292.686V0H-33.64V-9.51Zm10.881-2.364V-9.51h1.564v2.057h-1.564V-3.1a1.111,1.111,0,0,0,.193.747,1.037,1.037,0,0,0,.765.211,4.345,4.345,0,0,0,.738-.053V-.079a5.466,5.466,0,0,1-1.67.255,3.1,3.1,0,0,1-2.259-.721,2.954,2.954,0,0,1-.729-2.188v-4.72h-1.213V-9.51h1.213v-2.364ZM-11.9,0a3.344,3.344,0,0,1-.281-.853A2.754,2.754,0,0,1-14.462.176a3.374,3.374,0,0,1-2.285-.813,2.588,2.588,0,0,1-.94-2.043,2.66,2.66,0,0,1,1.143-2.338,5.821,5.821,0,0,1,3.322-.791h.914v-.5q0-1.31-1.134-1.31A.925.925,0,0,0-14.5-6.583h-2.962a2.659,2.659,0,0,1,1.173-2.241,4.927,4.927,0,0,1,2.993-.861,4.323,4.323,0,0,1,2.874.888A3.086,3.086,0,0,1-9.338-6.363v4.21a4.311,4.311,0,0,0,.4,2V0ZM-13.75-1.934a1.652,1.652,0,0,0,.918-.237,1.487,1.487,0,0,0,.523-.536V-4.228h-.861q-1.547,0-1.547,1.389a.848.848,0,0,0,.272.655A.986.986,0,0,0-13.75-1.934ZM.8-2.109a1.317,1.317,0,0,0,.967-.338A1.241,1.241,0,0,0,2.1-3.393H4.882A3.288,3.288,0,0,1,3.762-.826a4.168,4.168,0,0,1-2.887,1,4.22,4.22,0,0,1-3.27-1.3,5.125,5.125,0,0,1-1.2-3.6v-.123A5.792,5.792,0,0,1-3.059-7.4a3.872,3.872,0,0,1,1.534-1.7A4.573,4.573,0,0,1,.848-9.686,4.116,4.116,0,0,1,3.792-8.657a3.647,3.647,0,0,1,1.09,2.786H2.1A1.626,1.626,0,0,0,1.745-7a1.244,1.244,0,0,0-.967-.4Q-.374-7.4-.567-5.933A10.357,10.357,0,0,0-.628-4.649,4.068,4.068,0,0,0-.286-2.663,1.187,1.187,0,0,0,.8-2.109ZM5.761-4.843a5.613,5.613,0,0,1,.554-2.536A3.96,3.96,0,0,1,7.906-9.088a4.791,4.791,0,0,1,2.435-.6,4.373,4.373,0,0,1,3.366,1.323,5.076,5.076,0,0,1,1.23,3.6v.105A4.925,4.925,0,0,1,13.7-1.129,4.384,4.384,0,0,1,10.358.176,4.434,4.434,0,0,1,7.1-1.042a4.761,4.761,0,0,1-1.327-3.3Zm2.962.185a3.538,3.538,0,0,0,.413,1.934,1.376,1.376,0,0,0,1.222.615q1.582,0,1.617-2.435v-.3q0-2.558-1.635-2.558-1.485,0-1.608,2.206ZM18.962-9.51l.1,1.116a3.225,3.225,0,0,1,2.716-1.292,2.713,2.713,0,0,1,2.219.888,4.226,4.226,0,0,1,.76,2.672V0H21.784V-6a1.6,1.6,0,0,0-.29-1.059A1.342,1.342,0,0,0,20.439-7.4a1.413,1.413,0,0,0-1.292.686V0H16.185V-9.51Zm10.881-2.364V-9.51h1.564v2.057H29.843V-3.1a1.111,1.111,0,0,0,.193.747,1.037,1.037,0,0,0,.765.211A4.345,4.345,0,0,0,31.54-2.2V-.079a5.466,5.466,0,0,1-1.67.255,3.1,3.1,0,0,1-2.259-.721,2.954,2.954,0,0,1-.729-2.188v-4.72H25.668V-9.51h1.213v-2.364ZM37.929,0a3.344,3.344,0,0,1-.281-.853A2.754,2.754,0,0,1,35.363.176a3.374,3.374,0,0,1-2.285-.813,2.588,2.588,0,0,1-.94-2.043A2.66,2.66,0,0,1,33.28-5.019,5.821,5.821,0,0,1,36.6-5.81h.914v-.5q0-1.31-1.134-1.31a.925.925,0,0,0-1.055,1.037H32.366a2.659,2.659,0,0,1,1.173-2.241,4.927,4.927,0,0,1,2.993-.861,4.323,4.323,0,0,1,2.874.888,3.086,3.086,0,0,1,1.081,2.435v4.21a4.311,4.311,0,0,0,.4,2V0ZM36.075-1.934a1.652,1.652,0,0,0,.918-.237,1.487,1.487,0,0,0,.523-.536V-4.228h-.861q-1.547,0-1.547,1.389a.848.848,0,0,0,.272.655A.986.986,0,0,0,36.075-1.934Zm14.88-2.742a5.8,5.8,0,0,1-.967,3.595A3.238,3.238,0,0,1,47.263.176,2.81,2.81,0,0,1,44.925-.976L44.8,0H42.148V-13.5H45.11v4.755a2.711,2.711,0,0,1,2.136-.94,3.239,3.239,0,0,1,2.742,1.274,5.826,5.826,0,0,1,.967,3.586ZM47.984-4.86a3.878,3.878,0,0,0-.365-1.956A1.229,1.229,0,0,0,46.5-7.4a1.418,1.418,0,0,0-1.389.765v3.779a1.426,1.426,0,0,0,1.406.756,1.258,1.258,0,0,0,1.327-1.02A7.333,7.333,0,0,0,47.984-4.86ZM55.384,0H52.414V-13.5h2.971Zm6.425.176a4.889,4.889,0,0,1-3.542-1.305,4.507,4.507,0,0,1-1.354-3.4v-.246a5.84,5.84,0,0,1,.541-2.575,3.955,3.955,0,0,1,1.578-1.727,4.763,4.763,0,0,1,2.461-.611,4.117,4.117,0,0,1,3.164,1.244,4.887,4.887,0,0,1,1.16,3.467v1.151H59.928a2.135,2.135,0,0,0,.694,1.257,2.066,2.066,0,0,0,1.389.457,2.662,2.662,0,0,0,2.2-.984l1.354,1.6A3.784,3.784,0,0,1,63.993-.277,5.3,5.3,0,0,1,61.809.176ZM61.475-7.4q-1.3,0-1.547,1.723h2.988v-.229a1.467,1.467,0,0,0-.36-1.1A1.434,1.434,0,0,0,61.475-7.4Z" transform="translate(800 1698.34)" fill="#12263f"/>
    <path id="Path_1278052" data-name="Path 1278052" d="M-17.534-4.061a4.708,4.708,0,0,1-1.5,3.133,4.911,4.911,0,0,1-3.353,1.1A4.509,4.509,0,0,1-26.02-1.45,6.542,6.542,0,0,1-27.387-5.8v-1.23a7.291,7.291,0,0,1,.637-3.138,4.76,4.76,0,0,1,1.806-2.079,5.029,5.029,0,0,1,2.707-.725,4.624,4.624,0,0,1,3.27,1.138,4.765,4.765,0,0,1,1.433,3.151h-1.7a3.66,3.66,0,0,0-.954-2.215,2.891,2.891,0,0,0-2.052-.686,3.02,3.02,0,0,0-2.536,1.2,5.484,5.484,0,0,0-.918,3.4v1.239a5.637,5.637,0,0,0,.87,3.313A2.812,2.812,0,0,0-22.386-1.2a3.247,3.247,0,0,0,2.158-.637,3.536,3.536,0,0,0,1-2.219Zm1.617-.782a5.617,5.617,0,0,1,.549-2.514,4.1,4.1,0,0,1,1.529-1.723A4.163,4.163,0,0,1-11.6-9.686,4.01,4.01,0,0,1-8.459-8.341a5.174,5.174,0,0,1,1.2,3.577v.114a5.666,5.666,0,0,1-.532,2.492A4.038,4.038,0,0,1-9.312-.439a4.211,4.211,0,0,1-2.272.615,4,4,0,0,1-3.133-1.345,5.147,5.147,0,0,1-1.2-3.56Zm1.635.193a4.068,4.068,0,0,0,.734,2.54,2.349,2.349,0,0,0,1.964.958,2.335,2.335,0,0,0,1.969-.971,4.449,4.449,0,0,0,.729-2.72,4.061,4.061,0,0,0-.743-2.536A2.361,2.361,0,0,0-11.6-8.35a2.335,2.335,0,0,0-1.942.958A4.416,4.416,0,0,0-14.282-4.649Zm3.419-8.851h1.969l-2.355,2.584h-1.31Zm5.247,8.666a5.571,5.571,0,0,1,1.037-3.52A3.28,3.28,0,0,1-1.863-9.686,3.3,3.3,0,0,1,.782-8.543V-13.5H2.408V0H.914L.835-1.02A3.311,3.311,0,0,1-1.881.176,3.248,3.248,0,0,1-4.575-1.178,5.634,5.634,0,0,1-5.616-4.711Zm1.626.185a4.218,4.218,0,0,0,.668,2.531A2.159,2.159,0,0,0-1.477-1.2,2.372,2.372,0,0,0,.782-2.593V-6.961A2.39,2.39,0,0,0-1.459-8.306a2.17,2.17,0,0,0-1.863.923A4.644,4.644,0,0,0-3.99-4.649ZM6.7,0H5.071V-9.51H6.7ZM4.939-12.032a.971.971,0,0,1,.242-.668.907.907,0,0,1,.716-.272.922.922,0,0,1,.721.272.96.96,0,0,1,.246.668.929.929,0,0,1-.246.659.938.938,0,0,1-.721.264.924.924,0,0,1-.716-.264A.938.938,0,0,1,4.939-12.032Zm3.973,7.2A5.589,5.589,0,0,1,9.94-8.372a3.289,3.289,0,0,1,2.725-1.314,3.271,3.271,0,0,1,2.716,1.23L15.46-9.51h1.485V-.229a3.869,3.869,0,0,1-1.094,2.909,4.038,4.038,0,0,1-2.94,1.063A4.891,4.891,0,0,1,10.9,3.3,3.465,3.465,0,0,1,9.4,2.1l.844-.976A3.18,3.18,0,0,0,12.8,2.417a2.491,2.491,0,0,0,1.85-.668,2.553,2.553,0,0,0,.664-1.881V-.949A3.342,3.342,0,0,1,12.647.176a3.248,3.248,0,0,1-2.7-1.345A5.876,5.876,0,0,1,8.912-4.834Zm1.635.185a4.264,4.264,0,0,0,.659,2.527,2.142,2.142,0,0,0,1.846.918,2.382,2.382,0,0,0,2.259-1.4V-6.943a2.41,2.41,0,0,0-2.241-1.362,2.161,2.161,0,0,0-1.854.923A4.644,4.644,0,0,0,10.547-4.649Zm8.42-.193a5.617,5.617,0,0,1,.549-2.514,4.1,4.1,0,0,1,1.529-1.723,4.163,4.163,0,0,1,2.237-.606,4.01,4.01,0,0,1,3.142,1.345,5.174,5.174,0,0,1,1.2,3.577v.114a5.666,5.666,0,0,1-.532,2.492A4.038,4.038,0,0,1,25.572-.439,4.211,4.211,0,0,1,23.3.176a4,4,0,0,1-3.133-1.345,5.147,5.147,0,0,1-1.2-3.56Zm1.635.193a4.068,4.068,0,0,0,.734,2.54,2.349,2.349,0,0,0,1.964.958,2.335,2.335,0,0,0,1.969-.971A4.449,4.449,0,0,0,26-4.843a4.061,4.061,0,0,0-.743-2.536,2.361,2.361,0,0,0-1.973-.971,2.335,2.335,0,0,0-1.942.958A4.416,4.416,0,0,0,20.6-4.649Z" transform="translate(471.542 1811.934)" fill="#fff"/>
    <path id="Path_1278053" data-name="Path 1278053" d="M-66.384,0h-1.7l-6.442-9.861V0h-1.7V-12.8h1.7l6.46,9.905V-12.8h1.679Zm2.312-4.843a5.617,5.617,0,0,1,.549-2.514,4.1,4.1,0,0,1,1.529-1.723,4.163,4.163,0,0,1,2.237-.606,4.01,4.01,0,0,1,3.142,1.345,5.174,5.174,0,0,1,1.2,3.577v.114a5.666,5.666,0,0,1-.532,2.492A4.038,4.038,0,0,1-57.467-.439a4.211,4.211,0,0,1-2.272.615,4,4,0,0,1-3.133-1.345,5.147,5.147,0,0,1-1.2-3.56Zm1.635.193a4.068,4.068,0,0,0,.734,2.54,2.349,2.349,0,0,0,1.964.958,2.335,2.335,0,0,0,1.969-.971,4.449,4.449,0,0,0,.729-2.72,4.061,4.061,0,0,0-.743-2.536,2.361,2.361,0,0,0-1.973-.971,2.335,2.335,0,0,0-1.942.958A4.416,4.416,0,0,0-62.437-4.649Zm10.591-4.86.044,1.055a3.512,3.512,0,0,1,2.821-1.23,2.719,2.719,0,0,1,2.716,1.529,3.6,3.6,0,0,1,1.235-1.107,3.647,3.647,0,0,1,1.8-.422q3.129,0,3.182,3.313V0h-1.626V-6.275A2.184,2.184,0,0,0-42.144-7.8a2.051,2.051,0,0,0-1.564-.505,2.156,2.156,0,0,0-1.5.541,2.193,2.193,0,0,0-.694,1.455V0H-47.54V-6.231a1.814,1.814,0,0,0-2.03-2.074,2.175,2.175,0,0,0-2.188,1.362V0h-1.626V-9.51Zm22.3,4.86a5.654,5.654,0,0,1-1,3.5A3.2,3.2,0,0,1-33.24.176,3.315,3.315,0,0,1-36.026-1.1L-36.105,0H-37.6V-13.5h1.626v5.036a3.3,3.3,0,0,1,2.716-1.222,3.221,3.221,0,0,1,2.72,1.31,5.824,5.824,0,0,1,.989,3.586Zm-1.626-.185A4.394,4.394,0,0,0-31.816-7.4a2.124,2.124,0,0,0-1.846-.905,2.387,2.387,0,0,0-2.312,1.494V-2.7A2.454,2.454,0,0,0-33.645-1.2a2.112,2.112,0,0,0,1.819-.905A4.672,4.672,0,0,0-31.175-4.834ZM-22.9-8.051a4.873,4.873,0,0,0-.8-.062A2.143,2.143,0,0,0-25.875-6.75V0H-27.5V-9.51h1.582l.026,1.1a2.532,2.532,0,0,1,2.268-1.274,1.661,1.661,0,0,1,.721.123ZM-17.631.176a4.155,4.155,0,0,1-3.146-1.27,4.714,4.714,0,0,1-1.213-3.4v-.3a5.707,5.707,0,0,1,.541-2.527,4.217,4.217,0,0,1,1.512-1.74,3.8,3.8,0,0,1,2.1-.628A3.562,3.562,0,0,1-14.95-8.464a5.289,5.289,0,0,1,1.028,3.5v.677h-6.442a3.38,3.38,0,0,0,.822,2.272,2.583,2.583,0,0,0,2,.866A2.832,2.832,0,0,0-16.084-1.5a3.666,3.666,0,0,0,1.046-.932l.993.773A3.993,3.993,0,0,1-17.631.176Zm-.2-8.525a2.169,2.169,0,0,0-1.652.716,3.482,3.482,0,0,0-.826,2.008h4.764v-.123a3.1,3.1,0,0,0-.668-1.92A2.042,2.042,0,0,0-17.833-8.35ZM-7.26,1.1h-1.4l5.344-13.9h1.389ZM8.1-1.151a2.342,2.342,0,0,0,1.521-.527A1.855,1.855,0,0,0,10.345-3h1.538a2.949,2.949,0,0,1-.562,1.556A3.7,3.7,0,0,1,9.936-.264,3.994,3.994,0,0,1,8.1.176a3.918,3.918,0,0,1-3.089-1.3A5.163,5.163,0,0,1,3.867-4.667v-.272a5.725,5.725,0,0,1,.51-2.47A3.883,3.883,0,0,1,5.84-9.088a4.157,4.157,0,0,1,2.254-.6,3.814,3.814,0,0,1,2.659.958A3.424,3.424,0,0,1,11.883-6.24H10.345a2.241,2.241,0,0,0-.7-1.516A2.174,2.174,0,0,0,8.095-8.35a2.276,2.276,0,0,0-1.92.892,4.19,4.19,0,0,0-.681,2.58v.308A4.106,4.106,0,0,0,6.17-2.039,2.287,2.287,0,0,0,8.1-1.151ZM13.28-4.843a5.617,5.617,0,0,1,.549-2.514,4.1,4.1,0,0,1,1.529-1.723A4.163,4.163,0,0,1,17.6-9.686a4.01,4.01,0,0,1,3.142,1.345,5.174,5.174,0,0,1,1.2,3.577v.114a5.666,5.666,0,0,1-.532,2.492A4.038,4.038,0,0,1,19.885-.439a4.211,4.211,0,0,1-2.272.615A4,4,0,0,1,14.48-1.169a5.147,5.147,0,0,1-1.2-3.56Zm1.635.193a4.068,4.068,0,0,0,.734,2.54,2.349,2.349,0,0,0,1.964.958,2.335,2.335,0,0,0,1.969-.971,4.449,4.449,0,0,0,.729-2.72,4.061,4.061,0,0,0-.743-2.536A2.361,2.361,0,0,0,17.6-8.35a2.335,2.335,0,0,0-1.942.958A4.416,4.416,0,0,0,14.915-4.649Zm10.6-4.86.053,1.2a3.465,3.465,0,0,1,2.848-1.371q3.015,0,3.041,3.4V0H29.83V-6.293a2.189,2.189,0,0,0-.47-1.521,1.884,1.884,0,0,0-1.437-.492,2.347,2.347,0,0,0-1.389.422A2.865,2.865,0,0,0,25.6-6.776V0H23.977V-9.51ZM37.723-1.151a2.342,2.342,0,0,0,1.521-.527A1.855,1.855,0,0,0,39.964-3H41.5a2.949,2.949,0,0,1-.562,1.556A3.7,3.7,0,0,1,39.555-.264a3.994,3.994,0,0,1-1.833.439,3.918,3.918,0,0,1-3.089-1.3,5.163,5.163,0,0,1-1.147-3.546v-.272A5.725,5.725,0,0,1,34-7.409a3.883,3.883,0,0,1,1.463-1.679,4.157,4.157,0,0,1,2.254-.6,3.814,3.814,0,0,1,2.659.958A3.424,3.424,0,0,1,41.5-6.24H39.964a2.241,2.241,0,0,0-.7-1.516,2.174,2.174,0,0,0-1.551-.593,2.276,2.276,0,0,0-1.92.892,4.19,4.19,0,0,0-.681,2.58v.308a4.106,4.106,0,0,0,.677,2.531A2.287,2.287,0,0,0,37.723-1.151ZM47.276.176a4.155,4.155,0,0,1-3.146-1.27,4.714,4.714,0,0,1-1.213-3.4v-.3a5.707,5.707,0,0,1,.541-2.527,4.217,4.217,0,0,1,1.512-1.74,3.8,3.8,0,0,1,2.1-.628,3.562,3.562,0,0,1,2.883,1.222,5.289,5.289,0,0,1,1.028,3.5v.677H44.543a3.38,3.38,0,0,0,.822,2.272,2.583,2.583,0,0,0,2,.866A2.832,2.832,0,0,0,48.823-1.5a3.666,3.666,0,0,0,1.046-.932l.993.773A3.993,3.993,0,0,1,47.276.176Zm-.2-8.525a2.169,2.169,0,0,0-1.652.716A3.482,3.482,0,0,0,44.6-5.625h4.764v-.123a3.1,3.1,0,0,0-.668-1.92A2.042,2.042,0,0,0,47.074-8.35ZM60.9-4.649a5.694,5.694,0,0,1-.993,3.5A3.183,3.183,0,0,1,57.217.176a3.488,3.488,0,0,1-2.725-1.1V3.656H52.866V-9.51h1.485l.079,1.055a3.35,3.35,0,0,1,2.76-1.23A3.243,3.243,0,0,1,59.9-8.394a5.756,5.756,0,0,1,1,3.595Zm-1.626-.185a4.2,4.2,0,0,0-.686-2.54,2.208,2.208,0,0,0-1.881-.932A2.39,2.39,0,0,0,54.492-7v4.544a2.4,2.4,0,0,0,2.232,1.3,2.2,2.2,0,0,0,1.859-.927A4.587,4.587,0,0,0,59.273-4.834Zm5.9-6.979v2.3h1.775v1.257H65.171v5.9a1.317,1.317,0,0,0,.237.857,1,1,0,0,0,.809.286,3.937,3.937,0,0,0,.773-.105V0a4.714,4.714,0,0,1-1.248.176A2.025,2.025,0,0,1,64.1-.483a2.832,2.832,0,0,1-.554-1.872v-5.9H61.813V-9.51h1.731v-2.3Zm3.067,6.97a5.617,5.617,0,0,1,.549-2.514,4.1,4.1,0,0,1,1.529-1.723,4.163,4.163,0,0,1,2.237-.606A4.01,4.01,0,0,1,75.7-8.341a5.174,5.174,0,0,1,1.2,3.577v.114a5.666,5.666,0,0,1-.532,2.492A4.038,4.038,0,0,1,74.843-.439a4.211,4.211,0,0,1-2.272.615,4,4,0,0,1-3.133-1.345,5.147,5.147,0,0,1-1.2-3.56Zm1.635.193a4.068,4.068,0,0,0,.734,2.54,2.349,2.349,0,0,0,1.964.958,2.335,2.335,0,0,0,1.969-.971,4.449,4.449,0,0,0,.729-2.72,4.061,4.061,0,0,0-.743-2.536,2.361,2.361,0,0,0-1.973-.971,2.335,2.335,0,0,0-1.942.958A4.416,4.416,0,0,0,69.873-4.649Z" transform="translate(954.4 1812.568)" fill="#fff"/>
    <line id="Line_570" data-name="Line 570" y2="202" transform="translate(800 1889)" fill="none" stroke="#000" stroke-linecap="round" stroke-width="1"/>
    <text id="Debe_débito_" data-name="Debe (débito)" transform="translate(578.516 1956.837)" fill="#12263f" font-size="18" font-family="Roboto-Regular, Roboto"><tspan x="-53.982" y="0">Debe (débito)</tspan></text>
    <path id="Path_1278055" data-name="Path 1278055" d="M-86.37-12.8l4.184,10.441L-78-12.8h2.188V0H-77.5V-4.983l.158-5.379L-81.545,0h-1.292l-4.192-10.336.167,5.353V0H-88.55V-12.8Zm12.85,7.954a5.617,5.617,0,0,1,.549-2.514,4.1,4.1,0,0,1,1.529-1.723,4.163,4.163,0,0,1,2.237-.606,4.01,4.01,0,0,1,3.142,1.345,5.174,5.174,0,0,1,1.2,3.577v.114A5.666,5.666,0,0,1-65.4-2.158,4.038,4.038,0,0,1-66.916-.439a4.211,4.211,0,0,1-2.272.615,4,4,0,0,1-3.133-1.345,5.147,5.147,0,0,1-1.2-3.56Zm1.635.193a4.068,4.068,0,0,0,.734,2.54,2.349,2.349,0,0,0,1.964.958,2.335,2.335,0,0,0,1.969-.971,4.449,4.449,0,0,0,.729-2.72,4.061,4.061,0,0,0-.743-2.536,2.361,2.361,0,0,0-1.973-.971,2.335,2.335,0,0,0-1.942.958A4.416,4.416,0,0,0-71.886-4.649Zm12.067,2.443,2.355-7.3H-55.8L-59.212,0h-1.239L-63.9-9.51h1.661ZM-52.471,0H-54.1V-9.51h1.626Zm-1.758-12.032a.971.971,0,0,1,.242-.668.907.907,0,0,1,.716-.272.922.922,0,0,1,.721.272.96.96,0,0,1,.246.668.929.929,0,0,1-.246.659.938.938,0,0,1-.721.264.924.924,0,0,1-.716-.264A.938.938,0,0,1-54.229-12.032ZM-48.34-9.51l.044,1.055a3.512,3.512,0,0,1,2.821-1.23,2.719,2.719,0,0,1,2.716,1.529,3.6,3.6,0,0,1,1.235-1.107,3.647,3.647,0,0,1,1.8-.422q3.129,0,3.182,3.313V0h-1.626V-6.275A2.184,2.184,0,0,0-38.637-7.8,2.051,2.051,0,0,0-40.2-8.306a2.156,2.156,0,0,0-1.5.541A2.193,2.193,0,0,0-42.4-6.311V0h-1.635V-6.231a1.814,1.814,0,0,0-2.03-2.074,2.175,2.175,0,0,0-2.188,1.362V0h-1.626V-9.51ZM-32.326,0h-1.626V-9.51h1.626Zm-1.758-12.032a.971.971,0,0,1,.242-.668.907.907,0,0,1,.716-.272.922.922,0,0,1,.721.272.96.96,0,0,1,.246.668.929.929,0,0,1-.246.659.938.938,0,0,1-.721.264.924.924,0,0,1-.716-.264A.938.938,0,0,1-34.084-12.032ZM-25.778.176a4.155,4.155,0,0,1-3.146-1.27,4.714,4.714,0,0,1-1.213-3.4v-.3A5.707,5.707,0,0,1-29.6-7.317a4.217,4.217,0,0,1,1.512-1.74,3.8,3.8,0,0,1,2.1-.628A3.562,3.562,0,0,1-23.1-8.464a5.289,5.289,0,0,1,1.028,3.5v.677h-6.442a3.38,3.38,0,0,0,.822,2.272,2.583,2.583,0,0,0,2,.866A2.832,2.832,0,0,0-24.231-1.5a3.666,3.666,0,0,0,1.046-.932l.993.773A3.993,3.993,0,0,1-25.778.176Zm-.2-8.525a2.169,2.169,0,0,0-1.652.716,3.482,3.482,0,0,0-.826,2.008H-23.7v-.123a3.1,3.1,0,0,0-.668-1.92A2.042,2.042,0,0,0-25.98-8.35Zm7.33-1.16.053,1.2A3.465,3.465,0,0,1-15.75-9.686q3.015,0,3.041,3.4V0h-1.626V-6.293a2.189,2.189,0,0,0-.47-1.521,1.884,1.884,0,0,0-1.437-.492,2.347,2.347,0,0,0-1.389.422,2.865,2.865,0,0,0-.932,1.107V0h-1.626V-9.51Zm10.6-2.3v2.3h1.775v1.257H-8.051v5.9a1.317,1.317,0,0,0,.237.857A1,1,0,0,0-7-1.213a3.937,3.937,0,0,0,.773-.105V0A4.714,4.714,0,0,1-7.479.176,2.025,2.025,0,0,1-9.123-.483a2.832,2.832,0,0,1-.554-1.872v-5.9h-1.731V-9.51h1.731v-2.3Zm3.067,6.97a5.617,5.617,0,0,1,.549-2.514A4.1,4.1,0,0,1-2.9-9.079,4.163,4.163,0,0,1-.668-9.686,4.01,4.01,0,0,1,2.474-8.341a5.174,5.174,0,0,1,1.2,3.577v.114a5.666,5.666,0,0,1-.532,2.492A4.038,4.038,0,0,1,1.622-.439,4.211,4.211,0,0,1-.65.176,4,4,0,0,1-3.784-1.169a5.147,5.147,0,0,1-1.2-3.56Zm1.635.193a4.068,4.068,0,0,0,.734,2.54A2.349,2.349,0,0,0-.65-1.151a2.335,2.335,0,0,0,1.969-.971,4.449,4.449,0,0,0,.729-2.72,4.061,4.061,0,0,0-.743-2.536A2.361,2.361,0,0,0-.668-8.35a2.335,2.335,0,0,0-1.942.958A4.416,4.416,0,0,0-3.349-4.649Zm14.6,2.127a1.2,1.2,0,0,0-.5-1.024,4.78,4.78,0,0,0-1.731-.628,8.186,8.186,0,0,1-1.96-.633A2.788,2.788,0,0,1,5.99-5.687,2.1,2.1,0,0,1,5.643-6.9a2.467,2.467,0,0,1,.989-1.978,3.861,3.861,0,0,1,2.527-.809,3.974,3.974,0,0,1,2.624.835,2.652,2.652,0,0,1,1.006,2.136H11.153a1.468,1.468,0,0,0-.567-1.151A2.124,2.124,0,0,0,9.158-8.35a2.223,2.223,0,0,0-1.389.387,1.217,1.217,0,0,0-.5,1.011.986.986,0,0,0,.466.888,5.731,5.731,0,0,0,1.683.571,8.77,8.77,0,0,1,1.973.65,2.878,2.878,0,0,1,1.121.91,2.237,2.237,0,0,1,.365,1.3,2.434,2.434,0,0,1-1.02,2.043A4.277,4.277,0,0,1,9.211.176a4.789,4.789,0,0,1-2.021-.4A3.288,3.288,0,0,1,5.814-1.358a2.722,2.722,0,0,1-.5-1.569H6.943A1.683,1.683,0,0,0,7.6-1.63a2.54,2.54,0,0,0,1.613.479,2.622,2.622,0,0,0,1.481-.374A1.148,1.148,0,0,0,11.25-2.522Zm8.139-2.672a13.589,13.589,0,0,1,.532-3.814,11.081,11.081,0,0,1,1.586-3.322A6.749,6.749,0,0,1,23.7-14.44l.334,1.072a7,7,0,0,0-2.1,3.006,13.031,13.031,0,0,0-.9,4.526l-.009.747A13.1,13.1,0,0,0,22.254.8a7.033,7.033,0,0,0,1.775,2.338l-.334.993a6.966,6.966,0,0,1-2.232-2.18A12.217,12.217,0,0,1,19.389-5.194Zm5.818.36a5.571,5.571,0,0,1,1.037-3.52A3.28,3.28,0,0,1,28.96-9.686a3.3,3.3,0,0,1,2.646,1.143V-13.5h1.626V0H31.737l-.079-1.02a3.311,3.311,0,0,1-2.716,1.2,3.248,3.248,0,0,1-2.694-1.354,5.634,5.634,0,0,1-1.042-3.533Zm1.626.185A4.218,4.218,0,0,0,27.5-2.118a2.159,2.159,0,0,0,1.846.914,2.372,2.372,0,0,0,2.259-1.389V-6.961a2.39,2.39,0,0,0-2.241-1.345,2.17,2.17,0,0,0-1.863.923A4.644,4.644,0,0,0,26.833-4.649ZM39.7.176a4.155,4.155,0,0,1-3.146-1.27,4.714,4.714,0,0,1-1.213-3.4v-.3a5.707,5.707,0,0,1,.541-2.527,4.217,4.217,0,0,1,1.512-1.74,3.8,3.8,0,0,1,2.1-.628,3.562,3.562,0,0,1,2.883,1.222,5.289,5.289,0,0,1,1.028,3.5v.677H36.967a3.38,3.38,0,0,0,.822,2.272,2.583,2.583,0,0,0,2,.866A2.832,2.832,0,0,0,41.247-1.5a3.666,3.666,0,0,0,1.046-.932l.993.773A3.993,3.993,0,0,1,39.7.176ZM39.5-8.35a2.169,2.169,0,0,0-1.652.716,3.482,3.482,0,0,0-.826,2.008h4.764v-.123a3.1,3.1,0,0,0-.668-1.92A2.042,2.042,0,0,0,39.5-8.35Zm.791-5.15h1.969L39.9-10.916h-1.31ZM53.341-4.649a5.654,5.654,0,0,1-1,3.5A3.2,3.2,0,0,1,49.649.176,3.315,3.315,0,0,1,46.863-1.1L46.784,0H45.29V-13.5h1.626v5.036a3.3,3.3,0,0,1,2.716-1.222,3.221,3.221,0,0,1,2.72,1.31,5.824,5.824,0,0,1,.989,3.586Zm-1.626-.185A4.394,4.394,0,0,0,51.073-7.4a2.124,2.124,0,0,0-1.846-.905,2.387,2.387,0,0,0-2.312,1.494V-2.7A2.454,2.454,0,0,0,49.245-1.2a2.112,2.112,0,0,0,1.819-.905A4.672,4.672,0,0,0,51.715-4.834ZM57.155,0H55.529V-9.51h1.626ZM55.4-12.032a.971.971,0,0,1,.242-.668.907.907,0,0,1,.716-.272.922.922,0,0,1,.721.272.96.96,0,0,1,.246.668.929.929,0,0,1-.246.659.938.938,0,0,1-.721.264.924.924,0,0,1-.716-.264A.938.938,0,0,1,55.4-12.032Zm6.565.22v2.3h1.775v1.257H61.963v5.9A1.317,1.317,0,0,0,62.2-1.5a1,1,0,0,0,.809.286,3.937,3.937,0,0,0,.773-.105V0a4.714,4.714,0,0,1-1.248.176,2.025,2.025,0,0,1-1.644-.659,2.832,2.832,0,0,1-.554-1.872v-5.9H58.605V-9.51h1.731v-2.3Zm3.067,6.97a5.617,5.617,0,0,1,.549-2.514,4.1,4.1,0,0,1,1.529-1.723,4.163,4.163,0,0,1,2.237-.606,4.01,4.01,0,0,1,3.142,1.345,5.174,5.174,0,0,1,1.2,3.577v.114a5.666,5.666,0,0,1-.532,2.492A4.038,4.038,0,0,1,71.635-.439a4.211,4.211,0,0,1-2.272.615A4,4,0,0,1,66.23-1.169a5.147,5.147,0,0,1-1.2-3.56Zm1.635.193a4.068,4.068,0,0,0,.734,2.54,2.349,2.349,0,0,0,1.964.958,2.335,2.335,0,0,0,1.969-.971,4.449,4.449,0,0,0,.729-2.72,4.061,4.061,0,0,0-.743-2.536,2.361,2.361,0,0,0-1.973-.971,2.335,2.335,0,0,0-1.942.958A4.416,4.416,0,0,0,66.665-4.649Zm14.6,2.127a1.2,1.2,0,0,0-.5-1.024,4.78,4.78,0,0,0-1.731-.628,8.186,8.186,0,0,1-1.96-.633A2.788,2.788,0,0,1,76-5.687,2.1,2.1,0,0,1,75.656-6.9a2.467,2.467,0,0,1,.989-1.978,3.861,3.861,0,0,1,2.527-.809,3.974,3.974,0,0,1,2.624.835A2.652,2.652,0,0,1,82.8-6.715H81.167A1.468,1.468,0,0,0,80.6-7.866a2.124,2.124,0,0,0-1.428-.483,2.223,2.223,0,0,0-1.389.387,1.217,1.217,0,0,0-.5,1.011.986.986,0,0,0,.466.888,5.731,5.731,0,0,0,1.683.571,8.77,8.77,0,0,1,1.973.65,2.878,2.878,0,0,1,1.121.91,2.237,2.237,0,0,1,.365,1.3A2.434,2.434,0,0,1,81.87-.593a4.277,4.277,0,0,1-2.646.769,4.789,4.789,0,0,1-2.021-.4,3.288,3.288,0,0,1-1.375-1.129,2.722,2.722,0,0,1-.5-1.569h1.626a1.683,1.683,0,0,0,.655,1.3,2.54,2.54,0,0,0,1.613.479,2.622,2.622,0,0,0,1.481-.374A1.148,1.148,0,0,0,81.264-2.522Zm7.5-2.584a13.6,13.6,0,0,1-.514,3.757,11.11,11.11,0,0,1-1.573,3.318,6.893,6.893,0,0,1-2.219,2.162l-.343-.993A7.066,7.066,0,0,0,86.287-.083a13.935,13.935,0,0,0,.839-4.847v-.281a14.469,14.469,0,0,0-.387-3.432,11.583,11.583,0,0,0-1.077-2.843,6.567,6.567,0,0,0-1.551-1.96l.343-.993a6.866,6.866,0,0,1,2.21,2.145,11.134,11.134,0,0,1,1.573,3.313A13.909,13.909,0,0,1,88.761-5.106Z" transform="translate(578.516 2044.028)" fill="#12263f"/>
    <path id="Path_1278054" data-name="Path 1278054" d="M-52.5,0V-12.8h3.612a5.815,5.815,0,0,1,2.953.738,4.993,4.993,0,0,1,1.982,2.1,6.837,6.837,0,0,1,.708,3.129v.817a6.861,6.861,0,0,1-.7,3.173,4.915,4.915,0,0,1-2,2.092A6.185,6.185,0,0,1-48.955,0Zm1.688-11.408V-1.38h1.775A3.864,3.864,0,0,0-46-2.593a5.008,5.008,0,0,0,1.085-3.454v-.747a5.088,5.088,0,0,0-1.024-3.388,3.645,3.645,0,0,0-2.9-1.226ZM-37,.176a4.155,4.155,0,0,1-3.146-1.27,4.714,4.714,0,0,1-1.213-3.4v-.3a5.707,5.707,0,0,1,.541-2.527,4.217,4.217,0,0,1,1.512-1.74,3.8,3.8,0,0,1,2.1-.628,3.562,3.562,0,0,1,2.883,1.222,5.289,5.289,0,0,1,1.028,3.5v.677h-6.442a3.38,3.38,0,0,0,.822,2.272,2.583,2.583,0,0,0,2,.866A2.832,2.832,0,0,0-35.455-1.5a3.666,3.666,0,0,0,1.046-.932l.993.773A3.993,3.993,0,0,1-37,.176Zm-.2-8.525a2.169,2.169,0,0,0-1.652.716,3.482,3.482,0,0,0-.826,2.008h4.764v-.123a3.1,3.1,0,0,0-.668-1.92A2.042,2.042,0,0,0-37.2-8.35Zm13.843,3.7a5.654,5.654,0,0,1-1,3.5A3.2,3.2,0,0,1-27.053.176,3.315,3.315,0,0,1-29.839-1.1L-29.918,0h-1.494V-13.5h1.626v5.036A3.3,3.3,0,0,1-27.07-9.686a3.221,3.221,0,0,1,2.72,1.31,5.824,5.824,0,0,1,.989,3.586Zm-1.626-.185A4.394,4.394,0,0,0-25.629-7.4a2.124,2.124,0,0,0-1.846-.905,2.387,2.387,0,0,0-2.312,1.494V-2.7A2.454,2.454,0,0,0-27.457-1.2a2.112,2.112,0,0,0,1.819-.905A4.672,4.672,0,0,0-24.987-4.834Zm7.62,5.01a4.155,4.155,0,0,1-3.146-1.27,4.714,4.714,0,0,1-1.213-3.4v-.3a5.707,5.707,0,0,1,.541-2.527,4.217,4.217,0,0,1,1.512-1.74,3.8,3.8,0,0,1,2.1-.628,3.562,3.562,0,0,1,2.883,1.222,5.289,5.289,0,0,1,1.028,3.5v.677H-20.1a3.38,3.38,0,0,0,.822,2.272,2.583,2.583,0,0,0,2,.866A2.832,2.832,0,0,0-15.82-1.5a3.666,3.666,0,0,0,1.046-.932l.993.773A3.993,3.993,0,0,1-17.367.176Zm-.2-8.525a2.169,2.169,0,0,0-1.652.716,3.482,3.482,0,0,0-.826,2.008h4.764v-.123a3.1,3.1,0,0,0-.668-1.92A2.042,2.042,0,0,0-17.569-8.35ZM-7.383-5.194a13.589,13.589,0,0,1,.532-3.814,11.081,11.081,0,0,1,1.586-3.322A6.749,6.749,0,0,1-3.076-14.44l.334,1.072a7,7,0,0,0-2.1,3.006,13.031,13.031,0,0,0-.9,4.526l-.009.747A13.1,13.1,0,0,0-4.518.8,7.033,7.033,0,0,0-2.742,3.138l-.334.993a6.966,6.966,0,0,1-2.232-2.18A12.217,12.217,0,0,1-7.383-5.194Zm5.818.36A5.571,5.571,0,0,1-.527-8.354,3.28,3.28,0,0,1,2.188-9.686,3.3,3.3,0,0,1,4.834-8.543V-13.5H6.46V0H4.966L4.887-1.02A3.311,3.311,0,0,1,2.171.176,3.248,3.248,0,0,1-.523-1.178,5.634,5.634,0,0,1-1.564-4.711Zm1.626.185A4.218,4.218,0,0,0,.729-2.118,2.159,2.159,0,0,0,2.575-1.2,2.372,2.372,0,0,0,4.834-2.593V-6.961A2.39,2.39,0,0,0,2.593-8.306a2.17,2.17,0,0,0-1.863.923A4.644,4.644,0,0,0,.062-4.649ZM12.929.176a4.155,4.155,0,0,1-3.146-1.27,4.714,4.714,0,0,1-1.213-3.4v-.3A5.707,5.707,0,0,1,9.11-7.317a4.217,4.217,0,0,1,1.512-1.74,3.8,3.8,0,0,1,2.1-.628,3.562,3.562,0,0,1,2.883,1.222,5.289,5.289,0,0,1,1.028,3.5v.677H10.2a3.38,3.38,0,0,0,.822,2.272,2.583,2.583,0,0,0,2,.866A2.832,2.832,0,0,0,14.476-1.5a3.666,3.666,0,0,0,1.046-.932l.993.773A3.993,3.993,0,0,1,12.929.176Zm-.2-8.525a2.169,2.169,0,0,0-1.652.716,3.482,3.482,0,0,0-.826,2.008h4.764v-.123a3.1,3.1,0,0,0-.668-1.92A2.042,2.042,0,0,0,12.727-8.35Zm.791-5.15h1.969l-2.355,2.584h-1.31ZM26.569-4.649a5.654,5.654,0,0,1-1,3.5A3.2,3.2,0,0,1,22.878.176,3.315,3.315,0,0,1,20.092-1.1L20.013,0H18.519V-13.5h1.626v5.036A3.3,3.3,0,0,1,22.86-9.686a3.221,3.221,0,0,1,2.72,1.31,5.824,5.824,0,0,1,.989,3.586Zm-1.626-.185A4.394,4.394,0,0,0,24.3-7.4a2.124,2.124,0,0,0-1.846-.905,2.387,2.387,0,0,0-2.312,1.494V-2.7A2.454,2.454,0,0,0,22.474-1.2a2.112,2.112,0,0,0,1.819-.905A4.672,4.672,0,0,0,24.943-4.834ZM30.384,0H28.758V-9.51h1.626ZM28.626-12.032a.971.971,0,0,1,.242-.668.907.907,0,0,1,.716-.272.922.922,0,0,1,.721.272.96.96,0,0,1,.246.668.929.929,0,0,1-.246.659.938.938,0,0,1-.721.264.924.924,0,0,1-.716-.264A.938.938,0,0,1,28.626-12.032Zm6.565.22v2.3h1.775v1.257H35.191v5.9a1.317,1.317,0,0,0,.237.857,1,1,0,0,0,.809.286,3.937,3.937,0,0,0,.773-.105V0a4.714,4.714,0,0,1-1.248.176,2.025,2.025,0,0,1-1.644-.659,2.832,2.832,0,0,1-.554-1.872v-5.9H31.834V-9.51h1.731v-2.3Zm3.067,6.97a5.617,5.617,0,0,1,.549-2.514,4.1,4.1,0,0,1,1.529-1.723,4.163,4.163,0,0,1,2.237-.606,4.01,4.01,0,0,1,3.142,1.345,5.174,5.174,0,0,1,1.2,3.577v.114a5.666,5.666,0,0,1-.532,2.492A4.038,4.038,0,0,1,44.864-.439a4.211,4.211,0,0,1-2.272.615,4,4,0,0,1-3.133-1.345,5.147,5.147,0,0,1-1.2-3.56Zm1.635.193a4.068,4.068,0,0,0,.734,2.54,2.349,2.349,0,0,0,1.964.958,2.335,2.335,0,0,0,1.969-.971,4.449,4.449,0,0,0,.729-2.72,4.061,4.061,0,0,0-.743-2.536,2.361,2.361,0,0,0-1.973-.971,2.335,2.335,0,0,0-1.942.958A4.416,4.416,0,0,0,39.894-4.649Zm12.814-.457a13.6,13.6,0,0,1-.514,3.757,11.11,11.11,0,0,1-1.573,3.318A6.893,6.893,0,0,1,48.4,4.131l-.343-.993A7.066,7.066,0,0,0,50.234-.083a13.935,13.935,0,0,0,.839-4.847v-.281a14.469,14.469,0,0,0-.387-3.432,11.583,11.583,0,0,0-1.077-2.843,6.567,6.567,0,0,0-1.551-1.96l.343-.993a6.866,6.866,0,0,1,2.21,2.145,11.134,11.134,0,0,1,1.573,3.313A13.909,13.909,0,0,1,52.708-5.106Z" transform="translate(578.516 1956.837)" fill="#12263f"/>
    <path id="Path_1278058" data-name="Path 1278058" d="M-198.866-5.7a7.935,7.935,0,0,1-3.16-1.534,2.93,2.93,0,0,1-.989-2.246,3.1,3.1,0,0,1,1.208-2.5,4.8,4.8,0,0,1,3.142-.989,5.243,5.243,0,0,1,2.351.51,3.866,3.866,0,0,1,1.6,1.406,3.6,3.6,0,0,1,.567,1.96h-1.7a2.327,2.327,0,0,0-.738-1.824,3.009,3.009,0,0,0-2.083-.664,3.078,3.078,0,0,0-1.947.549,1.831,1.831,0,0,0-.7,1.525,1.648,1.648,0,0,0,.664,1.323,6.514,6.514,0,0,0,2.259.989,10.46,10.46,0,0,1,2.5.989,3.788,3.788,0,0,1,1.336,1.261,3.219,3.219,0,0,1,.435,1.7A2.99,2.99,0,0,1-195.333-.76a5.171,5.171,0,0,1-3.243.936,6.015,6.015,0,0,1-2.461-.505A4.142,4.142,0,0,1-202.8-1.714a3.378,3.378,0,0,1-.62-2h1.7a2.2,2.2,0,0,0,.857,1.833,3.608,3.608,0,0,0,2.29.672,3.317,3.317,0,0,0,2.048-.545,1.77,1.77,0,0,0,.712-1.485,1.738,1.738,0,0,0-.659-1.455A7.6,7.6,0,0,0-198.866-5.7ZM-186.341,0a3.416,3.416,0,0,1-.229-1A3.628,3.628,0,0,1-189.277.176a3.357,3.357,0,0,1-2.307-.8,2.573,2.573,0,0,1-.9-2.017,2.688,2.688,0,0,1,1.129-2.307,5.325,5.325,0,0,1,3.177-.822h1.582v-.747a1.826,1.826,0,0,0-.51-1.358,2.049,2.049,0,0,0-1.5-.505,2.371,2.371,0,0,0-1.459.439,1.3,1.3,0,0,0-.589,1.063h-1.635a2.244,2.244,0,0,1,.505-1.375,3.449,3.449,0,0,1,1.371-1.05,4.613,4.613,0,0,1,1.9-.387,3.759,3.759,0,0,1,2.575.822A2.964,2.964,0,0,1-184.97-6.6v4.377a5.351,5.351,0,0,0,.334,2.083V0Zm-2.7-1.239a2.858,2.858,0,0,0,1.45-.4,2.392,2.392,0,0,0,.993-1.028V-4.614h-1.274q-2.988,0-2.988,1.749a1.48,1.48,0,0,0,.51,1.2A1.959,1.959,0,0,0-189.04-1.239ZM-180.655,0h-1.626V-13.5h1.626Zm2.206-4.834a5.571,5.571,0,0,1,1.037-3.52A3.28,3.28,0,0,1-174.7-9.686a3.3,3.3,0,0,1,2.646,1.143V-13.5h1.626V0h-1.494L-172-1.02a3.311,3.311,0,0,1-2.716,1.2,3.248,3.248,0,0,1-2.694-1.354,5.634,5.634,0,0,1-1.042-3.533Zm1.626.185a4.218,4.218,0,0,0,.668,2.531,2.159,2.159,0,0,0,1.846.914,2.372,2.372,0,0,0,2.259-1.389V-6.961a2.39,2.39,0,0,0-2.241-1.345,2.17,2.17,0,0,0-1.863.923A4.644,4.644,0,0,0-176.823-4.649Zm8.49-.193a5.617,5.617,0,0,1,.549-2.514,4.1,4.1,0,0,1,1.529-1.723,4.163,4.163,0,0,1,2.237-.606,4.01,4.01,0,0,1,3.142,1.345,5.174,5.174,0,0,1,1.2,3.577v.114a5.666,5.666,0,0,1-.532,2.492,4.038,4.038,0,0,1-1.521,1.718A4.211,4.211,0,0,1-164,.176a4,4,0,0,1-3.133-1.345,5.147,5.147,0,0,1-1.2-3.56Zm1.635.193a4.068,4.068,0,0,0,.734,2.54A2.349,2.349,0,0,0-164-1.151a2.335,2.335,0,0,0,1.969-.971,4.449,4.449,0,0,0,.729-2.72,4.061,4.061,0,0,0-.743-2.536,2.361,2.361,0,0,0-1.973-.971,2.335,2.335,0,0,0-1.942.958A4.416,4.416,0,0,0-166.7-4.649Zm13.456-.545a13.589,13.589,0,0,1,.532-3.814,11.081,11.081,0,0,1,1.586-3.322,6.749,6.749,0,0,1,2.188-2.109l.334,1.072a7,7,0,0,0-2.1,3.006,13.031,13.031,0,0,0-.9,4.526l-.009.747A13.1,13.1,0,0,0-150.376.8,7.033,7.033,0,0,0-148.6,3.138l-.334.993a6.966,6.966,0,0,1-2.232-2.18A12.217,12.217,0,0,1-153.242-5.194Zm5.818.36a5.571,5.571,0,0,1,1.037-3.52,3.28,3.28,0,0,1,2.716-1.332,3.3,3.3,0,0,1,2.646,1.143V-13.5h1.626V0h-1.494l-.079-1.02a3.311,3.311,0,0,1-2.716,1.2,3.248,3.248,0,0,1-2.694-1.354,5.634,5.634,0,0,1-1.042-3.533Zm1.626.185a4.218,4.218,0,0,0,.668,2.531,2.159,2.159,0,0,0,1.846.914,2.372,2.372,0,0,0,2.259-1.389V-6.961a2.39,2.39,0,0,0-2.241-1.345,2.17,2.17,0,0,0-1.863.923A4.644,4.644,0,0,0-145.8-4.649ZM-132.93.176a4.155,4.155,0,0,1-3.146-1.27,4.714,4.714,0,0,1-1.213-3.4v-.3a5.707,5.707,0,0,1,.541-2.527,4.217,4.217,0,0,1,1.512-1.74,3.8,3.8,0,0,1,2.1-.628,3.562,3.562,0,0,1,2.883,1.222,5.289,5.289,0,0,1,1.028,3.5v.677h-6.442a3.38,3.38,0,0,0,.822,2.272,2.583,2.583,0,0,0,2,.866,2.832,2.832,0,0,0,1.459-.352,3.666,3.666,0,0,0,1.046-.932l.993.773A3.993,3.993,0,0,1-132.93.176Zm-.2-8.525a2.169,2.169,0,0,0-1.652.716,3.482,3.482,0,0,0-.826,2.008h4.764v-.123a3.1,3.1,0,0,0-.668-1.92A2.042,2.042,0,0,0-133.132-8.35Zm.791-5.15h1.969l-2.355,2.584h-1.31Zm13.052,8.851a5.654,5.654,0,0,1-1,3.5A3.2,3.2,0,0,1-122.981.176,3.315,3.315,0,0,1-125.767-1.1l-.079,1.1h-1.494V-13.5h1.626v5.036A3.3,3.3,0,0,1-123-9.686a3.221,3.221,0,0,1,2.72,1.31,5.824,5.824,0,0,1,.989,3.586Zm-1.626-.185a4.394,4.394,0,0,0-.642-2.566,2.124,2.124,0,0,0-1.846-.905,2.387,2.387,0,0,0-2.312,1.494V-2.7A2.454,2.454,0,0,0-123.385-1.2a2.112,2.112,0,0,0,1.819-.905A4.672,4.672,0,0,0-120.916-4.834ZM-115.475,0H-117.1V-9.51h1.626Zm-1.758-12.032a.971.971,0,0,1,.242-.668.907.907,0,0,1,.716-.272.922.922,0,0,1,.721.272.96.96,0,0,1,.246.668.929.929,0,0,1-.246.659.938.938,0,0,1-.721.264.924.924,0,0,1-.716-.264A.938.938,0,0,1-117.233-12.032Zm6.565.22v2.3h1.775v1.257h-1.775v5.9a1.317,1.317,0,0,0,.237.857,1,1,0,0,0,.809.286,3.937,3.937,0,0,0,.773-.105V0A4.714,4.714,0,0,1-110.1.176a2.025,2.025,0,0,1-1.644-.659,2.832,2.832,0,0,1-.554-1.872v-5.9h-1.731V-9.51h1.731v-2.3Zm3.067,6.97a5.617,5.617,0,0,1,.549-2.514,4.1,4.1,0,0,1,1.529-1.723,4.163,4.163,0,0,1,2.237-.606,4.01,4.01,0,0,1,3.142,1.345,5.174,5.174,0,0,1,1.2,3.577v.114a5.666,5.666,0,0,1-.532,2.492A4.038,4.038,0,0,1-101-.439a4.211,4.211,0,0,1-2.272.615A4,4,0,0,1-106.4-1.169a5.147,5.147,0,0,1-1.2-3.56Zm1.635.193a4.068,4.068,0,0,0,.734,2.54,2.349,2.349,0,0,0,1.964.958,2.335,2.335,0,0,0,1.969-.971,4.449,4.449,0,0,0,.729-2.72,4.061,4.061,0,0,0-.743-2.536,2.361,2.361,0,0,0-1.973-.971,2.335,2.335,0,0,0-1.942.958A4.416,4.416,0,0,0-105.965-4.649Zm13.087-.193a5.617,5.617,0,0,1,.549-2.514A4.1,4.1,0,0,1-90.8-9.079a4.163,4.163,0,0,1,2.237-.606,4.01,4.01,0,0,1,3.142,1.345,5.174,5.174,0,0,1,1.2,3.577v.114a5.666,5.666,0,0,1-.532,2.492A4.038,4.038,0,0,1-86.273-.439a4.211,4.211,0,0,1-2.272.615,4,4,0,0,1-3.133-1.345,5.147,5.147,0,0,1-1.2-3.56Zm1.635.193a4.068,4.068,0,0,0,.734,2.54,2.349,2.349,0,0,0,1.964.958,2.335,2.335,0,0,0,1.969-.971,4.449,4.449,0,0,0,.729-2.72,4.061,4.061,0,0,0-.743-2.536,2.361,2.361,0,0,0-1.973-.971,2.335,2.335,0,0,0-1.942.958A4.416,4.416,0,0,0-91.244-4.649Zm17.332,3.5a2.342,2.342,0,0,0,1.521-.527A1.855,1.855,0,0,0-71.67-3h1.538a2.949,2.949,0,0,1-.562,1.556A3.7,3.7,0,0,1-72.079-.264a3.994,3.994,0,0,1-1.833.439A3.918,3.918,0,0,1-77-1.121a5.163,5.163,0,0,1-1.147-3.546v-.272a5.725,5.725,0,0,1,.51-2.47,3.883,3.883,0,0,1,1.463-1.679,4.157,4.157,0,0,1,2.254-.6,3.814,3.814,0,0,1,2.659.958A3.424,3.424,0,0,1-70.132-6.24H-71.67a2.241,2.241,0,0,0-.7-1.516A2.174,2.174,0,0,0-73.92-8.35a2.276,2.276,0,0,0-1.92.892,4.19,4.19,0,0,0-.681,2.58v.308a4.106,4.106,0,0,0,.677,2.531A2.287,2.287,0,0,0-73.912-1.151Zm10.2-6.9a4.873,4.873,0,0,0-.8-.062A2.143,2.143,0,0,0-66.678-6.75V0H-68.3V-9.51h1.582l.026,1.1a2.532,2.532,0,0,1,2.268-1.274,1.661,1.661,0,0,1,.721.123ZM-58.434.176a4.155,4.155,0,0,1-3.146-1.27,4.714,4.714,0,0,1-1.213-3.4v-.3a5.707,5.707,0,0,1,.541-2.527,4.217,4.217,0,0,1,1.512-1.74,3.8,3.8,0,0,1,2.1-.628,3.562,3.562,0,0,1,2.883,1.222,5.289,5.289,0,0,1,1.028,3.5v.677h-6.442a3.38,3.38,0,0,0,.822,2.272,2.583,2.583,0,0,0,2,.866A2.832,2.832,0,0,0-56.887-1.5a3.666,3.666,0,0,0,1.046-.932l.993.773A3.993,3.993,0,0,1-58.434.176Zm-.2-8.525a2.169,2.169,0,0,0-1.652.716,3.482,3.482,0,0,0-.826,2.008h4.764v-.123a3.1,3.1,0,0,0-.668-1.92A2.042,2.042,0,0,0-58.636-8.35Zm.791-5.15h1.969l-2.355,2.584h-1.31Zm4.605,8.666A5.571,5.571,0,0,1-52.2-8.354a3.28,3.28,0,0,1,2.716-1.332,3.3,3.3,0,0,1,2.646,1.143V-13.5h1.626V0h-1.494l-.079-1.02A3.311,3.311,0,0,1-49.5.176,3.248,3.248,0,0,1-52.2-1.178,5.634,5.634,0,0,1-53.24-4.711Zm1.626.185a4.218,4.218,0,0,0,.668,2.531A2.159,2.159,0,0,0-49.1-1.2a2.372,2.372,0,0,0,2.259-1.389V-6.961a2.39,2.39,0,0,0-2.241-1.345,2.17,2.17,0,0,0-1.863.923A4.644,4.644,0,0,0-51.614-4.649ZM-40.926,0h-1.626V-9.51h1.626Zm-1.758-12.032a.971.971,0,0,1,.242-.668.907.907,0,0,1,.716-.272.922.922,0,0,1,.721.272.96.96,0,0,1,.246.668.929.929,0,0,1-.246.659.938.938,0,0,1-.721.264.924.924,0,0,1-.716-.264A.938.938,0,0,1-42.684-12.032Zm6.565.22v2.3h1.775v1.257h-1.775v5.9a1.317,1.317,0,0,0,.237.857,1,1,0,0,0,.809.286,3.937,3.937,0,0,0,.773-.105V0a4.714,4.714,0,0,1-1.248.176,2.025,2.025,0,0,1-1.644-.659,2.832,2.832,0,0,1-.554-1.872v-5.9h-1.731V-9.51h1.731v-2.3Zm3.067,6.97A5.617,5.617,0,0,1-32.5-7.356a4.1,4.1,0,0,1,1.529-1.723,4.163,4.163,0,0,1,2.237-.606,4.01,4.01,0,0,1,3.142,1.345,5.174,5.174,0,0,1,1.2,3.577v.114a5.666,5.666,0,0,1-.532,2.492A4.038,4.038,0,0,1-26.446-.439a4.211,4.211,0,0,1-2.272.615,4,4,0,0,1-3.133-1.345,5.147,5.147,0,0,1-1.2-3.56Zm1.635.193a4.068,4.068,0,0,0,.734,2.54,2.349,2.349,0,0,0,1.964.958,2.335,2.335,0,0,0,1.969-.971,4.449,4.449,0,0,0,.729-2.72,4.061,4.061,0,0,0-.743-2.536,2.361,2.361,0,0,0-1.973-.971,2.335,2.335,0,0,0-1.942.958A4.416,4.416,0,0,0-31.417-4.649Zm9.009,7.2-.923-.633a4.241,4.241,0,0,0,.861-2.373V-1.925h1.591V-.65a4,4,0,0,1-.435,1.775A4.156,4.156,0,0,1-22.408,2.549ZM-8.829-2.522a1.2,1.2,0,0,0-.5-1.024,4.78,4.78,0,0,0-1.731-.628,8.186,8.186,0,0,1-1.96-.633,2.788,2.788,0,0,1-1.072-.879A2.1,2.1,0,0,1-14.436-6.9a2.467,2.467,0,0,1,.989-1.978,3.861,3.861,0,0,1,2.527-.809A3.974,3.974,0,0,1-8.3-8.851,2.652,2.652,0,0,1-7.291-6.715H-8.925a1.468,1.468,0,0,0-.567-1.151A2.124,2.124,0,0,0-10.92-8.35a2.223,2.223,0,0,0-1.389.387,1.217,1.217,0,0,0-.5,1.011.986.986,0,0,0,.466.888,5.731,5.731,0,0,0,1.683.571,8.77,8.77,0,0,1,1.973.65,2.878,2.878,0,0,1,1.121.91,2.237,2.237,0,0,1,.365,1.3A2.434,2.434,0,0,1-8.222-.593a4.277,4.277,0,0,1-2.646.769,4.789,4.789,0,0,1-2.021-.4,3.288,3.288,0,0,1-1.375-1.129,2.722,2.722,0,0,1-.5-1.569h1.626a1.683,1.683,0,0,0,.655,1.3,2.54,2.54,0,0,0,1.613.479,2.622,2.622,0,0,0,1.481-.374A1.148,1.148,0,0,0-8.829-2.522Zm7.69,2.7a4.155,4.155,0,0,1-3.146-1.27A4.714,4.714,0,0,1-5.5-4.491v-.3a5.707,5.707,0,0,1,.541-2.527,4.217,4.217,0,0,1,1.512-1.74,3.8,3.8,0,0,1,2.1-.628A3.562,3.562,0,0,1,1.542-8.464a5.289,5.289,0,0,1,1.028,3.5v.677H-3.872A3.38,3.38,0,0,0-3.05-2.017a2.583,2.583,0,0,0,2,.866A2.832,2.832,0,0,0,.409-1.5a3.666,3.666,0,0,0,1.046-.932l.993.773A3.993,3.993,0,0,1-1.138.176Zm-.2-8.525a2.169,2.169,0,0,0-1.652.716,3.482,3.482,0,0,0-.826,2.008H.945v-.123a3.1,3.1,0,0,0-.668-1.92A2.042,2.042,0,0,0-1.34-8.35ZM4.065-4.834A5.589,5.589,0,0,1,5.093-8.372,3.289,3.289,0,0,1,7.818-9.686a3.271,3.271,0,0,1,2.716,1.23l.079-1.055H12.1V-.229A3.869,3.869,0,0,1,11,2.681a4.038,4.038,0,0,1-2.94,1.063A4.891,4.891,0,0,1,6.051,3.3a3.465,3.465,0,0,1-1.5-1.2l.844-.976A3.18,3.18,0,0,0,7.95,2.417,2.491,2.491,0,0,0,9.8,1.749a2.553,2.553,0,0,0,.664-1.881V-.949A3.342,3.342,0,0,1,7.8.176,3.248,3.248,0,0,1,5.1-1.169,5.876,5.876,0,0,1,4.065-4.834ZM5.7-4.649a4.264,4.264,0,0,0,.659,2.527A2.142,2.142,0,0,0,8.2-1.2a2.382,2.382,0,0,0,2.259-1.4V-6.943A2.41,2.41,0,0,0,8.222-8.306a2.161,2.161,0,0,0-1.854.923A4.644,4.644,0,0,0,5.7-4.649ZM20.421-.94A3.454,3.454,0,0,1,17.635.176a2.956,2.956,0,0,1-2.316-.883,3.823,3.823,0,0,1-.8-2.615V-9.51h1.626v6.144Q16.141-1.2,17.9-1.2a2.434,2.434,0,0,0,2.479-1.389V-9.51H22V0H20.457ZM19.1-13.5h1.969l-2.355,2.584h-1.31Zm6.908,3.99.053,1.2a3.465,3.465,0,0,1,2.848-1.371q3.015,0,3.041,3.4V0H30.327V-6.293a2.189,2.189,0,0,0-.47-1.521,1.884,1.884,0,0,0-1.437-.492,2.347,2.347,0,0,0-1.389.422A2.865,2.865,0,0,0,26.1-6.776V0H24.473V-9.51ZM42.675-1.151A2.342,2.342,0,0,0,44.2-1.679,1.855,1.855,0,0,0,44.917-3h1.538a2.949,2.949,0,0,1-.562,1.556A3.7,3.7,0,0,1,44.508-.264a3.994,3.994,0,0,1-1.833.439,3.918,3.918,0,0,1-3.089-1.3,5.163,5.163,0,0,1-1.147-3.546v-.272a5.725,5.725,0,0,1,.51-2.47,3.883,3.883,0,0,1,1.463-1.679,4.157,4.157,0,0,1,2.254-.6,3.814,3.814,0,0,1,2.659.958A3.424,3.424,0,0,1,46.455-6.24H44.917a2.241,2.241,0,0,0-.7-1.516,2.174,2.174,0,0,0-1.551-.593,2.276,2.276,0,0,0-1.92.892,4.19,4.19,0,0,0-.681,2.58v.308a4.106,4.106,0,0,0,.677,2.531A2.287,2.287,0,0,0,42.675-1.151ZM54.154-.94A3.454,3.454,0,0,1,51.368.176a2.956,2.956,0,0,1-2.316-.883,3.823,3.823,0,0,1-.8-2.615V-9.51h1.626v6.144q0,2.162,1.758,2.162A2.434,2.434,0,0,0,54.11-2.593V-9.51h1.626V0H54.189ZM64.077,0a3.416,3.416,0,0,1-.229-1A3.628,3.628,0,0,1,61.141.176a3.357,3.357,0,0,1-2.307-.8,2.573,2.573,0,0,1-.9-2.017,2.688,2.688,0,0,1,1.129-2.307,5.325,5.325,0,0,1,3.177-.822h1.582v-.747a1.826,1.826,0,0,0-.51-1.358,2.049,2.049,0,0,0-1.5-.505,2.371,2.371,0,0,0-1.459.439,1.3,1.3,0,0,0-.589,1.063H58.126a2.244,2.244,0,0,1,.505-1.375A3.449,3.449,0,0,1,60-9.3a4.613,4.613,0,0,1,1.9-.387,3.759,3.759,0,0,1,2.575.822A2.964,2.964,0,0,1,65.448-6.6v4.377a5.351,5.351,0,0,0,.334,2.083V0Zm-2.7-1.239a2.858,2.858,0,0,0,1.45-.4,2.392,2.392,0,0,0,.993-1.028V-4.614H62.547q-2.988,0-2.988,1.749a1.48,1.48,0,0,0,.51,1.2A1.959,1.959,0,0,0,61.378-1.239Zm1.5-12.261H64.85l-2.355,2.584h-1.31ZM69.763,0H68.137V-13.5h1.626Zm8.824,0H76.961V-13.5h1.626ZM87.06,0a3.416,3.416,0,0,1-.229-1A3.628,3.628,0,0,1,84.125.176a3.357,3.357,0,0,1-2.307-.8,2.573,2.573,0,0,1-.9-2.017,2.688,2.688,0,0,1,1.129-2.307,5.325,5.325,0,0,1,3.177-.822h1.582v-.747a1.826,1.826,0,0,0-.51-1.358,2.049,2.049,0,0,0-1.5-.505,2.371,2.371,0,0,0-1.459.439,1.3,1.3,0,0,0-.589,1.063H81.11a2.244,2.244,0,0,1,.505-1.375A3.449,3.449,0,0,1,82.986-9.3a4.613,4.613,0,0,1,1.9-.387,3.759,3.759,0,0,1,2.575.822A2.964,2.964,0,0,1,88.431-6.6v4.377a5.351,5.351,0,0,0,.334,2.083V0Zm-2.7-1.239a2.858,2.858,0,0,0,1.45-.4,2.392,2.392,0,0,0,.993-1.028V-4.614H85.531q-2.988,0-2.988,1.749a1.48,1.48,0,0,0,.51,1.2A1.959,1.959,0,0,0,84.362-1.239Zm6.223-3.595a5.571,5.571,0,0,1,1.037-3.52,3.28,3.28,0,0,1,2.716-1.332,3.3,3.3,0,0,1,2.646,1.143V-13.5h1.626V0H97.115l-.079-1.02A3.311,3.311,0,0,1,94.32.176a3.248,3.248,0,0,1-2.694-1.354,5.634,5.634,0,0,1-1.042-3.533Zm1.626.185a4.218,4.218,0,0,0,.668,2.531,2.159,2.159,0,0,0,1.846.914,2.372,2.372,0,0,0,2.259-1.389V-6.961a2.39,2.39,0,0,0-2.241-1.345,2.17,2.17,0,0,0-1.863.923A4.644,4.644,0,0,0,92.21-4.649Zm8.49-.193a5.617,5.617,0,0,1,.549-2.514,4.1,4.1,0,0,1,1.529-1.723,4.163,4.163,0,0,1,2.237-.606,4.01,4.01,0,0,1,3.142,1.345,5.174,5.174,0,0,1,1.2,3.577v.114a5.666,5.666,0,0,1-.532,2.492,4.038,4.038,0,0,1-1.521,1.718,4.211,4.211,0,0,1-2.272.615A4,4,0,0,1,101.9-1.169a5.147,5.147,0,0,1-1.2-3.56Zm1.635.193a4.068,4.068,0,0,0,.734,2.54,2.349,2.349,0,0,0,1.964.958A2.335,2.335,0,0,0,107-2.123a4.449,4.449,0,0,0,.729-2.72,4.061,4.061,0,0,0-.743-2.536,2.361,2.361,0,0,0-1.973-.971,2.335,2.335,0,0,0-1.942.958A4.416,4.416,0,0,0,102.335-4.649ZM121.39-2.522a1.2,1.2,0,0,0-.5-1.024,4.78,4.78,0,0,0-1.731-.628,8.186,8.186,0,0,1-1.96-.633,2.788,2.788,0,0,1-1.072-.879,2.1,2.1,0,0,1-.347-1.213,2.467,2.467,0,0,1,.989-1.978,3.861,3.861,0,0,1,2.527-.809,3.974,3.974,0,0,1,2.624.835,2.652,2.652,0,0,1,1.006,2.136h-1.635a1.468,1.468,0,0,0-.567-1.151A2.124,2.124,0,0,0,119.3-8.35a2.223,2.223,0,0,0-1.389.387,1.217,1.217,0,0,0-.5,1.011.986.986,0,0,0,.466.888,5.731,5.731,0,0,0,1.683.571,8.77,8.77,0,0,1,1.973.65,2.878,2.878,0,0,1,1.121.91,2.237,2.237,0,0,1,.365,1.3A2.434,2.434,0,0,1,122-.593a4.277,4.277,0,0,1-2.646.769,4.789,4.789,0,0,1-2.021-.4,3.288,3.288,0,0,1-1.375-1.129,2.722,2.722,0,0,1-.5-1.569h1.626a1.683,1.683,0,0,0,.655,1.3,2.54,2.54,0,0,0,1.613.479,2.622,2.622,0,0,0,1.481-.374A1.148,1.148,0,0,0,121.39-2.522Zm7.69,2.7a4.155,4.155,0,0,1-3.146-1.27,4.714,4.714,0,0,1-1.213-3.4v-.3a5.707,5.707,0,0,1,.541-2.527,4.217,4.217,0,0,1,1.512-1.74,3.8,3.8,0,0,1,2.1-.628,3.562,3.562,0,0,1,2.883,1.222,5.289,5.289,0,0,1,1.028,3.5v.677h-6.442a3.38,3.38,0,0,0,.822,2.272,2.583,2.583,0,0,0,2,.866,2.832,2.832,0,0,0,1.459-.352,3.666,3.666,0,0,0,1.046-.932l.993.773A3.993,3.993,0,0,1,129.081.176Zm-.2-8.525a2.169,2.169,0,0,0-1.652.716,3.482,3.482,0,0,0-.826,2.008h4.764v-.123a3.1,3.1,0,0,0-.668-1.92A2.042,2.042,0,0,0,128.878-8.35ZM140.542,0a3.416,3.416,0,0,1-.229-1A3.628,3.628,0,0,1,137.606.176a3.357,3.357,0,0,1-2.307-.8,2.573,2.573,0,0,1-.9-2.017,2.688,2.688,0,0,1,1.129-2.307,5.325,5.325,0,0,1,3.177-.822h1.582v-.747a1.826,1.826,0,0,0-.51-1.358,2.049,2.049,0,0,0-1.5-.505,2.371,2.371,0,0,0-1.459.439,1.3,1.3,0,0,0-.589,1.063h-1.635a2.244,2.244,0,0,1,.505-1.375,3.449,3.449,0,0,1,1.371-1.05,4.613,4.613,0,0,1,1.9-.387,3.759,3.759,0,0,1,2.575.822,2.964,2.964,0,0,1,.967,2.263v4.377a5.351,5.351,0,0,0,.334,2.083V0Zm-2.7-1.239a2.858,2.858,0,0,0,1.45-.4,2.392,2.392,0,0,0,.993-1.028V-4.614h-1.274q-2.988,0-2.988,1.749a1.48,1.48,0,0,0,.51,1.2A1.959,1.959,0,0,0,137.843-1.239Zm12.6-8.271.044,1.055a3.512,3.512,0,0,1,2.821-1.23,2.719,2.719,0,0,1,2.716,1.529,3.6,3.6,0,0,1,1.235-1.107,3.647,3.647,0,0,1,1.8-.422q3.129,0,3.182,3.313V0h-1.626V-6.275A2.184,2.184,0,0,0,160.15-7.8a2.051,2.051,0,0,0-1.564-.505,2.156,2.156,0,0,0-1.5.541,2.193,2.193,0,0,0-.694,1.455V0h-1.635V-6.231a1.814,1.814,0,0,0-2.03-2.074,2.175,2.175,0,0,0-2.188,1.362V0h-1.626V-9.51ZM170.565,0a3.416,3.416,0,0,1-.229-1A3.628,3.628,0,0,1,167.629.176a3.357,3.357,0,0,1-2.307-.8,2.573,2.573,0,0,1-.9-2.017,2.688,2.688,0,0,1,1.129-2.307,5.325,5.325,0,0,1,3.177-.822h1.582v-.747a1.826,1.826,0,0,0-.51-1.358,2.049,2.049,0,0,0-1.5-.505,2.371,2.371,0,0,0-1.459.439,1.3,1.3,0,0,0-.589,1.063h-1.635a2.244,2.244,0,0,1,.505-1.375,3.449,3.449,0,0,1,1.371-1.05,4.613,4.613,0,0,1,1.9-.387,3.759,3.759,0,0,1,2.575.822,2.964,2.964,0,0,1,.967,2.263v4.377a5.351,5.351,0,0,0,.334,2.083V0Zm-2.7-1.239a2.858,2.858,0,0,0,1.45-.4,2.392,2.392,0,0,0,.993-1.028V-4.614h-1.274q-2.988,0-2.988,1.749a1.48,1.48,0,0,0,.51,1.2A1.959,1.959,0,0,0,167.867-1.239Zm9.6-1.143,2.215-7.128h1.74L177.6,1.468q-.888,2.373-2.821,2.373l-.308-.026-.606-.114V2.382l.439.035a2.164,2.164,0,0,0,1.288-.334,2.417,2.417,0,0,0,.76-1.222l.36-.967-3.393-9.4h1.775Zm4.843-2.461a5.617,5.617,0,0,1,.549-2.514,4.1,4.1,0,0,1,1.529-1.723,4.163,4.163,0,0,1,2.237-.606,4.01,4.01,0,0,1,3.142,1.345,5.174,5.174,0,0,1,1.2,3.577v.114a5.666,5.666,0,0,1-.532,2.492,4.038,4.038,0,0,1-1.521,1.718,4.211,4.211,0,0,1-2.272.615,4,4,0,0,1-3.133-1.345,5.147,5.147,0,0,1-1.2-3.56Zm1.635.193a4.068,4.068,0,0,0,.734,2.54,2.349,2.349,0,0,0,1.964.958,2.335,2.335,0,0,0,1.969-.971,4.449,4.449,0,0,0,.729-2.72,4.061,4.061,0,0,0-.743-2.536,2.361,2.361,0,0,0-1.973-.971,2.335,2.335,0,0,0-1.942.958A4.416,4.416,0,0,0,183.942-4.649Zm13.658-3.4a4.873,4.873,0,0,0-.8-.062,2.143,2.143,0,0,0-2.171,1.362V0H193V-9.51h1.582l.026,1.1a2.532,2.532,0,0,1,2.268-1.274,1.661,1.661,0,0,1,.721.123Zm5.247,2.944a13.6,13.6,0,0,1-.514,3.757,11.11,11.11,0,0,1-1.573,3.318,6.893,6.893,0,0,1-2.219,2.162l-.343-.993a7.066,7.066,0,0,0,2.175-3.221,13.935,13.935,0,0,0,.839-4.847v-.281a14.469,14.469,0,0,0-.387-3.432,11.583,11.583,0,0,0-1.077-2.843,6.567,6.567,0,0,0-1.551-1.96l.343-.993a6.866,6.866,0,0,1,2.21,2.145,11.134,11.134,0,0,1,1.573,3.313A13.909,13.909,0,0,1,202.847-5.106Z" transform="translate(820.666 2171.89)" fill="#12263f"/>
    <path id="Path_1278056" data-name="Path 1278056" d="M-48.973,0h-1.7V-5.915H-57.12V0h-1.687V-12.8h1.688v5.5h6.451v-5.5h1.7Zm8.613,0a3.416,3.416,0,0,1-.229-1A3.628,3.628,0,0,1-43.295.176,3.357,3.357,0,0,1-45.6-.62a2.573,2.573,0,0,1-.9-2.017,2.688,2.688,0,0,1,1.129-2.307A5.325,5.325,0,0,1-42.2-5.766h1.582v-.747a1.826,1.826,0,0,0-.51-1.358,2.049,2.049,0,0,0-1.5-.505,2.371,2.371,0,0,0-1.459.439,1.3,1.3,0,0,0-.589,1.063H-46.31A2.244,2.244,0,0,1-45.8-8.249,3.449,3.449,0,0,1-44.433-9.3a4.613,4.613,0,0,1,1.9-.387,3.759,3.759,0,0,1,2.575.822A2.964,2.964,0,0,1-38.988-6.6v4.377a5.351,5.351,0,0,0,.334,2.083V0Zm-2.7-1.239a2.858,2.858,0,0,0,1.45-.4,2.392,2.392,0,0,0,.993-1.028V-4.614h-1.274q-2.988,0-2.988,1.749a1.48,1.48,0,0,0,.51,1.2A1.959,1.959,0,0,0-43.058-1.239Zm14.669-3.41a5.654,5.654,0,0,1-1,3.5A3.2,3.2,0,0,1-32.08.176,3.315,3.315,0,0,1-34.866-1.1L-34.945,0h-1.494V-13.5h1.626v5.036A3.3,3.3,0,0,1-32.1-9.686a3.221,3.221,0,0,1,2.72,1.31,5.824,5.824,0,0,1,.989,3.586Zm-1.626-.185A4.394,4.394,0,0,0-30.656-7.4,2.124,2.124,0,0,0-32.5-8.306a2.387,2.387,0,0,0-2.312,1.494V-2.7A2.454,2.454,0,0,0-32.484-1.2a2.112,2.112,0,0,0,1.819-.905A4.672,4.672,0,0,0-30.015-4.834Zm7.62,5.01a4.155,4.155,0,0,1-3.146-1.27,4.714,4.714,0,0,1-1.213-3.4v-.3a5.707,5.707,0,0,1,.541-2.527A4.217,4.217,0,0,1-24.7-9.057a3.8,3.8,0,0,1,2.1-.628,3.562,3.562,0,0,1,2.883,1.222,5.289,5.289,0,0,1,1.028,3.5v.677h-6.442a3.38,3.38,0,0,0,.822,2.272,2.583,2.583,0,0,0,2,.866A2.832,2.832,0,0,0-20.848-1.5,3.666,3.666,0,0,0-19.8-2.435l.993.773A3.993,3.993,0,0,1-22.395.176Zm-.2-8.525a2.169,2.169,0,0,0-1.652.716,3.482,3.482,0,0,0-.826,2.008h4.764v-.123a3.1,3.1,0,0,0-.668-1.92A2.042,2.042,0,0,0-22.6-8.35Zm10.389.3a4.873,4.873,0,0,0-.8-.062A2.143,2.143,0,0,0-15.179-6.75V0H-16.8V-9.51h1.582l.026,1.1a2.532,2.532,0,0,1,2.268-1.274,1.661,1.661,0,0,1,.721.123Zm5.889,2.856a13.589,13.589,0,0,1,.532-3.814A11.081,11.081,0,0,1-4.2-12.331,6.749,6.749,0,0,1-2.013-14.44l.334,1.072a7,7,0,0,0-2.1,3.006,13.031,13.031,0,0,0-.9,4.526l-.009.747A13.1,13.1,0,0,0-3.454.8,7.033,7.033,0,0,0-1.679,3.138l-.334.993a6.966,6.966,0,0,1-2.232-2.18A12.217,12.217,0,0,1-6.319-5.194ZM3.709-1.151a2.342,2.342,0,0,0,1.521-.527A1.855,1.855,0,0,0,5.95-3H7.488a2.949,2.949,0,0,1-.562,1.556A3.7,3.7,0,0,1,5.542-.264,3.994,3.994,0,0,1,3.709.176,3.918,3.918,0,0,1,.62-1.121,5.163,5.163,0,0,1-.527-4.667v-.272a5.725,5.725,0,0,1,.51-2.47A3.883,3.883,0,0,1,1.446-9.088a4.157,4.157,0,0,1,2.254-.6,3.814,3.814,0,0,1,2.659.958A3.424,3.424,0,0,1,7.488-6.24H5.95a2.241,2.241,0,0,0-.7-1.516A2.174,2.174,0,0,0,3.7-8.35a2.276,2.276,0,0,0-1.92.892A4.19,4.19,0,0,0,1.1-4.878v.308a4.106,4.106,0,0,0,.677,2.531A2.287,2.287,0,0,0,3.709-1.151Zm10.2-6.9a4.873,4.873,0,0,0-.8-.062A2.143,2.143,0,0,0,10.942-6.75V0H9.316V-9.51H10.9l.026,1.1a2.532,2.532,0,0,1,2.268-1.274,1.661,1.661,0,0,1,.721.123ZM19.187.176a4.155,4.155,0,0,1-3.146-1.27,4.714,4.714,0,0,1-1.213-3.4v-.3a5.707,5.707,0,0,1,.541-2.527,4.217,4.217,0,0,1,1.512-1.74,3.8,3.8,0,0,1,2.1-.628,3.562,3.562,0,0,1,2.883,1.222,5.289,5.289,0,0,1,1.028,3.5v.677H16.453a3.38,3.38,0,0,0,.822,2.272,2.583,2.583,0,0,0,2,.866A2.832,2.832,0,0,0,20.733-1.5a3.666,3.666,0,0,0,1.046-.932l.993.773A3.993,3.993,0,0,1,19.187.176Zm-.2-8.525a2.169,2.169,0,0,0-1.652.716,3.482,3.482,0,0,0-.826,2.008H21.27v-.123a3.1,3.1,0,0,0-.668-1.92A2.042,2.042,0,0,0,18.984-8.35Zm.791-5.15h1.969l-2.355,2.584h-1.31Zm4.605,8.666a5.571,5.571,0,0,1,1.037-3.52,3.28,3.28,0,0,1,2.716-1.332,3.3,3.3,0,0,1,2.646,1.143V-13.5h1.626V0H30.911l-.079-1.02a3.311,3.311,0,0,1-2.716,1.2,3.248,3.248,0,0,1-2.694-1.354,5.634,5.634,0,0,1-1.042-3.533Zm1.626.185a4.218,4.218,0,0,0,.668,2.531,2.159,2.159,0,0,0,1.846.914,2.372,2.372,0,0,0,2.259-1.389V-6.961a2.39,2.39,0,0,0-2.241-1.345,2.17,2.17,0,0,0-1.863.923A4.644,4.644,0,0,0,26.007-4.649ZM36.694,0H35.068V-9.51h1.626ZM34.937-12.032a.971.971,0,0,1,.242-.668.907.907,0,0,1,.716-.272.922.922,0,0,1,.721.272.96.96,0,0,1,.246.668.929.929,0,0,1-.246.659.938.938,0,0,1-.721.264.924.924,0,0,1-.716-.264A.938.938,0,0,1,34.937-12.032Zm6.565.22v2.3h1.775v1.257H41.5v5.9a1.317,1.317,0,0,0,.237.857,1,1,0,0,0,.809.286,3.937,3.937,0,0,0,.773-.105V0a4.714,4.714,0,0,1-1.248.176A2.025,2.025,0,0,1,40.43-.483a2.832,2.832,0,0,1-.554-1.872v-5.9H38.145V-9.51h1.731v-2.3Zm3.067,6.97a5.617,5.617,0,0,1,.549-2.514,4.1,4.1,0,0,1,1.529-1.723,4.163,4.163,0,0,1,2.237-.606,4.01,4.01,0,0,1,3.142,1.345,5.174,5.174,0,0,1,1.2,3.577v.114a5.666,5.666,0,0,1-.532,2.492A4.038,4.038,0,0,1,51.174-.439,4.211,4.211,0,0,1,48.9.176a4,4,0,0,1-3.133-1.345,5.147,5.147,0,0,1-1.2-3.56Zm1.635.193a4.068,4.068,0,0,0,.734,2.54,2.349,2.349,0,0,0,1.964.958,2.335,2.335,0,0,0,1.969-.971,4.449,4.449,0,0,0,.729-2.72,4.061,4.061,0,0,0-.743-2.536,2.361,2.361,0,0,0-1.973-.971,2.335,2.335,0,0,0-1.942.958A4.416,4.416,0,0,0,46.2-4.649Zm12.814-.457A13.6,13.6,0,0,1,58.5-1.349a11.11,11.11,0,0,1-1.573,3.318,6.893,6.893,0,0,1-2.219,2.162l-.343-.993A7.066,7.066,0,0,0,56.544-.083a13.935,13.935,0,0,0,.839-4.847v-.281A14.469,14.469,0,0,0,57-8.644a11.583,11.583,0,0,0-1.077-2.843,6.567,6.567,0,0,0-1.551-1.96l.343-.993a6.866,6.866,0,0,1,2.21,2.145A11.134,11.134,0,0,1,58.5-8.982,13.909,13.909,0,0,1,59.019-5.106Z" transform="translate(1057.484 1956.837)" fill="#12263f"/>
    <path id="Path_1278057" data-name="Path 1278057" d="M-88.994-12.8-84.81-2.355-80.626-12.8h2.188V0h-1.687V-4.983l.158-5.379L-84.168,0H-85.46l-4.192-10.336.167,5.353V0h-1.687V-12.8Zm12.85,7.954a5.617,5.617,0,0,1,.549-2.514,4.1,4.1,0,0,1,1.529-1.723,4.163,4.163,0,0,1,2.237-.606,4.01,4.01,0,0,1,3.142,1.345,5.174,5.174,0,0,1,1.2,3.577v.114a5.666,5.666,0,0,1-.532,2.492A4.038,4.038,0,0,1-69.539-.439a4.211,4.211,0,0,1-2.272.615,4,4,0,0,1-3.133-1.345,5.147,5.147,0,0,1-1.2-3.56Zm1.635.193a4.068,4.068,0,0,0,.734,2.54,2.349,2.349,0,0,0,1.964.958,2.335,2.335,0,0,0,1.969-.971,4.449,4.449,0,0,0,.729-2.72,4.061,4.061,0,0,0-.743-2.536,2.361,2.361,0,0,0-1.973-.971,2.335,2.335,0,0,0-1.942.958A4.416,4.416,0,0,0-74.509-4.649Zm12.067,2.443,2.355-7.3h1.661L-61.835,0h-1.239L-66.52-9.51h1.661ZM-55.094,0H-56.72V-9.51h1.626Zm-1.758-12.032a.971.971,0,0,1,.242-.668.907.907,0,0,1,.716-.272.922.922,0,0,1,.721.272.96.96,0,0,1,.246.668.929.929,0,0,1-.246.659.938.938,0,0,1-.721.264.924.924,0,0,1-.716-.264A.938.938,0,0,1-56.852-12.032Zm5.889,2.522.044,1.055A3.512,3.512,0,0,1-48.1-9.686a2.719,2.719,0,0,1,2.716,1.529,3.6,3.6,0,0,1,1.235-1.107,3.647,3.647,0,0,1,1.8-.422q3.129,0,3.182,3.313V0h-1.626V-6.275A2.184,2.184,0,0,0-41.26-7.8a2.051,2.051,0,0,0-1.564-.505,2.156,2.156,0,0,0-1.5.541,2.193,2.193,0,0,0-.694,1.455V0h-1.635V-6.231a1.814,1.814,0,0,0-2.03-2.074,2.175,2.175,0,0,0-2.188,1.362V0H-52.5V-9.51ZM-34.95,0h-1.626V-9.51h1.626Zm-1.758-12.032a.971.971,0,0,1,.242-.668.907.907,0,0,1,.716-.272.922.922,0,0,1,.721.272.96.96,0,0,1,.246.668.929.929,0,0,1-.246.659.938.938,0,0,1-.721.264.924.924,0,0,1-.716-.264A.938.938,0,0,1-36.708-12.032ZM-28.4.176a4.155,4.155,0,0,1-3.146-1.27,4.714,4.714,0,0,1-1.213-3.4v-.3a5.707,5.707,0,0,1,.541-2.527,4.217,4.217,0,0,1,1.512-1.74,3.8,3.8,0,0,1,2.1-.628,3.562,3.562,0,0,1,2.883,1.222,5.289,5.289,0,0,1,1.028,3.5v.677h-6.442a3.38,3.38,0,0,0,.822,2.272,2.583,2.583,0,0,0,2,.866A2.832,2.832,0,0,0-26.855-1.5a3.666,3.666,0,0,0,1.046-.932l.993.773A3.993,3.993,0,0,1-28.4.176Zm-.2-8.525a2.169,2.169,0,0,0-1.652.716,3.482,3.482,0,0,0-.826,2.008h4.764v-.123a3.1,3.1,0,0,0-.668-1.92A2.042,2.042,0,0,0-28.6-8.35Zm7.33-1.16.053,1.2a3.465,3.465,0,0,1,2.848-1.371q3.015,0,3.041,3.4V0h-1.626V-6.293a2.189,2.189,0,0,0-.47-1.521,1.884,1.884,0,0,0-1.437-.492,2.347,2.347,0,0,0-1.389.422,2.865,2.865,0,0,0-.932,1.107V0h-1.626V-9.51Zm10.6-2.3v2.3H-8.9v1.257h-1.775v5.9a1.317,1.317,0,0,0,.237.857,1,1,0,0,0,.809.286,3.937,3.937,0,0,0,.773-.105V0A4.714,4.714,0,0,1-10.1.176a2.025,2.025,0,0,1-1.644-.659A2.832,2.832,0,0,1-12.3-2.355v-5.9h-1.731V-9.51H-12.3v-2.3Zm3.067,6.97a5.617,5.617,0,0,1,.549-2.514A4.1,4.1,0,0,1-5.528-9.079a4.163,4.163,0,0,1,2.237-.606A4.01,4.01,0,0,1-.149-8.341a5.174,5.174,0,0,1,1.2,3.577v.114A5.666,5.666,0,0,1,.519-2.158,4.038,4.038,0,0,1-1-.439,4.211,4.211,0,0,1-3.274.176,4,4,0,0,1-6.407-1.169a5.147,5.147,0,0,1-1.2-3.56Zm1.635.193a4.068,4.068,0,0,0,.734,2.54,2.349,2.349,0,0,0,1.964.958,2.335,2.335,0,0,0,1.969-.971,4.449,4.449,0,0,0,.729-2.72,4.061,4.061,0,0,0-.743-2.536A2.361,2.361,0,0,0-3.292-8.35a2.335,2.335,0,0,0-1.942.958A4.416,4.416,0,0,0-5.972-4.649Zm14.6,2.127a1.2,1.2,0,0,0-.5-1.024A4.78,4.78,0,0,0,6.4-4.175a8.186,8.186,0,0,1-1.96-.633,2.788,2.788,0,0,1-1.072-.879A2.1,2.1,0,0,1,3.019-6.9a2.467,2.467,0,0,1,.989-1.978,3.861,3.861,0,0,1,2.527-.809,3.974,3.974,0,0,1,2.624.835,2.652,2.652,0,0,1,1.006,2.136H8.53a1.468,1.468,0,0,0-.567-1.151A2.124,2.124,0,0,0,6.535-8.35a2.223,2.223,0,0,0-1.389.387,1.217,1.217,0,0,0-.5,1.011.986.986,0,0,0,.466.888,5.731,5.731,0,0,0,1.683.571,8.77,8.77,0,0,1,1.973.65,2.878,2.878,0,0,1,1.121.91,2.237,2.237,0,0,1,.365,1.3A2.434,2.434,0,0,1,9.233-.593,4.277,4.277,0,0,1,6.587.176a4.789,4.789,0,0,1-2.021-.4A3.288,3.288,0,0,1,3.19-1.358a2.722,2.722,0,0,1-.5-1.569H4.32a1.683,1.683,0,0,0,.655,1.3,2.54,2.54,0,0,0,1.613.479,2.622,2.622,0,0,0,1.481-.374A1.148,1.148,0,0,0,8.626-2.522Zm8.139-2.672A13.589,13.589,0,0,1,17.3-9.009a11.081,11.081,0,0,1,1.586-3.322,6.749,6.749,0,0,1,2.188-2.109l.334,1.072a7,7,0,0,0-2.1,3.006,13.031,13.031,0,0,0-.9,4.526l-.009.747A13.1,13.1,0,0,0,19.63.8a7.033,7.033,0,0,0,1.775,2.338l-.334.993a6.966,6.966,0,0,1-2.232-2.18A12.217,12.217,0,0,1,16.765-5.194ZM26.793-1.151a2.342,2.342,0,0,0,1.521-.527A1.855,1.855,0,0,0,29.035-3h1.538a2.949,2.949,0,0,1-.562,1.556A3.7,3.7,0,0,1,28.626-.264a3.994,3.994,0,0,1-1.833.439,3.918,3.918,0,0,1-3.089-1.3,5.163,5.163,0,0,1-1.147-3.546v-.272a5.725,5.725,0,0,1,.51-2.47A3.883,3.883,0,0,1,24.53-9.088a4.157,4.157,0,0,1,2.254-.6,3.814,3.814,0,0,1,2.659.958A3.424,3.424,0,0,1,30.573-6.24H29.035a2.241,2.241,0,0,0-.7-1.516,2.174,2.174,0,0,0-1.551-.593,2.276,2.276,0,0,0-1.92.892,4.19,4.19,0,0,0-.681,2.58v.308a4.106,4.106,0,0,0,.677,2.531A2.287,2.287,0,0,0,26.793-1.151ZM37-8.051a4.873,4.873,0,0,0-.8-.062A2.143,2.143,0,0,0,34.027-6.75V0H32.4V-9.51h1.582l.026,1.1a2.532,2.532,0,0,1,2.268-1.274A1.661,1.661,0,0,1,37-9.562ZM42.271.176a4.155,4.155,0,0,1-3.146-1.27,4.714,4.714,0,0,1-1.213-3.4v-.3a5.707,5.707,0,0,1,.541-2.527,4.217,4.217,0,0,1,1.512-1.74,3.8,3.8,0,0,1,2.1-.628,3.562,3.562,0,0,1,2.883,1.222,5.289,5.289,0,0,1,1.028,3.5v.677H39.538a3.38,3.38,0,0,0,.822,2.272,2.583,2.583,0,0,0,2,.866A2.832,2.832,0,0,0,43.818-1.5a3.666,3.666,0,0,0,1.046-.932l.993.773A3.993,3.993,0,0,1,42.271.176Zm-.2-8.525a2.169,2.169,0,0,0-1.652.716,3.482,3.482,0,0,0-.826,2.008h4.764v-.123a3.1,3.1,0,0,0-.668-1.92A2.042,2.042,0,0,0,42.069-8.35Zm.791-5.15h1.969l-2.355,2.584h-1.31Zm4.605,8.666A5.571,5.571,0,0,1,48.5-8.354a3.28,3.28,0,0,1,2.716-1.332,3.3,3.3,0,0,1,2.646,1.143V-13.5H55.49V0H54l-.079-1.02A3.311,3.311,0,0,1,51.2.176a3.248,3.248,0,0,1-2.694-1.354,5.634,5.634,0,0,1-1.042-3.533Zm1.626.185a4.218,4.218,0,0,0,.668,2.531A2.159,2.159,0,0,0,51.6-1.2a2.372,2.372,0,0,0,2.259-1.389V-6.961a2.39,2.39,0,0,0-2.241-1.345,2.17,2.17,0,0,0-1.863.923A4.644,4.644,0,0,0,49.091-4.649ZM59.779,0H58.153V-9.51h1.626ZM58.021-12.032a.971.971,0,0,1,.242-.668.907.907,0,0,1,.716-.272.922.922,0,0,1,.721.272.96.96,0,0,1,.246.668.929.929,0,0,1-.246.659.938.938,0,0,1-.721.264.924.924,0,0,1-.716-.264A.938.938,0,0,1,58.021-12.032Zm6.565.22v2.3h1.775v1.257H64.586v5.9a1.317,1.317,0,0,0,.237.857,1,1,0,0,0,.809.286,3.937,3.937,0,0,0,.773-.105V0a4.714,4.714,0,0,1-1.248.176,2.025,2.025,0,0,1-1.644-.659,2.832,2.832,0,0,1-.554-1.872v-5.9H61.229V-9.51H62.96v-2.3Zm3.067,6.97A5.617,5.617,0,0,1,68.2-7.356a4.1,4.1,0,0,1,1.529-1.723,4.163,4.163,0,0,1,2.237-.606,4.01,4.01,0,0,1,3.142,1.345,5.174,5.174,0,0,1,1.2,3.577v.114a5.666,5.666,0,0,1-.532,2.492A4.038,4.038,0,0,1,74.259-.439a4.211,4.211,0,0,1-2.272.615,4,4,0,0,1-3.133-1.345,5.147,5.147,0,0,1-1.2-3.56Zm1.635.193a4.068,4.068,0,0,0,.734,2.54,2.349,2.349,0,0,0,1.964.958,2.335,2.335,0,0,0,1.969-.971,4.449,4.449,0,0,0,.729-2.72,4.061,4.061,0,0,0-.743-2.536,2.361,2.361,0,0,0-1.973-.971,2.335,2.335,0,0,0-1.942.958A4.416,4.416,0,0,0,69.289-4.649Zm14.6,2.127a1.2,1.2,0,0,0-.5-1.024,4.78,4.78,0,0,0-1.731-.628,8.186,8.186,0,0,1-1.96-.633,2.788,2.788,0,0,1-1.072-.879A2.1,2.1,0,0,1,78.28-6.9a2.467,2.467,0,0,1,.989-1.978A3.861,3.861,0,0,1,81.8-9.686a3.974,3.974,0,0,1,2.624.835,2.652,2.652,0,0,1,1.006,2.136H83.791a1.468,1.468,0,0,0-.567-1.151A2.124,2.124,0,0,0,81.8-8.35a2.223,2.223,0,0,0-1.389.387,1.217,1.217,0,0,0-.5,1.011.986.986,0,0,0,.466.888,5.731,5.731,0,0,0,1.683.571,8.77,8.77,0,0,1,1.973.65,2.878,2.878,0,0,1,1.121.91,2.237,2.237,0,0,1,.365,1.3,2.434,2.434,0,0,1-1.02,2.043,4.277,4.277,0,0,1-2.646.769,4.789,4.789,0,0,1-2.021-.4,3.288,3.288,0,0,1-1.375-1.129,2.722,2.722,0,0,1-.5-1.569h1.626a1.683,1.683,0,0,0,.655,1.3,2.54,2.54,0,0,0,1.613.479,2.622,2.622,0,0,0,1.481-.374A1.148,1.148,0,0,0,83.887-2.522Zm7.5-2.584a13.6,13.6,0,0,1-.514,3.757A11.11,11.11,0,0,1,89.3,1.969a6.893,6.893,0,0,1-2.219,2.162l-.343-.993A7.066,7.066,0,0,0,88.91-.083a13.935,13.935,0,0,0,.839-4.847v-.281a14.469,14.469,0,0,0-.387-3.432,11.583,11.583,0,0,0-1.077-2.843,6.567,6.567,0,0,0-1.551-1.96l.343-.993a6.866,6.866,0,0,1,2.21,2.145,11.134,11.134,0,0,1,1.573,3.313A13.909,13.909,0,0,1,91.384-5.106Z" transform="translate(1057.484 2044.028)" fill="#12263f"/>
    <g id="Mask_Group_1099418" data-name="Mask Group 1099418" clip-path="url(#clip-path-12)">
      <g id="Layer_2" data-name="Layer 2" transform="translate(549.207 1967.896)">
        <path id="Path_1277043" data-name="Path 1277043" d="M43.074,29.679V12.414a1.328,1.328,0,0,0-1.328-1.328H17.84a1.328,1.328,0,0,0-1.328,1.328V29.679a1.328,1.328,0,0,1-1.328,1.328H5.727a1.992,1.992,0,0,0-1.34,3.466L28.9,56.758a1.328,1.328,0,0,0,1.787,0L55.2,34.474a1.992,1.992,0,0,0-1.34-3.466H44.4a1.328,1.328,0,0,1-1.328-1.328Z" fill="#0db561"/>
        <g id="Group_1204593" data-name="Group 1204593">
          <path id="Path_1277044" data-name="Path 1277044" d="M42.207,6.828H17.379a1.862,1.862,0,0,1,0-3.724H42.207a1.862,1.862,0,0,1,0,3.724Z" fill="#232323"/>
          <path id="Path_1277045" data-name="Path 1277045" d="M29.793,56.051a3.093,3.093,0,0,1-2.088-.812L4.793,34.412A3.726,3.726,0,0,1,7.3,27.931h8.217V13.655a3.106,3.106,0,0,1,3.1-3.1H40.966a3.106,3.106,0,0,1,3.1,3.1v6.531a1.862,1.862,0,1,1-3.724,0v-5.91h-21.1V28.552a3.106,3.106,0,0,1-3.1,3.1H7.3L29.793,52.1,52.286,31.655H42.207a1.862,1.862,0,1,1,0-3.724H52.286a3.724,3.724,0,0,1,2.5,6.481L31.881,55.24a3.1,3.1,0,0,1-2.088.811Z" fill="#232323"/>
          <circle id="Ellipse_12853" data-name="Ellipse 12853" cx="1.862" cy="1.862" r="1.862" transform="translate(40.345 22.966)" fill="#232323"/>
        </g>
      </g>
    </g>
    <g id="Mask_Group_1099417" data-name="Mask Group 1099417" clip-path="url(#clip-path-13)">
      <g id="Layer_2-2" data-name="Layer 2" transform="translate(1030.207 1967.896)">
        <path id="Path_1277040" data-name="Path 1277040" d="M43.074,29.679V12.414a1.328,1.328,0,0,0-1.328-1.328H17.84a1.328,1.328,0,0,0-1.328,1.328V29.679a1.328,1.328,0,0,1-1.328,1.328H5.727a1.992,1.992,0,0,0-1.34,3.466L28.9,56.758a1.328,1.328,0,0,0,1.787,0L55.2,34.474a1.992,1.992,0,0,0-1.34-3.466H44.4a1.328,1.328,0,0,1-1.328-1.328Z" fill="#0db561"/>
        <g id="Group_1204592" data-name="Group 1204592">
          <path id="Path_1277041" data-name="Path 1277041" d="M42.207,6.828H17.379a1.862,1.862,0,0,1,0-3.724H42.207a1.862,1.862,0,0,1,0,3.724Z" fill="#232323"/>
          <path id="Path_1277042" data-name="Path 1277042" d="M29.793,56.051a3.093,3.093,0,0,1-2.088-.812L4.793,34.412A3.726,3.726,0,0,1,7.3,27.931h8.217V13.655a3.106,3.106,0,0,1,3.1-3.1H40.966a3.106,3.106,0,0,1,3.1,3.1v6.531a1.862,1.862,0,1,1-3.724,0v-5.91h-21.1V28.552a3.106,3.106,0,0,1-3.1,3.1H7.3L29.793,52.1,52.286,31.655H42.207a1.862,1.862,0,1,1,0-3.724H52.286a3.724,3.724,0,0,1,2.5,6.481L31.881,55.24a3.1,3.1,0,0,1-2.088.811Z" fill="#232323"/>
          <circle id="Ellipse_12852" data-name="Ellipse 12852" cx="1.862" cy="1.862" r="1.862" transform="translate(40.345 22.966)" fill="#232323"/>
        </g>
      </g>
    </g>
    <line id="Line_634" data-name="Line 634" y2="77" transform="translate(600 1766)" fill="none" stroke="#000" stroke-linecap="round" stroke-width="1"/>
  </g>
</svg>
