<svg xmlns="http://www.w3.org/2000/svg" xmlns:xlink="http://www.w3.org/1999/xlink" width="113.842" height="101.604" viewBox="0 0 113.842 101.604">
  <defs>
    <clipPath id="clip-path">
      <rect id="Rectangle_412061" data-name="Rectangle 412061" width="84" height="78" transform="translate(-271.768 -8782.629)" fill="#fff" stroke="#707070" stroke-width="1"/>
    </clipPath>
  </defs>
  <g id="Group_1204677" data-name="Group 1204677" transform="translate(286.799 8794.665)">
    <g id="Group_1204628" data-name="Group 1204628" transform="translate(-286.799 -8794.665)">
      <ellipse id="Ellipse_12787" data-name="Ellipse 12787" cx="28.658" cy="28.658" rx="28.658" ry="28.658" transform="translate(56.527 44.289)" fill="#59cae4"/>
      <ellipse id="Ellipse_12788" data-name="Ellipse 12788" cx="20.842" cy="20.842" rx="20.842" ry="20.842" fill="#59cae4"/>
    </g>
    <g id="Mask_Group_1099436" data-name="Mask Group 1099436" clip-path="url(#clip-path)">
      <g id="estimate_17994334" transform="translate(-270.028 -8783.889)">
        <g id="Group_1204652" data-name="Group 1204652">
          <path id="Path_1277305" data-name="Path 1277305" d="M55.058,2.516H21.116A1.521,1.521,0,0,0,19.6,4.032V64a1.521,1.521,0,0,0,1.516,1.516h45A1.521,1.521,0,0,0,67.63,64V15.088Z" fill="#e8ecf9" fill-rule="evenodd"/>
          <path id="Path_1277306" data-name="Path 1277306" d="M66.114,66.768h-45A2.776,2.776,0,0,1,18.343,64V4.032A2.776,2.776,0,0,1,21.116,1.26H55.058a1.256,1.256,0,0,1,.889.368L68.519,14.2a1.256,1.256,0,0,1,.368.889V64a2.776,2.776,0,0,1-2.773,2.773Zm-45-62.994a.261.261,0,0,0-.258.258V64a.261.261,0,0,0,.258.258h45A.261.261,0,0,0,66.372,64V15.608L54.538,3.774Z"/>
        </g>
        <g id="Group_1204653" data-name="Group 1204653">
          <path id="Path_1277307" data-name="Path 1277307" d="M67.628,15.088H55.058V2.516Z" fill="#c5cff1" fill-rule="evenodd"/>
          <path id="Path_1277308" data-name="Path 1277308" d="M67.628,16.346H55.058A1.256,1.256,0,0,1,53.8,15.09V2.516a1.258,1.258,0,0,1,2.147-.889L68.52,14.2a1.258,1.258,0,0,1-.892,2.147ZM56.315,13.831h8.278l-8.278-8.28Z"/>
        </g>
        <g id="Group_1204654" data-name="Group 1204654">
          <path id="Path_1277309" data-name="Path 1277309" d="M28.685,11.424H45.973V55.7H28.685Z" fill="#e8ecf9" fill-rule="evenodd"/>
          <path id="Path_1277310" data-name="Path 1277310" d="M45.973,56.952H28.685A1.256,1.256,0,0,1,27.428,55.7V11.424a1.256,1.256,0,0,1,1.257-1.257H45.973a1.256,1.256,0,0,1,1.257,1.257V55.7A1.257,1.257,0,0,1,45.973,56.952ZM29.942,54.439H44.715V12.68H29.942Z"/>
        </g>
        <g id="Group_1204655" data-name="Group 1204655">
          <path id="Path_1277311" data-name="Path 1277311" d="M47.524,45.371H69.105a1.558,1.558,0,0,1,1.551,1.551v29.53A1.555,1.555,0,0,1,69.105,78H47.524a1.555,1.555,0,0,1-1.551-1.551V46.921A1.558,1.558,0,0,1,47.524,45.371Z" fill="#7b839a" fill-rule="evenodd"/>
          <path id="Path_1277312" data-name="Path 1277312" d="M69.105,79.26H47.524a2.812,2.812,0,0,1-2.809-2.809V46.921a2.812,2.812,0,0,1,2.809-2.809H69.105a2.812,2.812,0,0,1,2.809,2.809v29.53a2.814,2.814,0,0,1-2.809,2.809ZM47.524,46.627a.3.3,0,0,0-.294.294v29.53a.3.3,0,0,0,.294.294H69.105a.3.3,0,0,0,.294-.294V46.921a.3.3,0,0,0-.294-.294Z"/>
        </g>
        <g id="Group_1204656" data-name="Group 1204656">
          <path id="Path_1277313" data-name="Path 1277313" d="M50.8,49.856H65.832v7.8H50.8Z" fill="#ece3ec" fill-rule="evenodd"/>
          <path id="Path_1277314" data-name="Path 1277314" d="M65.832,58.91H50.8a1.256,1.256,0,0,1-1.257-1.257v-7.8A1.256,1.256,0,0,1,50.8,48.6H65.832a1.256,1.256,0,0,1,1.257,1.257v7.8a1.257,1.257,0,0,1-1.257,1.257ZM52.053,56.4H64.574V51.113H52.053Z"/>
        </g>
        <g id="Group_1204657" data-name="Group 1204657">
          <path id="Path_1277315" data-name="Path 1277315" d="M52.454,63.536H50.8a1.257,1.257,0,1,1,0-2.513h1.658a1.257,1.257,0,0,1,0,2.513Z"/>
        </g>
        <g id="Group_1204658" data-name="Group 1204658">
          <path id="Path_1277316" data-name="Path 1277316" d="M52.454,68.284H50.8a1.257,1.257,0,1,1,0-2.513h1.658a1.257,1.257,0,1,1,0,2.513Z"/>
        </g>
        <g id="Group_1204659" data-name="Group 1204659">
          <path id="Path_1277317" data-name="Path 1277317" d="M52.454,73.032H50.8a1.257,1.257,0,1,1,0-2.513h1.658a1.257,1.257,0,1,1,0,2.513Z"/>
        </g>
        <g id="Group_1204660" data-name="Group 1204660">
          <path id="Path_1277318" data-name="Path 1277318" d="M65.832,63.536H64.175a1.257,1.257,0,0,1,0-2.513h1.658a1.257,1.257,0,1,1,0,2.513Z"/>
        </g>
        <g id="Group_1204661" data-name="Group 1204661">
          <path id="Path_1277319" data-name="Path 1277319" d="M65.832,68.284H64.175a1.257,1.257,0,1,1,0-2.513h1.658a1.257,1.257,0,1,1,0,2.513Z"/>
        </g>
        <g id="Group_1204662" data-name="Group 1204662">
          <path id="Path_1277320" data-name="Path 1277320" d="M65.832,73.032H64.175a1.257,1.257,0,1,1,0-2.513h1.658a1.257,1.257,0,1,1,0,2.513Z"/>
        </g>
        <g id="Group_1204663" data-name="Group 1204663">
          <path id="Path_1277321" data-name="Path 1277321" d="M59.146,63.536H57.483a1.257,1.257,0,1,1,0-2.513h1.662a1.257,1.257,0,1,1,0,2.513Z"/>
        </g>
        <g id="Group_1204664" data-name="Group 1204664">
          <path id="Path_1277322" data-name="Path 1277322" d="M59.146,68.284H57.483a1.257,1.257,0,1,1,0-2.513h1.662a1.257,1.257,0,1,1,0,2.513Z"/>
        </g>
        <g id="Group_1204665" data-name="Group 1204665">
          <path id="Path_1277323" data-name="Path 1277323" d="M59.146,73.032H57.483a1.257,1.257,0,1,1,0-2.513h1.662a1.257,1.257,0,1,1,0,2.513Z"/>
        </g>
        <g id="Group_1204666" data-name="Group 1204666">
          <path id="Path_1277324" data-name="Path 1277324" d="M19.6,46.4a9.734,9.734,0,1,0-9.736-9.732A9.75,9.75,0,0,0,19.6,46.4Z" fill="#45dea6" fill-rule="evenodd"/>
          <path id="Path_1277325" data-name="Path 1277325" d="M19.6,47.653a10.991,10.991,0,1,1,10.99-10.99A11,11,0,0,1,19.6,47.653Zm0-19.468a8.477,8.477,0,1,0,8.475,8.478A8.488,8.488,0,0,0,19.6,28.185Z"/>
        </g>
        <g id="Group_1204667" data-name="Group 1204667">
          <path id="Path_1277326" data-name="Path 1277326" d="M17.673,40.774c-.035,0-.069,0-.105,0a1.257,1.257,0,0,1-.906-.5l-2.073-2.8a1.257,1.257,0,1,1,2.022-1.494l1.222,1.651L22.726,32.9a1.257,1.257,0,0,1,1.744,1.81l-5.924,5.71a1.254,1.254,0,0,1-.873.352Z"/>
        </g>
        <g id="Group_1204668" data-name="Group 1204668">
          <path id="Path_1277327" data-name="Path 1277327" d="M34.284,17.348h6.089v6.089H34.284Z" fill="#e8ecf9" fill-rule="evenodd"/>
          <path id="Path_1277328" data-name="Path 1277328" d="M40.373,24.7H34.284a1.256,1.256,0,0,1-1.257-1.257V17.349a1.256,1.256,0,0,1,1.257-1.257h6.089a1.256,1.256,0,0,1,1.257,1.257v6.089A1.255,1.255,0,0,1,40.373,24.7Zm-4.831-2.515h3.575V18.606H35.542Z"/>
        </g>
        <g id="Group_1204669" data-name="Group 1204669">
          <path id="Path_1277329" data-name="Path 1277329" d="M34.284,30.512h6.089v6.094H34.284Z" fill="#e8ecf9" fill-rule="evenodd"/>
          <path id="Path_1277330" data-name="Path 1277330" d="M40.373,37.863H34.284a1.256,1.256,0,0,1-1.257-1.257V30.512a1.256,1.256,0,0,1,1.257-1.257h6.089a1.256,1.256,0,0,1,1.257,1.257v6.094A1.254,1.254,0,0,1,40.373,37.863ZM35.542,35.35h3.575V31.771H35.542Z"/>
        </g>
        <g id="Group_1204670" data-name="Group 1204670">
          <path id="Path_1277331" data-name="Path 1277331" d="M34.284,43.682h6.089v6.089H34.284Z" fill="#e8ecf9" fill-rule="evenodd"/>
          <path id="Path_1277332" data-name="Path 1277332" d="M40.373,51.028H34.284a1.256,1.256,0,0,1-1.257-1.257V43.682a1.256,1.256,0,0,1,1.257-1.257h6.089a1.256,1.256,0,0,1,1.257,1.257v6.089A1.255,1.255,0,0,1,40.373,51.028Zm-4.831-2.515h3.575V44.938H35.542Z"/>
        </g>
        <g id="Group_1204671" data-name="Group 1204671">
          <path id="Path_1277333" data-name="Path 1277333" d="M61.784,24.7H51.83a1.257,1.257,0,0,1,0-2.513h9.955a1.257,1.257,0,0,1,0,2.513Z"/>
        </g>
        <g id="Group_1204672" data-name="Group 1204672">
          <path id="Path_1277334" data-name="Path 1277334" d="M61.784,34.818H51.83a1.257,1.257,0,0,1,0-2.513h9.955a1.257,1.257,0,0,1,0,2.513Z"/>
        </g>
      </g>
    </g>
  </g>
</svg>
