<svg xmlns="http://www.w3.org/2000/svg" xmlns:xlink="http://www.w3.org/1999/xlink" width="113.842" height="101.604" viewBox="0 0 113.842 101.604">
  <defs>
    <clipPath id="clip-path">
      <rect id="Rectangle_412060" data-name="Rectangle 412060" width="84" height="78" transform="translate(-649.319 -8782.629)" fill="#fff" stroke="#707070" stroke-width="1"/>
    </clipPath>
  </defs>
  <g id="Group_1204650" data-name="Group 1204650" transform="translate(664.35 8794.665)">
    <g id="Group_1204627" data-name="Group 1204627" transform="translate(-664.35 -8794.665)">
      <ellipse id="Ellipse_12787" data-name="Ellipse 12787" cx="28.658" cy="28.658" rx="28.658" ry="28.658" transform="translate(56.527 44.289)" fill="#59cae4"/>
      <ellipse id="Ellipse_12788" data-name="Ellipse 12788" cx="20.842" cy="20.842" rx="20.842" ry="20.842" fill="#59cae4"/>
    </g>
    <g id="Mask_Group_1099435" data-name="Mask Group 1099435" clip-path="url(#clip-path)">
      <g id="_18-Mailing" data-name="18-Mailing" transform="translate(-646.319 -8782.629)">
        <path id="Path_1277254" data-name="Path 1277254" d="M30.469,1.219V8.531H23.156Z" fill="#afb4c8"/>
        <path id="Path_1277255" data-name="Path 1277255" d="M54.844,26.593l4.875-3.437v29.25L42.656,35.344l-.073-.1Z" fill="#f5cd62"/>
        <path id="Path_1277256" data-name="Path 1277256" d="M59.719,18.281v4.875l-4.875,3.437V13.406Z" fill="#fc9942"/>
        <path id="Path_1277257" data-name="Path 1277257" d="M59.719,52.406H18.281L35.344,35.344l.073-.1L39,37.781l3.583-2.535.073.1Z" fill="#fc9942"/>
        <path id="Path_1277258" data-name="Path 1277258" d="M54.844,12.188V25.374L42.583,34.028,39,36.563l-3.583-2.535L23.156,25.374V7.313h7.313V0H54.844ZM48.75,18.281a9.75,9.75,0,0,0-9.689-9.75H39a9.75,9.75,0,0,0-.061,19.5H39A9.75,9.75,0,0,0,48.75,18.281Z" fill="#e9edf5"/>
        <path id="Path_1277259" data-name="Path 1277259" d="M23.156,26.593l12.261,8.653-.073.1L18.281,52.406V23.156Z" fill="#f5cd62"/>
        <path id="Path_1277260" data-name="Path 1277260" d="M23.156,13.406V26.593l-4.875-3.437V18.281Z" fill="#fc9942"/>
        <circle id="Ellipse_12869" data-name="Ellipse 12869" cx="9.75" cy="9.75" r="9.75" transform="translate(29.25 9.75)" fill="#f5cd62"/>
        <circle id="Ellipse_12870" data-name="Ellipse 12870" cx="7.313" cy="7.313" r="7.313" transform="translate(31.688 12.188)" fill="#e9edf5"/>
        <path id="Path_1277261" data-name="Path 1277261" d="M44.744,11.634a25.332,25.332,0,0,1-.595,2.681,7.305,7.305,0,0,1-8.261,11.8,13.486,13.486,0,0,1-2.658,1.238A9.742,9.742,0,1,0,44.744,11.634Z" fill="#fc9942"/>
        <path id="Path_1277262" data-name="Path 1277262" d="M35.889,26.109a7.312,7.312,0,0,0,8.261-11.8,19.647,19.647,0,0,1-8.261,11.8Z" fill="#afb4c8"/>
        <path id="Path_1277263" data-name="Path 1277263" d="M54.844,52.406v9.75l-4.875,4.875H39V54.844l-3.254-2.437h19.1Z" fill="#ffdaaa"/>
        <path id="Path_1277264" data-name="Path 1277264" d="M23.156,67.031H54.844v9.75H23.156Z" fill="#62d2f5"/>
        <path id="Path_1277265" data-name="Path 1277265" d="M23.156,71.906H54.844v4.875H23.156Z" fill="#32c5f4"/>
        <path id="Path_1277266" data-name="Path 1277266" d="M39,63.375v3.656H26.813l-3.656-3.656V40.219l4.875-4.875,2.438-2.437a6.892,6.892,0,0,1,0,9.75L29.25,43.875v3.656L39,54.844Z" fill="#ffdaaa"/>
        <path id="Path_1277267" data-name="Path 1277267" d="M29.25,47.531V43.875l1.219-1.219a6.892,6.892,0,0,0,0-9.75L29.078,34.3a6.876,6.876,0,0,1-1.047,8.359l-1.219,1.219v3.656l9.75,7.313V67.031H39V54.844Z" fill="#ffb680"/>
        <path id="Path_1277268" data-name="Path 1277268" d="M64.594,18.281l9.75-9.75,2.438,2.438V1.219h-9.75l2.438,2.438-9.75,9.75Z" fill="#ffa1c8"/>
        <path id="Path_1277269" data-name="Path 1277269" d="M76.781,3.047V1.219h-9.75l1.828,1.828Z" fill="#ff73a5"/>
        <path id="Path_1277270" data-name="Path 1277270" d="M58.6,8.151H72.391v2.585H58.6Z" transform="translate(12.508 49.088) rotate(-45)" fill="#ff73a5"/>
        <path id="Path_1277271" data-name="Path 1277271" d="M13.406,18.281l-9.75-9.75L1.219,10.969V1.219h9.75L8.531,3.656l9.75,9.75Z" fill="#ffa1c8"/>
        <path id="Path_1277272" data-name="Path 1277272" d="M1.219,3.047V1.219h9.75L9.141,3.047Z" fill="#ff73a5"/>
        <path id="Path_1277273" data-name="Path 1277273" d="M11.2,2.55h2.585V16.337H11.2Z" transform="translate(-3.02 11.6) rotate(-45)" fill="#ff73a5"/>
        <path id="Path_1277274" data-name="Path 1277274" d="M13.406,59.719l-9.75,9.75L1.219,67.031v9.75h9.75L8.531,74.344l9.75-9.75Z" fill="#ffa1c8"/>
        <path id="Path_1277275" data-name="Path 1277275" d="M1.219,74.953v1.828h9.75L9.141,74.953Z" fill="#ff73a5"/>
        <path id="Path_1277276" data-name="Path 1277276" d="M5.6,67.251H19.384v2.585H5.6Z" transform="translate(-44.817 28.912) rotate(-45)" fill="#ff73a5"/>
        <path id="Path_1277277" data-name="Path 1277277" d="M64.594,59.719l9.75,9.75,2.438-2.437v9.75h-9.75l2.438-2.437-9.75-9.75Z" fill="#ffa1c8"/>
        <path id="Path_1277278" data-name="Path 1277278" d="M76.781,74.953v1.828h-9.75l1.828-1.828Z" fill="#ff73a5"/>
        <path id="Path_1277279" data-name="Path 1277279" d="M64.205,61.651H66.79V75.438H64.205Z" transform="translate(-29.289 66.4) rotate(-45)" fill="#ff73a5"/>
        <path id="Path_1277280" data-name="Path 1277280" d="M63.375,42.656h6.094v3.656L76.781,39l-7.312-7.312v3.656H63.375Z" fill="#ffa1c8"/>
        <path id="Path_1277281" data-name="Path 1277281" d="M63.375,40.219h6.094v2.438H63.375Z" fill="#ff73a5"/>
        <path id="Path_1277282" data-name="Path 1277282" d="M69.469,43.875v2.438L76.781,39l-1.219-1.219Z" fill="#ff73a5"/>
        <path id="Path_1277283" data-name="Path 1277283" d="M14.625,42.656H8.531v3.656L1.219,39l7.313-7.312v3.656h6.094Z" fill="#ffa1c8"/>
        <path id="Path_1277284" data-name="Path 1277284" d="M8.531,40.219h6.094v2.438H8.531Z" fill="#ff73a5"/>
        <path id="Path_1277285" data-name="Path 1277285" d="M8.531,43.875v2.438L1.219,39l1.219-1.219Z" fill="#ff73a5"/>
        <g id="Group_1204649" data-name="Group 1204649">
          <path id="Path_1277286" data-name="Path 1277286" d="M39,63.375V54.844l-9.75-7.312V43.875l1.219-1.219a6.894,6.894,0,0,0,0-9.75l-7.312,7.313V63.375l3.656,3.656" fill="none" stroke="#27213a" stroke-linejoin="round" stroke-width="2.438"/>
          <path id="Path_1277287" data-name="Path 1277287" d="M54.844,52.406v9.75l-4.875,4.875" fill="none" stroke="#27213a" stroke-linejoin="round" stroke-width="2.438"/>
          <path id="Path_1277288" data-name="Path 1277288" d="M23.156,67.031H54.844v9.75H23.156Z" fill="none" stroke="#27213a" stroke-linejoin="round" stroke-width="2.438"/>
          <path id="Path_1277289" data-name="Path 1277289" d="M23.156,52.406H18.281V23.156L39,37.781,59.719,23.156v29.25H35.344" fill="none" stroke="#27213a" stroke-linejoin="round" stroke-width="2.438"/>
          <path id="Path_1277290" data-name="Path 1277290" d="M59.719,52.406,42.656,35.344" fill="none" stroke="#27213a" stroke-linejoin="round" stroke-width="2.438"/>
          <path id="Path_1277291" data-name="Path 1277291" d="M23.156,26.813V8.531l7.313-7.312H54.844V26.813" fill="none" stroke="#27213a" stroke-linejoin="round" stroke-width="2.438"/>
          <path id="Path_1277292" data-name="Path 1277292" d="M18.281,23.156V18.281l4.875-4.875" fill="none" stroke="#27213a" stroke-linejoin="round" stroke-width="2.438"/>
          <path id="Path_1277293" data-name="Path 1277293" d="M59.719,23.156V18.281l-4.875-4.875" fill="none" stroke="#27213a" stroke-linejoin="round" stroke-width="2.438"/>
          <path id="Path_1277294" data-name="Path 1277294" d="M30.469,1.219V8.531H23.156Z" fill="none" stroke="#27213a" stroke-linejoin="round" stroke-width="2.438"/>
          <path id="Path_1277295" data-name="Path 1277295" d="M64.594,18.281l9.75-9.75,2.438,2.438V1.219h-9.75l2.438,2.438L63.375,9.75" fill="none" stroke="#27213a" stroke-linejoin="round" stroke-width="2.438"/>
          <path id="Path_1277296" data-name="Path 1277296" d="M13.406,18.281l-9.75-9.75L1.219,10.969V1.219h9.75L8.531,3.656,14.625,9.75" fill="none" stroke="#27213a" stroke-linejoin="round" stroke-width="2.438"/>
          <path id="Path_1277297" data-name="Path 1277297" d="M13.406,59.719l-9.75,9.75L1.219,67.031v9.75h9.75L8.531,74.344l6.094-6.094" fill="none" stroke="#27213a" stroke-linejoin="round" stroke-width="2.438"/>
          <path id="Path_1277298" data-name="Path 1277298" d="M64.594,59.719l9.75,9.75,2.438-2.437v9.75h-9.75l2.438-2.437L63.375,68.25" fill="none" stroke="#27213a" stroke-linejoin="round" stroke-width="2.438"/>
          <path id="Path_1277299" data-name="Path 1277299" d="M63.375,42.656h6.094v3.656L76.781,39l-7.312-7.312v3.656H63.375" fill="none" stroke="#27213a" stroke-linejoin="round" stroke-width="2.438"/>
          <path id="Path_1277300" data-name="Path 1277300" d="M14.625,35.344H8.531V31.688L1.219,39l7.313,7.313V42.656h6.094" fill="none" stroke="#27213a" stroke-linejoin="round" stroke-width="2.438"/>
          <circle id="Ellipse_12871" data-name="Ellipse 12871" cx="9.75" cy="9.75" r="9.75" transform="translate(29.25 9.75)" fill="none" stroke="#27213a" stroke-linejoin="round" stroke-width="2.438"/>
          <path id="Path_1277301" data-name="Path 1277301" d="M41.438,19.5H36.563l-1.219-1.219V15.844l1.219-1.219h4.875l1.219,1.219v1.219" fill="none" stroke="#27213a" stroke-linejoin="round" stroke-width="2.438"/>
          <path id="Path_1277302" data-name="Path 1277302" d="M36.563,19.5h4.875l1.219,1.219v2.438l-1.219,1.219H36.563l-1.219-1.219V21.938" fill="none" stroke="#27213a" stroke-linejoin="round" stroke-width="2.438"/>
          <path id="Path_1277303" data-name="Path 1277303" d="M39,14.625V12.188" fill="none" stroke="#27213a" stroke-linejoin="round" stroke-width="2.438"/>
          <path id="Path_1277304" data-name="Path 1277304" d="M39,26.813V24.375" fill="none" stroke="#27213a" stroke-linejoin="round" stroke-width="2.438"/>
        </g>
      </g>
    </g>
  </g>
</svg>
