<svg xmlns="http://www.w3.org/2000/svg" xmlns:xlink="http://www.w3.org/1999/xlink" width="113.842" height="101.604" viewBox="0 0 113.842 101.604">
  <defs>
    <clipPath id="clip-path">
      <rect id="Rectangle_412049" data-name="Rectangle 412049" width="85" height="85" transform="translate(1125 8990)" fill="#fff" stroke="#707070" stroke-width="1"/>
    </clipPath>
  </defs>
  <g id="Group_1204623" data-name="Group 1204623" transform="translate(-1116.158 -8981.224)">
    <g id="Group_1204537" data-name="Group 1204537" transform="translate(1116.158 8981.224)">
      <ellipse id="Ellipse_12835" data-name="Ellipse 12835" cx="28.658" cy="28.658" rx="28.658" ry="28.658" transform="translate(56.527 44.289)" fill="#59cae4"/>
      <ellipse id="Ellipse_12836" data-name="Ellipse 12836" cx="20.842" cy="20.842" rx="20.842" ry="20.842" fill="#59cae4"/>
    </g>
    <g id="Mask_Group_1099429" data-name="Mask Group 1099429" clip-path="url(#clip-path)">
      <g id="_x32_65_x2C__Book_x2C__book_value_x2C__investing_x2C__investment" transform="translate(1121.458 8987.344)">
        <path id="Path_1277122" data-name="Path 1277122" d="M86.771,27.864V85H46.042V77.917H79.688v-54.9h2.24A4.842,4.842,0,0,1,86.771,27.864Z" fill="#bec3c7"/>
        <path id="Path_1277123" data-name="Path 1277123" d="M46.042,77.917V85H5.313V27.864a4.842,4.842,0,0,1,4.843-4.843H12.4v54.9Z" fill="#ecf0f1"/>
        <path id="Path_1277124" data-name="Path 1277124" d="M49.229,58.438v7.438a3.188,3.188,0,0,1-6.375,0V33.286a14.328,14.328,0,0,0,6.375,0Z" fill="#e64c42"/>
        <path id="Path_1277125" data-name="Path 1277125" d="M79.688,23.021v54.9H46.042V69.063a3.188,3.188,0,0,0,3.188-3.187V33.286A14.175,14.175,0,0,0,59.762,15.938H79.688Z" fill="#afb9d2"/>
        <path id="Path_1277126" data-name="Path 1277126" d="M46.042,69.063v8.854H12.4V15.938H32.321A14.176,14.176,0,0,0,42.854,33.286V65.875A3.188,3.188,0,0,0,46.042,69.063Z" fill="#d7deed"/>
        <path id="Path_1277127" data-name="Path 1277127" d="M46.042,5.313A14.167,14.167,0,1,0,60.153,20.728,14.174,14.174,0,0,0,46.042,5.313Z" fill="#fcd884"/>
        <path id="Path_1277128" data-name="Path 1277128" d="M46.042,79.688H12.4a1.771,1.771,0,0,1-1.771-1.771V15.938A1.771,1.771,0,0,1,12.4,14.167H32.321a1.771,1.771,0,0,1,0,3.542H14.167V76.146H46.042a1.771,1.771,0,0,1,0,3.542Z"/>
        <path id="Path_1277129" data-name="Path 1277129" d="M79.688,79.688H46.042a1.771,1.771,0,0,1-1.771-1.771V69.063a1.771,1.771,0,0,1,1.771-1.771,1.418,1.418,0,0,0,1.417-1.417V33.286a1.777,1.777,0,0,1,1.374-1.731,12.417,12.417,0,0,0,7.331-4.921,1.771,1.771,0,1,1,2.886,2.053A15.966,15.966,0,0,1,51,34.625v31.25a4.966,4.966,0,0,1-3.187,4.631v5.639h30.1V17.708H59.762a1.771,1.771,0,0,1,0-3.542H79.687a1.771,1.771,0,0,1,1.771,1.771V77.917a1.771,1.771,0,0,1-1.771,1.771Z"/>
        <path id="Path_1277130" data-name="Path 1277130" d="M45.143,35.391a16.219,16.219,0,1,1,1.506.013,1.752,1.752,0,0,1-.608-.092,2.118,2.118,0,0,1-.9.08Zm.9-3.436a4.026,4.026,0,0,1,1.032-.124l.064-.005c.159-.011.27-.027.3-.031A12.39,12.39,0,0,0,58.416,18.749a12.553,12.553,0,0,0-.371-2.377A12.4,12.4,0,1,0,43.252,31.561a12.615,12.615,0,0,0,1.758.271,4.485,4.485,0,0,1,1.033.124Z"/>
        <path id="Path_1277131" data-name="Path 1277131" d="M51.133,20.483a4.523,4.523,0,0,1-.085,3.425,3.853,3.853,0,0,1-2.47,1.967,7.085,7.085,0,0,1-1.732.285v2.194H45.541V26.141a10.694,10.694,0,0,1-4.884-1.627l1.364-2.706a2.127,2.127,0,0,0,.407.312,9.541,9.541,0,0,0,2,.908,7.135,7.135,0,0,0,1.325.312V20.823a9.2,9.2,0,0,1-3.643-1.647,3.064,3.064,0,0,1-.88-2.329,4.272,4.272,0,0,1,.34-1.75,4.537,4.537,0,0,1,3.976-2.584V10.6h1.305v1.911a8.144,8.144,0,0,1,2.309.549,15.471,15.471,0,0,1,1.874.889l-1.362,2.575a7.225,7.225,0,0,0-3.028-1.25v2.575a16.73,16.73,0,0,1,2.346.728,3.647,3.647,0,0,1,2.148,1.9Zm-4.494,2.9c.97-.039,1.457-.372,1.457-1a.881.881,0,0,0-.4-.767,4.456,4.456,0,0,0-1.059-.5Zm-.891-5.792V15.259q-1.323.112-1.325,1.1a.917.917,0,0,0,.331.747A2.978,2.978,0,0,0,45.748,17.586Z"/>
        <path id="Path_1277132" data-name="Path 1277132" d="M46.042,86.771H5.313A1.771,1.771,0,0,1,3.542,85V27.864a6.622,6.622,0,0,1,6.614-6.614H12.4a1.771,1.771,0,1,1,0,3.542h-2.24a3.076,3.076,0,0,0-3.072,3.072V83.229H46.042a1.771,1.771,0,1,1,0,3.542Z"/>
        <path id="Path_1277133" data-name="Path 1277133" d="M86.771,86.771H46.042A1.771,1.771,0,0,1,44.271,85V77.917a1.771,1.771,0,1,1,3.542,0v5.313H85V27.864a3.076,3.076,0,0,0-3.072-3.072h-2.24a1.771,1.771,0,1,1,0-3.542h2.24a6.622,6.622,0,0,1,6.614,6.614V85A1.771,1.771,0,0,1,86.771,86.771Z"/>
        <path id="Path_1277134" data-name="Path 1277134" d="M65.521,40.729H56.667a1.771,1.771,0,0,1,0-3.542h8.854a1.771,1.771,0,1,1,0,3.542Z"/>
        <path id="Path_1277135" data-name="Path 1277135" d="M72.6,46.042H56.667a1.771,1.771,0,0,1,0-3.542H72.6a1.771,1.771,0,1,1,0,3.542Z"/>
        <path id="Path_1277136" data-name="Path 1277136" d="M72.6,51.354H56.667a1.771,1.771,0,0,1,0-3.542H72.6a1.771,1.771,0,1,1,0,3.542Z"/>
        <path id="Path_1277137" data-name="Path 1277137" d="M72.6,56.667H56.667a1.771,1.771,0,1,1,0-3.542H72.6a1.771,1.771,0,1,1,0,3.542Z"/>
        <path id="Path_1277138" data-name="Path 1277138" d="M72.6,61.979H56.667a1.771,1.771,0,0,1,0-3.542H72.6a1.771,1.771,0,1,1,0,3.542Z"/>
        <path id="Path_1277139" data-name="Path 1277139" d="M72.6,67.292H56.667a1.771,1.771,0,1,1,0-3.542H72.6a1.771,1.771,0,1,1,0,3.542Z"/>
        <path id="Path_1277140" data-name="Path 1277140" d="M72.6,72.6h-5.8a1.771,1.771,0,1,1,0-3.542h5.8a1.771,1.771,0,1,1,0,3.542Z"/>
        <path id="Path_1277141" data-name="Path 1277141" d="M28.333,40.729H19.479a1.771,1.771,0,1,1,0-3.542h8.854a1.771,1.771,0,1,1,0,3.542Z"/>
        <path id="Path_1277142" data-name="Path 1277142" d="M35.417,46.042H19.479a1.771,1.771,0,1,1,0-3.542H35.417a1.771,1.771,0,1,1,0,3.542Z"/>
        <path id="Path_1277143" data-name="Path 1277143" d="M35.417,51.354H19.479a1.771,1.771,0,1,1,0-3.542H35.417a1.771,1.771,0,1,1,0,3.542Z"/>
        <path id="Path_1277144" data-name="Path 1277144" d="M35.417,56.667H19.479a1.771,1.771,0,1,1,0-3.542H35.417a1.771,1.771,0,1,1,0,3.542Z"/>
        <path id="Path_1277145" data-name="Path 1277145" d="M35.417,61.979H19.479a1.771,1.771,0,1,1,0-3.542H35.417a1.771,1.771,0,1,1,0,3.542Z"/>
        <path id="Path_1277146" data-name="Path 1277146" d="M35.417,67.292H19.479a1.771,1.771,0,1,1,0-3.542H35.417a1.771,1.771,0,1,1,0,3.542Z"/>
        <path id="Path_1277147" data-name="Path 1277147" d="M35.417,72.6h-5.8a1.771,1.771,0,1,1,0-3.542h5.8a1.771,1.771,0,1,1,0,3.542Z"/>
        <path id="Path_1277148" data-name="Path 1277148" d="M46.042,70.833a4.964,4.964,0,0,1-4.958-4.958V34.625a15.716,15.716,0,0,1-3.068-1.376A1.771,1.771,0,0,1,39.8,30.19a12.3,12.3,0,0,0,3.453,1.366,1.771,1.771,0,0,1,1.373,1.726V65.875a1.418,1.418,0,0,0,1.417,1.417,1.771,1.771,0,1,1,0,3.542Z"/>
      </g>
    </g>
  </g>
</svg>
