<svg xmlns="http://www.w3.org/2000/svg" xmlns:xlink="http://www.w3.org/1999/xlink" width="113.842" height="101.604" viewBox="0 0 113.842 101.604">
  <defs>
    <clipPath id="clip-path">
      <rect id="Rectangle_412057" data-name="Rectangle 412057" width="84" height="78" transform="translate(758.11 2825.371)" fill="#fff" stroke="#707070" stroke-width="1"/>
    </clipPath>
  </defs>
  <g id="Group_1204647" data-name="Group 1204647" transform="translate(-743.079 -2813.335)">
    <g id="Group_1204624" data-name="Group 1204624" transform="translate(743.079 2813.335)">
      <ellipse id="Ellipse_12787" data-name="Ellipse 12787" cx="28.658" cy="28.658" rx="28.658" ry="28.658" transform="translate(56.527 44.289)" fill="#59cae4"/>
      <ellipse id="Ellipse_12788" data-name="Ellipse 12788" cx="20.842" cy="20.842" rx="20.842" ry="20.842" fill="#59cae4"/>
    </g>
    <g id="Mask_Group_1099432" data-name="Mask Group 1099432" clip-path="url(#clip-path)">
      <g id="bookkeeping_12692259" transform="translate(761.11 2825.371)">
        <g id="Group_1204640" data-name="Group 1204640">
          <rect id="Rectangle_412064" data-name="Rectangle 412064" width="53.425" height="75.71" transform="translate(23.431 1.145)" fill="#fff"/>
          <rect id="Rectangle_412065" data-name="Rectangle 412065" width="3.816" height="75.71" transform="translate(23.431 1.145)" fill="#e3e9ee"/>
          <rect id="Rectangle_412066" data-name="Rectangle 412066" width="25.949" height="33.581" transform="translate(1.145 38.695)" fill="#8ad8f6"/>
          <rect id="Rectangle_412067" data-name="Rectangle 412067" width="16.791" height="6.106" transform="translate(5.724 43.274)" fill="#fff"/>
          <rect id="Rectangle_412068" data-name="Rectangle 412068" width="6.106" height="4.579" transform="translate(5.724 53.959)" fill="#fff"/>
          <rect id="Rectangle_412069" data-name="Rectangle 412069" width="6.106" height="4.579" transform="translate(5.724 63.117)" fill="#fff"/>
          <rect id="Rectangle_412070" data-name="Rectangle 412070" width="6.106" height="4.579" transform="translate(16.409 53.959)" fill="#fff"/>
          <rect id="Rectangle_412071" data-name="Rectangle 412071" width="6.106" height="4.579" transform="translate(16.409 63.117)" fill="#fff"/>
          <g id="Group_1204639" data-name="Group 1204639">
            <path id="Path_1277185" data-name="Path 1277185" d="M47.9,64.219l5.72-10.672,6.887-3.24H67.94L76.855,54.8V76.855H55.8V63.939l-5.7,8.438-10.251-5.9L42.74,61.3Z" fill="#fde31d"/>
            <path id="Path_1277186" data-name="Path 1277186" d="M35.34,60.392A2.945,2.945,0,0,1,39.3,59.361L42.74,61.3l-2.888,5.17-3.467-2A2.944,2.944,0,0,1,35.34,60.392Z" fill="#ffdaaa"/>
            <path id="Path_1277187" data-name="Path 1277187" d="M64.224,35.795h0a5.614,5.614,0,0,0-5.614,5.614V46.1a5.614,5.614,0,0,0,5.614,5.614h0A5.614,5.614,0,0,0,69.838,46.1V41.408A5.614,5.614,0,0,0,64.224,35.795Z" fill="#ffdaaa"/>
            <path id="Path_1277188" data-name="Path 1277188" d="M62.426,46.1V41.408a5.615,5.615,0,0,1,3.706-5.281,5.6,5.6,0,0,0-1.908-.333h0a5.614,5.614,0,0,0-5.614,5.614V46.1a5.614,5.614,0,0,0,5.614,5.614h0a5.6,5.6,0,0,0,1.908-.333A5.616,5.616,0,0,1,62.426,46.1Z" fill="#ffb680"/>
          </g>
          <rect id="Rectangle_412072" data-name="Rectangle 412072" width="44.266" height="24.423" transform="translate(28.01 6.64)" fill="#71e4bf"/>
          <rect id="Rectangle_412073" data-name="Rectangle 412073" width="3.816" height="33.581" transform="translate(1.145 38.695)" fill="#54c9f3"/>
        </g>
        <g id="Group_1204642" data-name="Group 1204642">
          <rect id="Rectangle_412074" data-name="Rectangle 412074" width="44.266" height="24.423" transform="translate(28.01 6.64)" fill="none" stroke="#000" stroke-miterlimit="10" stroke-width="2.29"/>
          <line id="Line_573" data-name="Line 573" y1="24.423" transform="translate(35.642 6.64)" fill="none" stroke="#000" stroke-miterlimit="10" stroke-width="2.29"/>
          <line id="Line_574" data-name="Line 574" y1="24.423" transform="translate(63.117 6.64)" fill="none" stroke="#000" stroke-miterlimit="10" stroke-width="2.29"/>
          <line id="Line_575" data-name="Line 575" y1="24.423" transform="translate(55.485 6.64)" fill="none" stroke="#000" stroke-miterlimit="10" stroke-width="2.29"/>
          <line id="Line_576" data-name="Line 576" x2="44.266" transform="translate(28.01 12.746)" fill="none" stroke="#000" stroke-miterlimit="10" stroke-width="2.29"/>
          <line id="Line_577" data-name="Line 577" x2="44.266" transform="translate(28.01 18.851)" fill="none" stroke="#000" stroke-miterlimit="10" stroke-width="2.29"/>
          <line id="Line_578" data-name="Line 578" x2="44.266" transform="translate(28.01 24.957)" fill="none" stroke="#000" stroke-miterlimit="10" stroke-width="2.29"/>
          <path id="Path_1277189" data-name="Path 1277189" d="M23.431,38.695V1.145h6.964" fill="none" stroke="#000" stroke-miterlimit="10" stroke-width="2.29"/>
          <path id="Path_1277190" data-name="Path 1277190" d="M76.855,45.281V76.855H23.431V72.276" fill="none" stroke="#000" stroke-miterlimit="10" stroke-width="2.29"/>
          <path id="Path_1277191" data-name="Path 1277191" d="M32.684,1.145H76.855V42.992" fill="none" stroke="#000" stroke-miterlimit="10" stroke-width="2.29"/>
          <rect id="Rectangle_412075" data-name="Rectangle 412075" width="25.949" height="33.581" transform="translate(1.145 38.695)" fill="none" stroke="#000" stroke-miterlimit="10" stroke-width="2.29"/>
          <rect id="Rectangle_412076" data-name="Rectangle 412076" width="16.791" height="6.106" transform="translate(5.724 43.274)" fill="none" stroke="#000" stroke-miterlimit="10" stroke-width="2.29"/>
          <rect id="Rectangle_412077" data-name="Rectangle 412077" width="6.106" height="4.579" transform="translate(5.724 53.959)" fill="none" stroke="#000" stroke-miterlimit="10" stroke-width="2.29"/>
          <rect id="Rectangle_412078" data-name="Rectangle 412078" width="6.106" height="4.579" transform="translate(5.724 63.117)" fill="none" stroke="#000" stroke-miterlimit="10" stroke-width="2.29"/>
          <rect id="Rectangle_412079" data-name="Rectangle 412079" width="6.106" height="4.579" transform="translate(16.409 53.959)" fill="none" stroke="#000" stroke-miterlimit="10" stroke-width="2.29"/>
          <rect id="Rectangle_412080" data-name="Rectangle 412080" width="6.106" height="4.579" transform="translate(16.409 63.117)" fill="none" stroke="#000" stroke-miterlimit="10" stroke-width="2.29"/>
          <g id="Group_1204641" data-name="Group 1204641">
            <path id="Path_1277192" data-name="Path 1277192" d="M33.352,51.364h6.716a2.748,2.748,0,0,0,2.748-2.748h0a2.748,2.748,0,0,0-2.748-2.748H36.71a2.748,2.748,0,0,1-2.748-2.748h0a2.748,2.748,0,0,1,2.748-2.748h6.716" fill="none" stroke="#000" stroke-miterlimit="10" stroke-width="2.29"/>
            <line id="Line_579" data-name="Line 579" y2="18.317" transform="translate(38.389 36.71)" fill="none" stroke="#000" stroke-miterlimit="10" stroke-width="2.29"/>
          </g>
          <line id="Line_580" data-name="Line 580" x1="8.763" y1="4.338" transform="translate(68.092 50.46)" fill="none" stroke="#000" stroke-miterlimit="10" stroke-width="2.29"/>
          <path id="Path_1277193" data-name="Path 1277193" d="M60.355,50.46l-6.734,3.087L47.9,64.219l-8.6-4.858a2.944,2.944,0,0,0-3.963,1.031h0a2.944,2.944,0,0,0,1.045,4.083l13.718,7.9,5.7-8.438" fill="none" stroke="#000" stroke-miterlimit="10" stroke-width="2.29"/>
          <path id="Path_1277194" data-name="Path 1277194" d="M64.224,51.715h0A5.614,5.614,0,0,1,58.61,46.1V41.408a5.614,5.614,0,0,1,5.614-5.614h0a5.614,5.614,0,0,1,5.614,5.614V46.1A5.614,5.614,0,0,1,64.224,51.715Z" fill="none" stroke="#000" stroke-miterlimit="10" stroke-width="2.29"/>
          <line id="Line_581" data-name="Line 581" y2="17.096" transform="translate(71.389 59.759)" fill="none" stroke="#000" stroke-miterlimit="10" stroke-width="2.29"/>
          <line id="Line_582" data-name="Line 582" y1="17.096" transform="translate(55.804 59.759)" fill="none" stroke="#000" stroke-miterlimit="10" stroke-width="2.29"/>
          <line id="Line_583" data-name="Line 583" x1="2.888" y2="5.17" transform="translate(39.852 61.303)" fill="none" stroke="#000" stroke-miterlimit="10" stroke-width="2.29"/>
        </g>
        <g id="Group_1204643" data-name="Group 1204643">
          <line id="Line_584" data-name="Line 584" x1="2.29" transform="translate(64.742 64.268)" fill="none" stroke="#fff" stroke-miterlimit="10" stroke-width="2.29"/>
          <line id="Line_585" data-name="Line 585" x1="2.29" transform="translate(60.163 64.268)" fill="none" stroke="#fff" stroke-miterlimit="10" stroke-width="2.29"/>
        </g>
      </g>
    </g>
  </g>
</svg>
