<svg xmlns="http://www.w3.org/2000/svg" xmlns:xlink="http://www.w3.org/1999/xlink" width="113.842" height="101.604" viewBox="0 0 113.842 101.604">
  <defs>
    <clipPath id="clip-path">
      <rect id="Rectangle_412056" data-name="Rectangle 412056" width="84" height="78" transform="translate(375.429 2826)" fill="#fff" stroke="#707070" stroke-width="1"/>
    </clipPath>
  </defs>
  <g id="Group_1204648" data-name="Group 1204648" transform="translate(-360.397 -2813.964)">
    <g id="Group_1204358" data-name="Group 1204358" transform="translate(360.397 2813.964)">
      <ellipse id="Ellipse_12787" data-name="Ellipse 12787" cx="28.658" cy="28.658" rx="28.658" ry="28.658" transform="translate(56.527 44.289)" fill="#59cae4"/>
      <ellipse id="Ellipse_12788" data-name="Ellipse 12788" cx="20.842" cy="20.842" rx="20.842" ry="20.842" fill="#59cae4"/>
    </g>
    <g id="Mask_Group_1099431" data-name="Mask Group 1099431" clip-path="url(#clip-path)">
      <g id="money-transfer_17521262" transform="translate(378.181 2825.752)">
        <path id="Path_1277160" data-name="Path 1277160" d="M47.833,22.077H77.269V36.795H47.833Z" fill="#3b764a"/>
        <path id="Path_1277161" data-name="Path 1277161" d="M44.154,25.756H73.59V40.474H44.154Z" fill="#4e9c62"/>
        <path id="Path_1277162" data-name="Path 1277162" d="M23.129,58.872H3.854a2.628,2.628,0,0,1-2.628-2.628V22.252a2.628,2.628,0,0,1,2.628-2.628H23.129a2.628,2.628,0,0,1,2.628,2.628V56.244A2.628,2.628,0,0,1,23.129,58.872Z" fill="#485259"/>
        <path id="Path_1277163" data-name="Path 1277163" d="M1.226,24.53h24.53V53.966H1.226Z" fill="#c2dff2"/>
        <path id="Path_1277164" data-name="Path 1277164" d="M40.474,29.436H69.91V44.154H40.474Z" fill="#66cc80"/>
        <path id="Path_1277165" data-name="Path 1277165" d="M66.231,38.021V35.568a2.453,2.453,0,0,1-2.453-2.453H46.607a2.453,2.453,0,0,1-2.453,2.453v2.453a2.453,2.453,0,0,1,2.453,2.453H63.778A2.453,2.453,0,0,1,66.231,38.021Z" fill="#f2da61"/>
        <circle id="Ellipse_12866" data-name="Ellipse 12866" cx="3.679" cy="3.679" r="3.679" transform="translate(51.513 33.115)" fill="#254a2e"/>
        <g id="Group_1204631" data-name="Group 1204631">
          <path id="Path_1277166" data-name="Path 1277166" d="M16.558,49.06H10.425a5.525,5.525,0,0,1-5.519-5.519v-.613a1.226,1.226,0,1,1,2.453,0v.613a3.07,3.07,0,0,0,3.066,3.066h6.132a3.066,3.066,0,0,0,0-6.132H10.425a5.519,5.519,0,0,1,0-11.038h6.132a5.525,5.525,0,0,1,5.519,5.519v.613a1.226,1.226,0,1,1-2.453,0v-.613a3.07,3.07,0,0,0-3.066-3.066H10.425a3.066,3.066,0,1,0,0,6.132h6.132a5.519,5.519,0,0,1,0,11.038Z" fill="#e6522e"/>
        </g>
        <g id="Group_1204632" data-name="Group 1204632">
          <path id="Path_1277167" data-name="Path 1277167" d="M13.491,51.513a1.227,1.227,0,0,1-1.226-1.226V28.209a1.226,1.226,0,1,1,2.453,0V50.286A1.227,1.227,0,0,1,13.491,51.513Z" fill="#e6522e"/>
        </g>
        <g id="Group_1204633" data-name="Group 1204633">
          <path id="Path_1277168" data-name="Path 1277168" d="M61.325,12.513a1.224,1.224,0,0,1-.9-.4,28.516,28.516,0,0,0-42.35,0,1.227,1.227,0,0,1-1.8-1.663A31.8,31.8,0,0,1,26.543,3,30.753,30.753,0,0,1,51.953,3a31.8,31.8,0,0,1,10.273,7.46,1.226,1.226,0,0,1-.9,2.058Z" fill="#485259"/>
        </g>
        <path id="Path_1277169" data-name="Path 1277169" d="M61.853,4.944l-1.426,5.3-5.093,2.037,11.51,3.667Z" fill="#66cc80"/>
        <g id="Group_1204634" data-name="Group 1204634">
          <path id="Path_1277170" data-name="Path 1277170" d="M39.248,78.248A30.535,30.535,0,0,1,26.543,75.5a31.8,31.8,0,0,1-10.273-7.46,1.227,1.227,0,1,1,1.8-1.663,28.516,28.516,0,0,0,42.35,0,1.227,1.227,0,1,1,1.8,1.663A31.8,31.8,0,0,1,51.953,75.5a30.535,30.535,0,0,1-12.705,2.747Z" fill="#485259"/>
        </g>
        <path id="Path_1277171" data-name="Path 1277171" d="M16.643,73.552l1.426-5.3,5.093-2.037-11.51-3.667Z" fill="#66cc80"/>
        <path id="Path_1277172" data-name="Path 1277172" d="M61.325,53.966H76.043v4.906H61.325Z" fill="#dec859"/>
        <path id="Path_1277173" data-name="Path 1277173" d="M62.551,49.06H77.269v4.906H62.551Z" fill="#c5b14f"/>
        <path id="Path_1277174" data-name="Path 1277174" d="M61.325,44.154H76.043V49.06H61.325Z" fill="#dec859"/>
        <circle id="Ellipse_12867" data-name="Ellipse 12867" cx="7.359" cy="7.359" r="7.359" transform="translate(50.286 44.154)" fill="#f2da61"/>
        <g id="Group_1204635" data-name="Group 1204635">
          <path id="Path_1277175" data-name="Path 1277175" d="M58.872,56.419H56.419a2.456,2.456,0,0,1-2.453-2.453,1.226,1.226,0,0,1,2.453,0v0l2.453,0V52.739H56.419a2.456,2.456,0,0,1-2.453-2.453V49.06a2.456,2.456,0,0,1,2.453-2.453h2.453a2.456,2.456,0,0,1,2.453,2.453,1.226,1.226,0,1,1-2.453,0H56.419v1.226h2.453a2.456,2.456,0,0,1,2.453,2.453v1.226A2.456,2.456,0,0,1,58.872,56.419Z" fill="#e6522e"/>
        </g>
        <g id="Group_1204636" data-name="Group 1204636">
          <path id="Path_1277176" data-name="Path 1277176" d="M57.645,49.06a1.227,1.227,0,0,1-1.226-1.226V46.607a1.226,1.226,0,1,1,2.453,0v1.226A1.227,1.227,0,0,1,57.645,49.06Z" fill="#e6522e"/>
        </g>
        <g id="Group_1204637" data-name="Group 1204637">
          <path id="Path_1277177" data-name="Path 1277177" d="M57.645,57.645a1.227,1.227,0,0,1-1.226-1.226V55.192a1.226,1.226,0,1,1,2.453,0v1.226A1.227,1.227,0,0,1,57.645,57.645Z" fill="#e6522e"/>
        </g>
        <g id="Group_1204638" data-name="Group 1204638">
          <path id="Path_1277178" data-name="Path 1277178" d="M73.59,41.7a1.227,1.227,0,0,0,1.227-1.226V38.021h2.453A1.227,1.227,0,0,0,78.5,36.795V22.077a1.227,1.227,0,0,0-1.226-1.226H47.833a1.227,1.227,0,0,0-1.226,1.226V24.53H44.154a1.227,1.227,0,0,0-1.226,1.226v2.453H40.474a1.227,1.227,0,0,0-1.226,1.226V44.154a1.227,1.227,0,0,0,1.226,1.226H51.645a8.58,8.58,0,0,0,8.732,14.27,1.224,1.224,0,0,0,.948.448H76.043a1.227,1.227,0,0,0,1.227-1.226V55.192A1.227,1.227,0,0,0,78.5,53.966V49.06a1.227,1.227,0,0,0-1.226-1.226V44.154a1.227,1.227,0,0,0-1.227-1.226H71.137V41.7ZM49.06,23.3H76.043V35.568H74.816V25.756A1.227,1.227,0,0,0,73.59,24.53H49.06ZM45.38,26.983H72.363V39.248H71.137V29.436a1.227,1.227,0,0,0-1.226-1.226H45.38Zm6.132,24.53a6.132,6.132,0,1,1,6.132,6.132A6.139,6.139,0,0,1,51.513,51.513Zm23.3,6.132H63.646A8.62,8.62,0,0,0,65.4,55.192h9.416Zm1.226-4.906h-9.9a8.489,8.489,0,0,0,0-2.453h9.9Zm-1.226-4.906H65.4a8.627,8.627,0,0,0-1.755-2.453h11.17ZM61.325,42.927H41.7V30.662H68.684V42.927Z"/>
          <path id="Path_1277179" data-name="Path 1277179" d="M26.983,56.244V22.252A3.859,3.859,0,0,0,23.129,18.4H3.854A3.859,3.859,0,0,0,0,22.252V56.244A3.859,3.859,0,0,0,3.854,60.1H23.129a3.859,3.859,0,0,0,3.854-3.854ZM2.453,25.756H24.53V52.739H2.453Zm1.4-4.906H23.129a1.4,1.4,0,0,1,1.4,1.4V23.3H2.453V22.252A1.4,1.4,0,0,1,3.854,20.85Zm-1.4,35.393V55.192H24.53v1.052a1.4,1.4,0,0,1-1.4,1.4H3.854a1.4,1.4,0,0,1-1.4-1.4Z"/>
          <path id="Path_1277180" data-name="Path 1277180" d="M66.231,34.342A1.228,1.228,0,0,1,65,33.115a1.227,1.227,0,0,0-1.226-1.226H46.607a1.227,1.227,0,0,0-1.226,1.226,1.228,1.228,0,0,1-1.226,1.226,1.227,1.227,0,0,0-1.226,1.226v2.453a1.227,1.227,0,0,0,1.226,1.226,1.228,1.228,0,0,1,1.226,1.226A1.227,1.227,0,0,0,46.607,41.7H63.778A1.227,1.227,0,0,0,65,40.474a1.228,1.228,0,0,1,1.227-1.226,1.227,1.227,0,0,0,1.226-1.226V35.568A1.227,1.227,0,0,0,66.231,34.342Zm-8.585,2.453a2.453,2.453,0,1,1-2.453-2.453A2.456,2.456,0,0,1,57.645,36.795Zm-12.265.21v-.42a3.7,3.7,0,0,0,2.243-2.243h3.323a4.888,4.888,0,0,0,0,4.906H47.623A3.7,3.7,0,0,0,45.38,37.005Zm19.624,0a3.7,3.7,0,0,0-2.243,2.243H59.438a4.888,4.888,0,0,0,0-4.906h3.323A3.7,3.7,0,0,0,65,36.585Z"/>
          <path id="Path_1277181" data-name="Path 1277181" d="M16.558,29.436h-1.84V28.209a1.226,1.226,0,1,0-2.453,0v1.226h-1.84a5.519,5.519,0,0,0,0,11.038h1.84v6.132h-1.84a3.07,3.07,0,0,1-3.066-3.066v-.613a1.226,1.226,0,1,0-2.453,0v.613a5.525,5.525,0,0,0,5.519,5.519h1.84v1.226a1.226,1.226,0,0,0,2.453,0V49.06h1.84a5.519,5.519,0,0,0,0-11.038h-1.84V31.889h1.84a3.07,3.07,0,0,1,3.066,3.066v.613a1.226,1.226,0,1,0,2.453,0v-.613A5.525,5.525,0,0,0,16.558,29.436Zm0,11.038a3.066,3.066,0,0,1,0,6.132h-1.84V40.474Zm-4.293-2.453h-1.84a3.066,3.066,0,1,1,0-6.132h1.84Z"/>
          <path id="Path_1277182" data-name="Path 1277182" d="M18.073,12.118A28.471,28.471,0,0,1,58.1,9.852l-3.218,1.287a1.226,1.226,0,0,0,.083,2.307l11.51,3.667a1.227,1.227,0,0,0,1.489-1.675l-4.991-11a1.226,1.226,0,0,0-2.3.188L59.75,8.039A31.519,31.519,0,0,0,51.953,3,30.753,30.753,0,0,0,26.543,3a31.8,31.8,0,0,0-10.273,7.46,1.227,1.227,0,0,0,1.8,1.663Zm43.539-1.558.537-2,2.438,5.374-5.623-1.791,1.919-.767a1.226,1.226,0,0,0,.729-.82ZM59.4,9.33l-.058.023c.021-.016.042-.031.064-.045Z"/>
          <path id="Path_1277183" data-name="Path 1277183" d="M60.423,66.378A28.471,28.471,0,0,1,20.4,68.644l3.218-1.287a1.226,1.226,0,0,0-.083-2.307l-11.51-3.667a1.227,1.227,0,0,0-1.489,1.675l4.991,11a1.227,1.227,0,0,0,1.116.72c.033,0,.067,0,.1,0a1.226,1.226,0,0,0,1.084-.9l.919-3.413a31.525,31.525,0,0,0,7.8,5.044,30.753,30.753,0,0,0,25.411,0,31.8,31.8,0,0,0,10.273-7.46,1.227,1.227,0,0,0-1.8-1.663ZM16.884,67.936l-.537,2-2.438-5.374,5.623,1.791-1.919.767A1.226,1.226,0,0,0,16.884,67.936Z"/>
          <path id="Path_1277184" data-name="Path 1277184" d="M58.872,56.419a2.456,2.456,0,0,0,2.453-2.453V52.739a2.456,2.456,0,0,0-2.453-2.453H56.419V49.06h2.453a1.226,1.226,0,1,0,2.453,0,2.456,2.456,0,0,0-2.453-2.453,1.226,1.226,0,1,0-2.453,0,2.456,2.456,0,0,0-2.453,2.453v1.226a2.456,2.456,0,0,0,2.453,2.453h2.453v1.226H56.419v0a1.226,1.226,0,0,0-2.453,0,2.456,2.456,0,0,0,2.453,2.453,1.226,1.226,0,1,0,2.453,0Z"/>
        </g>
      </g>
    </g>
  </g>
</svg>
