<svg xmlns="http://www.w3.org/2000/svg" xmlns:xlink="http://www.w3.org/1999/xlink" width="113.842" height="101.604" viewBox="0 0 113.842 101.604">
  <defs>
    <clipPath id="clip-path">
      <rect id="Rectangle_412063" data-name="Rectangle 412063" width="84" height="78" transform="translate(451.232 -8782.629)" fill="#fff" stroke="#707070" stroke-width="1"/>
    </clipPath>
  </defs>
  <g id="Group_1204675" data-name="Group 1204675" transform="translate(-436.201 8794.665)">
    <g id="Group_1204630" data-name="Group 1204630" transform="translate(436.201 -8794.665)">
      <ellipse id="Ellipse_12787" data-name="Ellipse 12787" cx="28.658" cy="28.658" rx="28.658" ry="28.658" transform="translate(56.527 44.289)" fill="#59cae4"/>
      <ellipse id="Ellipse_12788" data-name="Ellipse 12788" cx="20.842" cy="20.842" rx="20.842" ry="20.842" fill="#59cae4"/>
    </g>
    <g id="Mask_Group_1099438" data-name="Mask Group 1099438" clip-path="url(#clip-path)">
      <g id="clipboard_4420357" transform="translate(451.632 -8785.229)">
        <path id="Path_1277351" data-name="Path 1277351" d="M11.7,6.5H68.9V75.4H11.7Z" fill="#56788b"/>
        <path id="Path_1277352" data-name="Path 1277352" d="M16.9,13H63.7V70.2H16.9Z" fill="#d9f0f4"/>
        <path id="Path_1277353" data-name="Path 1277353" d="M28.6,26h5.2V37.7H28.6Z" fill="#ff4b3c"/>
        <path id="Path_1277354" data-name="Path 1277354" d="M37.7,31.2h5.2v6.5H37.7Z" fill="#ff4b3c"/>
        <path id="Path_1277355" data-name="Path 1277355" d="M46.8,22.1H52V37.7H46.8Z" fill="#ff4b3c"/>
        <path id="Path_1277356" data-name="Path 1277356" d="M31.2,6.5H49.4V16.9H31.2Z" fill="#57565c"/>
        <path id="Path_1277357" data-name="Path 1277357" d="M37.7,3.9h5.2a2.6,2.6,0,0,1,2.6,2.6V13H35.1V6.5A2.6,2.6,0,0,1,37.7,3.9Z" fill="#d8d7da"/>
        <path id="Path_1277358" data-name="Path 1277358" d="M11.7,29.9,5.429,43.932A13.007,13.007,0,0,0,3.9,50.05V79.3H19.5l1.1-1.544a13,13,0,0,0,0-15.111L19.5,61.1l4.351-6.092a4.887,4.887,0,0,0-6.817-6.819L11.7,52Z" fill="#ffddce"/>
        <rect id="Rectangle_412082" data-name="Rectangle 412082" width="36.4" height="36.4" rx="2.6" transform="translate(42.9 42.9)" fill="#016ca9"/>
        <g id="Group_1204674" data-name="Group 1204674">
          <path id="Path_1277359" data-name="Path 1277359" d="M48.1,48.1h26v6.5h-26Z" fill="#bce8fe"/>
          <path id="Path_1277360" data-name="Path 1277360" d="M48.1,58.5h5.2v5.2H48.1Z" fill="#bce8fe"/>
          <path id="Path_1277361" data-name="Path 1277361" d="M48.1,68.9h5.2v5.2H48.1Z" fill="#bce8fe"/>
          <path id="Path_1277362" data-name="Path 1277362" d="M58.327,58.327h5.2v5.2h-5.2Z" fill="#bce8fe"/>
          <path id="Path_1277363" data-name="Path 1277363" d="M58.5,68.9h5.2v5.2H58.5Z" fill="#bce8fe"/>
        </g>
        <path id="Path_1277364" data-name="Path 1277364" d="M68.9,58.5h5.2V74.1H68.9Z" fill="#ff6b81"/>
        <path id="Path_1277365" data-name="Path 1277365" d="M53.3,36.4V22.1A1.3,1.3,0,0,0,52,20.8H46.8a1.3,1.3,0,0,0-1.3,1.3V36.4H44.2V31.2a1.3,1.3,0,0,0-1.3-1.3H37.7a1.3,1.3,0,0,0-1.3,1.3v5.2H35.1V26a1.3,1.3,0,0,0-1.3-1.3H28.6A1.3,1.3,0,0,0,27.3,26V36.4H24.7V39H55.9V36.4Zm-20.8,0H29.9V27.3h2.6Zm9.1,0H39V32.5h2.6Zm9.1,0H48.1v-13h2.6Z"/>
        <path id="Path_1277366" data-name="Path 1277366" d="M76.7,41.6H70.2V6.5a1.3,1.3,0,0,0-1.3-1.3H46.566A3.913,3.913,0,0,0,42.9,2.6H37.7a3.913,3.913,0,0,0-3.666,2.6H11.7a1.3,1.3,0,0,0-1.3,1.3V29.627L4.277,43.316A14.473,14.473,0,0,0,2.6,50.05V79.3a1.3,1.3,0,0,0,1.3,1.3H19.5a1.3,1.3,0,0,0,1.053-.546l1.1-1.547a14.3,14.3,0,0,0,1.1-1.807H41.6a3.912,3.912,0,0,0,3.9,3.9H76.7a3.912,3.912,0,0,0,3.9-3.9V45.5a3.912,3.912,0,0,0-3.9-3.9ZM50.7,7.8H67.6V41.6H65V13a1.3,1.3,0,0,0-1.3-1.3h-13ZM36.4,6.5a1.3,1.3,0,0,1,1.3-1.3h5.2a1.3,1.3,0,0,1,1.3,1.3v5.2H36.4ZM32.5,7.8h1.3V13a1.3,1.3,0,0,0,1.3,1.3H45.5A1.3,1.3,0,0,0,46.8,13V7.8h1.3v7.8H32.5ZM13,7.8H29.9v3.9h-13A1.3,1.3,0,0,0,15.6,13V47.619L13,49.478ZM19.552,77l-.715,1H5.2V50.05a11.938,11.938,0,0,1,1.417-5.59L10.4,36V52a1.3,1.3,0,0,0,2.054,1.053L17.8,49.244a3.584,3.584,0,0,1,4.992,5.005l-4.342,6.1a1.288,1.288,0,0,0,0,1.508L19.552,63.4A11.717,11.717,0,0,1,19.552,77ZM41.6,74.1H23.777a14.99,14.99,0,0,0,.481-2.6H41.6Zm0-28.6V68.9H24.258a14.214,14.214,0,0,0-2.6-7.007L21.1,61.1l3.809-5.343A6.175,6.175,0,0,0,18.2,46.228V14.3H29.9v2.6a1.3,1.3,0,0,0,1.3,1.3H49.4a1.3,1.3,0,0,0,1.3-1.3V14.3H62.4V41.6H45.5a3.912,3.912,0,0,0-3.9,3.9ZM78,76.7A1.3,1.3,0,0,1,76.7,78H45.5a1.3,1.3,0,0,1-1.3-1.3V45.5a1.3,1.3,0,0,1,1.3-1.3H76.7A1.3,1.3,0,0,1,78,45.5Z"/>
        <path id="Path_1277367" data-name="Path 1277367" d="M74.1,46.8h-26a1.3,1.3,0,0,0-1.3,1.3v6.5a1.3,1.3,0,0,0,1.3,1.3h26a1.3,1.3,0,0,0,1.3-1.3V48.1A1.3,1.3,0,0,0,74.1,46.8Zm-1.3,6.5H49.4V49.4H72.8Z"/>
        <path id="Path_1277368" data-name="Path 1277368" d="M53.3,57.2H48.1a1.3,1.3,0,0,0-1.3,1.3v5.2A1.3,1.3,0,0,0,48.1,65h5.2a1.3,1.3,0,0,0,1.3-1.3V58.5A1.3,1.3,0,0,0,53.3,57.2ZM52,62.4H49.4V59.8H52Z"/>
        <path id="Path_1277369" data-name="Path 1277369" d="M53.3,67.6H48.1a1.3,1.3,0,0,0-1.3,1.3v5.2a1.3,1.3,0,0,0,1.3,1.3h5.2a1.3,1.3,0,0,0,1.3-1.3V68.9A1.3,1.3,0,0,0,53.3,67.6ZM52,72.8H49.4V70.2H52Z"/>
        <path id="Path_1277370" data-name="Path 1277370" d="M58.327,64.827h5.2a1.3,1.3,0,0,0,1.3-1.3v-5.2a1.3,1.3,0,0,0-1.3-1.3h-5.2a1.3,1.3,0,0,0-1.3,1.3v5.2A1.3,1.3,0,0,0,58.327,64.827Zm1.3-5.2h2.6v2.6h-2.6Z"/>
        <path id="Path_1277371" data-name="Path 1277371" d="M63.7,67.6H58.5a1.3,1.3,0,0,0-1.3,1.3v5.2a1.3,1.3,0,0,0,1.3,1.3h5.2A1.3,1.3,0,0,0,65,74.1V68.9A1.3,1.3,0,0,0,63.7,67.6Zm-1.3,5.2H59.8V70.2h2.6Z"/>
        <path id="Path_1277372" data-name="Path 1277372" d="M74.1,57.2H68.9a1.3,1.3,0,0,0-1.3,1.3V74.1a1.3,1.3,0,0,0,1.3,1.3h5.2a1.3,1.3,0,0,0,1.3-1.3V58.5A1.3,1.3,0,0,0,74.1,57.2ZM72.8,72.8H70.2v-13h2.6Z"/>
      </g>
    </g>
  </g>
</svg>
