<svg xmlns="http://www.w3.org/2000/svg" xmlns:xlink="http://www.w3.org/1999/xlink" width="113.842" height="101.604" viewBox="0 0 113.842 101.604">
  <defs>
    <clipPath id="clip-path">
      <rect id="Rectangle_412012" data-name="Rectangle 412012" width="93" height="84" transform="translate(495 2852)" fill="#fff" stroke="#707070" stroke-width="1"/>
    </clipPath>
  </defs>
  <g id="Group_1204968" data-name="Group 1204968" transform="translate(-570 -2842.964)">
    <g id="Group_1204590" data-name="Group 1204590" transform="translate(85 3)">
      <g id="Group_1204526" data-name="Group 1204526" transform="translate(485 2839.964)">
        <ellipse id="Ellipse_12835" data-name="Ellipse 12835" cx="28.658" cy="28.658" rx="28.658" ry="28.658" transform="translate(56.527 44.289)" fill="#59cae4"/>
        <ellipse id="Ellipse_12836" data-name="Ellipse 12836" cx="20.842" cy="20.842" rx="20.842" ry="20.842" fill="#59cae4"/>
      </g>
      <g id="Mask_Group_1099415" data-name="Mask Group 1099415" clip-path="url(#clip-path)">
        <g id="credit-card_616987" transform="translate(498.753 2851.253)">
          <path id="Path_1277026" data-name="Path 1277026" d="M6,41.244a4.505,4.505,0,0,1-4.5-4.5v-30A4.505,4.505,0,0,1,6,2.247H57a4.505,4.505,0,0,1,4.5,4.5v30a4.505,4.505,0,0,1-4.5,4.5Z" fill="#333"/>
          <path id="Path_1277027" data-name="Path 1277027" d="M57,3.747a3,3,0,0,1,3,3v30a3,3,0,0,1-3,3H6a3,3,0,0,1-3-3v-30a3,3,0,0,1,3-3H57m0-3H6a6,6,0,0,0-6,6v30a6,6,0,0,0,6,6H57a6,6,0,0,0,6-6v-30A6,6,0,0,0,57,.747Z" fill="#010101"/>
          <g id="Group_1204584" data-name="Group 1204584">
            <rect id="Rectangle_412014" data-name="Rectangle 412014" width="8.999" height="3" transform="translate(8.999 30.745)" fill="#fff"/>
            <rect id="Rectangle_412015" data-name="Rectangle 412015" width="8.999" height="3" transform="translate(20.999 30.745)" fill="#fff"/>
          </g>
          <rect id="Rectangle_412016" data-name="Rectangle 412016" width="8.999" height="8.999" transform="translate(8.999 9.746)" fill="#face59"/>
          <g id="Group_1204585" data-name="Group 1204585">
            <rect id="Rectangle_412017" data-name="Rectangle 412017" width="8.999" height="3" transform="translate(30.223 30.745)" fill="#fff"/>
            <rect id="Rectangle_412018" data-name="Rectangle 412018" width="8.999" height="3" transform="translate(42.222 30.745)" fill="#fff"/>
          </g>
          <path id="Path_1277028" data-name="Path 1277028" d="M36,75.742H69.225v9L83.994,71.248,69.225,57.743v9H43.11Z" fill="#479d61"/>
          <path id="Path_1277029" data-name="Path 1277029" d="M0,65.242,15,78.747V69.742H40.887L48,60.749H15V51.743Z" fill="#e7282b"/>
          <path id="Path_1277030" data-name="Path 1277030" d="M83.994,71.248,69.225,57.743v9.005h-57v5.305L4.51,65.238l7.718-6.81v5.314H45.594L48,60.749c-6.144,0-26.631,0-33-.006v-9L0,65.236,15,78.741v-9H72.224V64.431l7.258,6.816-7.258,6.816v-5.32H38.408l-2.41,3H69.225v9.005Z"/>
          <path id="Path_1277031" data-name="Path 1277031" d="M28.5,53.243a4.505,4.505,0,0,1-4.5-4.5v-30a4.505,4.505,0,0,1,4.5-4.5h51a4.505,4.505,0,0,1,4.5,4.5v30a4.505,4.505,0,0,1-4.5,4.5Z" fill="#5785c4"/>
          <path id="Path_1277032" data-name="Path 1277032" d="M79.494,15.746a3,3,0,0,1,3,3v30a3,3,0,0,1-3,3h-51a3,3,0,0,1-3-3v-30a3,3,0,0,1,3-3h51m0-3h-51a6,6,0,0,0-6,6v30a6,6,0,0,0,6,6h51a6,6,0,0,0,6-6v-30A6,6,0,0,0,79.494,12.746Z" fill="#010101"/>
          <g id="Group_1204586" data-name="Group 1204586">
            <rect id="Rectangle_412019" data-name="Rectangle 412019" width="8.999" height="3" transform="translate(31.498 42.744)" fill="#fff"/>
            <rect id="Rectangle_412020" data-name="Rectangle 412020" width="8.999" height="3" transform="translate(43.497 42.744)" fill="#fff"/>
            <rect id="Rectangle_412021" data-name="Rectangle 412021" width="8.999" height="3" transform="translate(55.496 42.744)" fill="#fff"/>
            <rect id="Rectangle_412022" data-name="Rectangle 412022" width="8.999" height="3" transform="translate(67.495 42.744)" fill="#fff"/>
          </g>
          <rect id="Rectangle_412023" data-name="Rectangle 412023" width="8.999" height="8.999" transform="translate(31.498 21.745)" fill="#face59"/>
        </g>
      </g>
    </g>
  </g>
</svg>
