<svg xmlns="http://www.w3.org/2000/svg" xmlns:xlink="http://www.w3.org/1999/xlink" width="113.842" height="101.604" viewBox="0 0 113.842 101.604">
  <defs>
    <clipPath id="clip-path">
      <rect id="Rectangle_412058" data-name="Rectangle 412058" width="84" height="78" transform="translate(1111.189 2825.371)" fill="#fff" stroke="#707070" stroke-width="1"/>
    </clipPath>
  </defs>
  <g id="Group_1204646" data-name="Group 1204646" transform="translate(-1096.158 -2813.335)">
    <g id="Group_1204625" data-name="Group 1204625" transform="translate(1096.158 2813.335)">
      <ellipse id="Ellipse_12787" data-name="Ellipse 12787" cx="28.658" cy="28.658" rx="28.658" ry="28.658" transform="translate(56.527 44.289)" fill="#59cae4"/>
      <ellipse id="Ellipse_12788" data-name="Ellipse 12788" cx="20.842" cy="20.842" rx="20.842" ry="20.842" fill="#59cae4"/>
    </g>
    <g id="Mask_Group_1099433" data-name="Mask Group 1099433" clip-path="url(#clip-path)">
      <g id="calculator_2498167" transform="translate(1114.189 2825.371)">
        <g id="Group_1204644" data-name="Group 1204644">
          <path id="Path_1277195" data-name="Path 1277195" d="M54.876,1.143h-34.4a2.442,2.442,0,0,0-1.727.715l-9.56,9.56a2.442,2.442,0,0,0-.715,1.727V63.424H56.1V2.364a1.221,1.221,0,0,0-1.221-1.221Z" fill="#eceaec"/>
          <path id="Path_1277196" data-name="Path 1277196" d="M12.134,57.318V12.134h7.327V1.143L8.47,12.134V63.424a1.221,1.221,0,0,0,1.221,1.221h30.53V60.982H15.8a3.664,3.664,0,0,1-3.664-3.664Z" fill="#dad8db"/>
          <path id="Path_1277197" data-name="Path 1277197" d="M67.088,76.857H42.664a2.442,2.442,0,0,1-2.442-2.442V42.664a2.442,2.442,0,0,1,2.442-2.442H67.088a2.442,2.442,0,0,1,2.442,2.442V74.415A2.442,2.442,0,0,1,67.088,76.857Z" fill="#c8c5c9"/>
          <path id="Path_1277198" data-name="Path 1277198" d="M67.088,40.221H42.664a2.442,2.442,0,0,0-2.442,2.442v9.77H69.53v-9.77A2.442,2.442,0,0,0,67.088,40.221Z" fill="#6f6571"/>
          <path id="Path_1277199" data-name="Path 1277199" d="M24.346,57.318a8.548,8.548,0,1,1,8.548-8.548A8.559,8.559,0,0,1,24.346,57.318Zm0-12.212a3.664,3.664,0,1,0,3.664,3.664A3.668,3.668,0,0,0,24.346,45.106Z" fill="#95d6a4"/>
          <path id="Path_1277200" data-name="Path 1277200" d="M23.124,24.346H19.461a1.221,1.221,0,0,0-1.221,1.221v7.327h6.106V25.567A1.221,1.221,0,0,0,23.124,24.346Z" fill="#ff8086"/>
          <path id="Path_1277201" data-name="Path 1277201" d="M21.216,26.788V24.346H19.461a1.221,1.221,0,0,0-1.221,1.221v7.327h6.106V29.231h-.687A2.442,2.442,0,0,1,21.216,26.788Z" fill="#e5646e"/>
          <path id="Path_1277202" data-name="Path 1277202" d="M34.115,17.018H30.452A1.221,1.221,0,0,0,29.23,18.24V32.894h6.106V18.24A1.221,1.221,0,0,0,34.115,17.018Z" fill="#ffc269"/>
          <path id="Path_1277203" data-name="Path 1277203" d="M32.207,26.788v-9.77H30.452A1.221,1.221,0,0,0,29.23,18.24V32.894h6.106V29.23H34.65a2.442,2.442,0,0,1-2.443-2.442Z" fill="#ffa95f"/>
          <path id="Path_1277204" data-name="Path 1277204" d="M45.106,9.691H41.443a1.221,1.221,0,0,0-1.221,1.221V32.894h6.106V10.912a1.221,1.221,0,0,0-1.221-1.221Z" fill="#b3e59f"/>
          <path id="Path_1277205" data-name="Path 1277205" d="M43.2,26.788V9.691H41.442a1.221,1.221,0,0,0-1.221,1.221V32.894h6.106V29.23H45.64A2.442,2.442,0,0,1,43.2,26.788Z" fill="#95d6a4"/>
          <path id="Path_1277206" data-name="Path 1277206" d="M24.346,57.318a8.522,8.522,0,0,0,6.042-2.507l-3.452-3.452a3.662,3.662,0,0,1-6.253-2.589H15.8a8.558,8.558,0,0,0,8.548,8.548Z" fill="#ffc269"/>
          <path id="Path_1277207" data-name="Path 1277207" d="M63.424,52.433h-17.1V46.327a1.221,1.221,0,0,1,1.221-1.221H62.2a1.221,1.221,0,0,1,1.221,1.221Z" fill="#ccf49f"/>
          <path id="Path_1277208" data-name="Path 1277208" d="M49.991,46.327V45.106H47.548a1.221,1.221,0,0,0-1.221,1.221v6.106h17.1V48.77H52.433a2.443,2.443,0,0,1-2.443-2.443Z" fill="#b3e59f"/>
          <path id="Path_1277209" data-name="Path 1277209" d="M42.664,76.857H67.088a2.442,2.442,0,0,0,2.442-2.442v-1.3h-23.2a2.442,2.442,0,0,1-2.442-2.442V51.212H40.221v23.2a2.442,2.442,0,0,0,2.442,2.442Z" fill="#b6b1b7"/>
          <path id="Path_1277210" data-name="Path 1277210" d="M42.664,40.221a2.442,2.442,0,0,0-2.442,2.442v9.77h3.664V40.221Z" fill="#5d5360"/>
        </g>
        <g id="Group_1204645" data-name="Group 1204645">
          <path id="Path_1277211" data-name="Path 1277211" d="M69.53,46.249a1.143,1.143,0,0,0,1.143-1.143V42.664a3.589,3.589,0,0,0-3.585-3.585H42.664a3.589,3.589,0,0,0-3.585,3.585V74.415A3.589,3.589,0,0,0,42.664,78H67.088a3.589,3.589,0,0,0,3.585-3.585V49.991a1.143,1.143,0,0,0-2.285,0v1.3H64.566V46.249a2.288,2.288,0,0,0-2.285-2.285H47.469a2.288,2.288,0,0,0-2.285,2.285v5.042H41.363V42.664a1.3,1.3,0,0,1,1.3-1.3H67.087a1.3,1.3,0,0,1,1.3,1.3v2.442a1.144,1.144,0,0,0,1.143,1.143Zm-22.061,0H62.281v5.042H47.47Zm20.918,7.327V74.415a1.3,1.3,0,0,1-1.3,1.3H42.664a1.3,1.3,0,0,1-1.3-1.3V53.576Z"/>
          <path id="Path_1277212" data-name="Path 1277212" d="M35.337,63.5H9.691a.079.079,0,0,1-.079-.079V13.276h9.848A1.143,1.143,0,0,0,20.6,12.134V2.285H54.876a.079.079,0,0,1,.079.079V35.336a1.143,1.143,0,0,0,2.285,0V2.364A2.366,2.366,0,0,0,54.876,0H19.461a1.142,1.142,0,0,0-.808.335L7.662,11.326a1.142,1.142,0,0,0-.335.808v51.29a2.366,2.366,0,0,0,2.364,2.364H35.337a1.143,1.143,0,1,0,0-2.285ZM11.228,10.991l7.09-7.09v7.09Z"/>
          <path id="Path_1277213" data-name="Path 1277213" d="M46.327,58.461H48.77a1.143,1.143,0,0,0,0-2.285H46.327a1.143,1.143,0,0,0,0,2.285Z"/>
          <path id="Path_1277214" data-name="Path 1277214" d="M46.327,68.23H48.77a1.143,1.143,0,0,0,0-2.285H46.327a1.143,1.143,0,1,0,0,2.285Z"/>
          <path id="Path_1277215" data-name="Path 1277215" d="M46.327,73.115H48.77a1.143,1.143,0,0,0,0-2.285H46.327a1.143,1.143,0,1,0,0,2.285Z"/>
          <path id="Path_1277216" data-name="Path 1277216" d="M46.327,63.346H48.77a1.143,1.143,0,0,0,0-2.285H46.327a1.143,1.143,0,1,0,0,2.285Z"/>
          <path id="Path_1277217" data-name="Path 1277217" d="M53.654,58.461H56.1a1.143,1.143,0,0,0,0-2.285H53.654a1.143,1.143,0,0,0,0,2.285Z"/>
          <path id="Path_1277218" data-name="Path 1277218" d="M53.654,68.23H56.1a1.143,1.143,0,0,0,0-2.285H53.654a1.143,1.143,0,0,0,0,2.285Z"/>
          <path id="Path_1277219" data-name="Path 1277219" d="M53.654,73.115H56.1a1.143,1.143,0,0,0,0-2.285H53.654a1.143,1.143,0,0,0,0,2.285Z"/>
          <path id="Path_1277220" data-name="Path 1277220" d="M53.654,63.346H56.1a1.143,1.143,0,0,0,0-2.285H53.654a1.143,1.143,0,0,0,0,2.285Z"/>
          <path id="Path_1277221" data-name="Path 1277221" d="M60.982,58.461h2.442a1.143,1.143,0,0,0,0-2.285H60.982a1.143,1.143,0,0,0,0,2.285Z"/>
          <path id="Path_1277222" data-name="Path 1277222" d="M60.982,68.23h2.442a1.143,1.143,0,0,0,0-2.285H60.982a1.143,1.143,0,0,0,0,2.285Z"/>
          <path id="Path_1277223" data-name="Path 1277223" d="M60.982,73.115h2.442a1.143,1.143,0,0,0,0-2.285H60.982a1.143,1.143,0,0,0,0,2.285Z"/>
          <path id="Path_1277224" data-name="Path 1277224" d="M60.982,63.346h2.442a1.143,1.143,0,0,0,0-2.285H60.982a1.143,1.143,0,0,0,0,2.285Z"/>
          <path id="Path_1277225" data-name="Path 1277225" d="M24.346,41.364a7.34,7.34,0,0,1,3.176.713,1.143,1.143,0,1,0,.981-2.064,9.691,9.691,0,1,0,4.152,3.766A1.143,1.143,0,1,0,30.7,44.958a7.4,7.4,0,0,1-.372,8.175l-1.871-1.871a4.805,4.805,0,1,0-8.776-3.635h-2.65a7.417,7.417,0,0,1,7.317-6.263Zm-7.318,8.548h2.65a4.8,4.8,0,0,0,7.16,2.966l1.871,1.871a7.4,7.4,0,0,1-11.681-4.836Zm7.318-3.664a2.521,2.521,0,1,1-2.521,2.521A2.524,2.524,0,0,1,24.346,46.249Z"/>
          <path id="Path_1277226" data-name="Path 1277226" d="M48.77,34.036a1.143,1.143,0,1,0,0-2.285h-1.3V10.912a2.366,2.366,0,0,0-2.364-2.364H41.443a2.366,2.366,0,0,0-2.364,2.364V31.751h-2.6V18.24a2.366,2.366,0,0,0-2.364-2.364H30.452a2.366,2.366,0,0,0-2.364,2.364V31.751h-2.6V25.567A2.366,2.366,0,0,0,23.125,23.2H19.461A2.366,2.366,0,0,0,17.1,25.567v6.185H15.8a1.143,1.143,0,1,0,0,2.285ZM41.364,10.912a.079.079,0,0,1,.079-.079h3.664a.079.079,0,0,1,.079.079V31.751H41.364V10.912ZM30.373,18.24a.079.079,0,0,1,.079-.079h3.664a.079.079,0,0,1,.079.079V31.751H30.373V18.24ZM19.382,25.567a.079.079,0,0,1,.079-.079h3.664a.079.079,0,0,1,.079.079v6.185H19.382V25.567Z"/>
        </g>
      </g>
    </g>
  </g>
</svg>
