<svg xmlns="http://www.w3.org/2000/svg" xmlns:xlink="http://www.w3.org/1999/xlink" width="113.842" height="101.604" viewBox="0 0 113.842 101.604">
  <defs>
    <clipPath id="clip-path">
      <rect id="Rectangle_412048" data-name="Rectangle 412048" width="85" height="85" transform="translate(758 8990)" fill="#fff" stroke="#707070" stroke-width="1"/>
    </clipPath>
  </defs>
  <g id="Group_1204622" data-name="Group 1204622" transform="translate(-743.079 -8981.224)">
    <g id="Group_1204536" data-name="Group 1204536" transform="translate(743.079 8981.224)">
      <ellipse id="Ellipse_12835" data-name="Ellipse 12835" cx="28.658" cy="28.658" rx="28.658" ry="28.658" transform="translate(56.527 44.289)" fill="#59cae4"/>
      <ellipse id="Ellipse_12836" data-name="Ellipse 12836" cx="20.842" cy="20.842" rx="20.842" ry="20.842" fill="#59cae4"/>
    </g>
    <g id="Mask_Group_1099428" data-name="Mask Group 1099428" clip-path="url(#clip-path)">
      <g id="calculation_6193522" transform="translate(758 8990)">
        <g id="Group_1204619" data-name="Group 1204619">
          <path id="Path_1277110" data-name="Path 1277110" d="M43.172,62.207a19.039,19.039,0,0,1,14.984-18.6V5.631l-4.5-4.5H5.631l-4.5,4.5v62.58H44.144a18.993,18.993,0,0,1-.972-6Z" fill="#6aa9ff"/>
          <path id="Path_1277111" data-name="Path 1277111" d="M51.721,46.323V33.745H7.561V61.776H43.183a19.012,19.012,0,0,1,8.538-15.453Z" fill="#fed843"/>
          <rect id="Rectangle_412050" data-name="Rectangle 412050" width="44.16" height="19.749" transform="translate(7.561 7.561)" fill="#fff5f5"/>
          <circle id="Ellipse_12865" data-name="Ellipse 12865" cx="19.035" cy="19.035" r="19.035" transform="matrix(0.223, -0.975, 0.975, 0.223, 39.414, 76.53)" fill="#474f54"/>
          <path id="Path_1277112" data-name="Path 1277112" d="M62.207,76.094A13.887,13.887,0,1,1,76.094,62.207,13.887,13.887,0,0,1,62.207,76.094Z" fill="#97de3d"/>
          <g id="Group_1204618" data-name="Group 1204618">
            <path id="Path_1277113" data-name="Path 1277113" d="M62.6,65.861a1.125,1.125,0,0,1-1.126-1.126V61.308a1.127,1.127,0,0,1,.575-.982l3.465-1.943a1.106,1.106,0,0,0-.541-2.069H59.44a1.106,1.106,0,0,0-1.106,1.1v1.307a1.126,1.126,0,0,1-2.252,0V57.418a3.362,3.362,0,0,1,3.358-3.357h5.534a3.357,3.357,0,0,1,1.642,6.285l-2.89,1.623v2.767A1.125,1.125,0,0,1,62.6,65.861Z" fill="#fff5f5"/>
            <path id="Path_1277114" data-name="Path 1277114" d="M62.6,70.353a1.125,1.125,0,0,1-1.126-1.126v-1.4a1.126,1.126,0,0,1,2.252,0v1.4A1.125,1.125,0,0,1,62.6,70.353Z" fill="#fff5f5"/>
          </g>
          <path id="Path_1277115" data-name="Path 1277115" d="M41.626,41.608V33.745H39.374v7.863H30.767V33.745H28.515v7.863H19.908V33.745H17.656v7.863H7.561V43.86H17.656v7.8H7.561v2.252H17.656v7.861h2.252V53.915h8.607v7.861h2.252V53.915h8.607v7.861h2.252V43.86h10.1V41.608ZM28.515,51.663H19.908v-7.8h8.607Zm10.859,0H30.767v-7.8h8.607Z" fill="#ff641a"/>
        </g>
        <g id="Group_1204620" data-name="Group 1204620">
          <path id="Path_1277116" data-name="Path 1277116" d="M21.508,26.184h-3.2a1.126,1.126,0,1,0,0,2.252h3.2a1.126,1.126,0,0,0,0-2.252Z"/>
          <path id="Path_1277117" data-name="Path 1277117" d="M7.561,28.436h4.882a1.126,1.126,0,1,0,0-2.252H8.687V8.687H50.6v17.5H27.374a1.126,1.126,0,0,0,0,2.252H51.721a1.125,1.125,0,0,0,1.126-1.126V7.561a1.125,1.125,0,0,0-1.126-1.126H7.561A1.126,1.126,0,0,0,6.435,7.561V27.31A1.126,1.126,0,0,0,7.561,28.436Z"/>
          <path id="Path_1277118" data-name="Path 1277118" d="M75.893,47.4a1.126,1.126,0,1,0-1.53,1.654A17.909,17.909,0,1,1,44.3,62.207c-.138-9.6,8.275-18.089,17.909-17.909A17.8,17.8,0,0,1,68.9,45.59a1.126,1.126,0,1,0,.842-2.089,20.164,20.164,0,0,0-10.457-1.24V5.631a1.126,1.126,0,0,0-.33-.8L54.45.33a1.126,1.126,0,0,0-.8-.33H5.631a1.126,1.126,0,0,0-.8.33l-4.5,4.5a1.126,1.126,0,0,0-.33.8v62.58a1.126,1.126,0,0,0,1.126,1.126H43.353A20.159,20.159,0,1,0,75.893,47.4ZM30.767,60.652V53.915h8.607v6.737Zm-10.859,0V53.915h8.607v6.737Zm-11.221,0V53.915h8.968v6.737Zm19.827-25.78v6.737H19.908V34.871Zm10.859,0v6.737H30.767V34.871Zm11.221,0v6.737H41.626V34.871ZM39.374,51.663H30.767v-7.8h8.607ZM8.687,43.86h8.968v7.8H8.687Zm11.221,0h8.607v7.8H19.908Zm-2.252-2.252H8.687V34.871h8.968Zm23.97,2.252H50.6v1.866a20.256,20.256,0,0,0-8.486,14.925h-.483Zm1.019,23.226H2.252V6.1L6.1,2.252H53.185L57.03,6.1V42.722a20.394,20.394,0,0,0-4.183,1.637V33.745a1.126,1.126,0,0,0-1.126-1.126H7.561a1.127,1.127,0,0,0-1.126,1.126V61.776A1.126,1.126,0,0,0,7.561,62.9h34.5a20.464,20.464,0,0,0,.582,4.185Z"/>
          <path id="Path_1277119" data-name="Path 1277119" d="M47.194,62.207A15.013,15.013,0,1,0,62.207,47.194,15.013,15.013,0,0,0,47.194,62.207Zm27.773,0A12.761,12.761,0,1,1,62.207,49.446,12.761,12.761,0,0,1,74.967,62.207Z"/>
          <path id="Path_1277120" data-name="Path 1277120" d="M56.082,57.418v1.307a1.126,1.126,0,0,0,2.252,0V57.418a1.106,1.106,0,0,1,1.106-1.1h5.534a1.106,1.106,0,0,1,.541,2.069l-3.465,1.943a1.127,1.127,0,0,0-.575.982v3.428a1.126,1.126,0,1,0,2.252,0V61.969l2.89-1.622a3.357,3.357,0,0,0-1.642-6.285H59.44a3.362,3.362,0,0,0-3.358,3.356Z"/>
          <path id="Path_1277121" data-name="Path 1277121" d="M62.6,66.7a1.126,1.126,0,0,0-1.126,1.126v1.4a1.126,1.126,0,0,0,2.252,0v-1.4A1.126,1.126,0,0,0,62.6,66.7Z"/>
        </g>
      </g>
    </g>
  </g>
</svg>
