<svg xmlns="http://www.w3.org/2000/svg" xmlns:xlink="http://www.w3.org/1999/xlink" width="113.842" height="101.604" viewBox="0 0 113.842 101.604">
  <defs>
    <clipPath id="clip-path">
      <rect id="Rectangle_412047" data-name="Rectangle 412047" width="85" height="85" transform="translate(390 8991)" fill="#fff" stroke="#707070" stroke-width="1"/>
    </clipPath>
  </defs>
  <g id="Group_1204621" data-name="Group 1204621" transform="translate(-380 -8981.224)">
    <g id="Group_1204535" data-name="Group 1204535" transform="translate(380 8981.224)">
      <ellipse id="Ellipse_12835" data-name="Ellipse 12835" cx="28.658" cy="28.658" rx="28.658" ry="28.658" transform="translate(56.527 44.289)" fill="#59cae4"/>
      <ellipse id="Ellipse_12836" data-name="Ellipse 12836" cx="20.842" cy="20.842" rx="20.842" ry="20.842" fill="#59cae4"/>
    </g>
    <g id="Mask_Group_1099430" data-name="Mask Group 1099430" clip-path="url(#clip-path)">
      <g id="folder_1817927" transform="translate(390 8990.922)">
        <path id="Path_1277149" data-name="Path 1277149" d="M72.048,40.915V76.773a6.64,6.64,0,0,1-13.281,0V40.915Zm0,0" fill="#b5bcc9"/>
        <path id="Path_1277150" data-name="Path 1277150" d="M10.624,30.694V5.063a3.32,3.32,0,0,1,3.32-3.32H62.087a3.32,3.32,0,0,1,3.32,3.32V71.129a3.32,3.32,0,0,1-3.32,3.32H59.72Zm0,0" fill="#fff"/>
        <path id="Path_1277151" data-name="Path 1277151" d="M65.408,83.413a6.64,6.64,0,0,1-6.641-6.64V40.915H33.755l-9.29-9.3H1.66V76.773a6.64,6.64,0,0,0,6.64,6.64Z" fill="#f6838d"/>
        <path id="Path_1277152" data-name="Path 1277152" d="M46.815,70.133h-33.2V54.2h33.2Zm0,0" fill="#ffcb7c"/>
        <path id="Path_1277153" data-name="Path 1277153" d="M72.651,24.939A15.972,15.972,0,1,1,56.68,8.968,15.972,15.972,0,0,1,72.651,24.939Zm0,0" fill="#dff6fc"/>
        <path id="Path_1277154" data-name="Path 1277154" d="M65.083,38.975l11.46,11.461A3.983,3.983,0,1,0,82.176,44.8l-11.46-11.46Zm0,0" fill="#79b2ff"/>
        <path id="Path_1277155" data-name="Path 1277155" d="M65.083,38.975l5.632-5.632,6.276,6.276L71.358,45.25Zm0,0" fill="#fff"/>
        <path id="Path_1277156" data-name="Path 1277156" d="M46.815,52.536h-33.2a1.66,1.66,0,0,0-1.66,1.66V70.133a1.66,1.66,0,0,0,1.66,1.66h9.13a1.66,1.66,0,1,0,0-3.32h-7.47V55.856H45.154V68.473h-7.47a1.66,1.66,0,1,0,0,3.32h9.13a1.66,1.66,0,0,0,1.66-1.66V54.2A1.66,1.66,0,0,0,46.815,52.536Zm0,0"/>
        <path id="Path_1277157" data-name="Path 1277157" d="M83.35,43.629l-5.184-5.185h0L72.48,32.758A17.61,17.61,0,0,0,67.068,10.7V5.064a4.986,4.986,0,0,0-4.98-4.98H13.945a4.986,4.986,0,0,0-4.98,4.98v24.9H1.66A1.66,1.66,0,0,0,0,31.619V76.773a8.309,8.309,0,0,0,8.3,8.3H65.408a8.309,8.309,0,0,0,8.3-8.3V49.947L75.37,51.61a5.643,5.643,0,0,0,7.98-7.98Zm-8.707-4.011L71.358,42.9,67.39,38.935a17.78,17.78,0,0,0,3.285-3.285ZM60.427,42.169a17.526,17.526,0,0,0,3.32-1.078V71.129a1.662,1.662,0,0,1-1.66,1.66h-1.66Zm10.564-17.23A14.311,14.311,0,1,1,56.68,10.628,14.328,14.328,0,0,1,70.991,24.939ZM12.285,5.064a1.662,1.662,0,0,1,1.66-1.66H62.087a1.662,1.662,0,0,1,1.66,1.66V8.787A17.627,17.627,0,0,0,46.4,39.255H34.443l-8.8-8.81a1.662,1.662,0,0,0-1.174-.486H12.285ZM8.3,81.754a4.986,4.986,0,0,1-4.98-4.98V33.279H23.777l8.8,8.81a1.662,1.662,0,0,0,1.174.486H57.107v34.2a8.261,8.261,0,0,0,1.664,4.98Zm62.087-4.98a4.98,4.98,0,1,1-9.96,0v-.664h1.66a4.986,4.986,0,0,0,4.98-4.98V43.307l3.32,3.32ZM81,49.261a2.325,2.325,0,0,1-3.285,0L73.707,45.25l3.285-3.285L81,45.977A2.325,2.325,0,0,1,81,49.261Zm0,0"/>
        <path id="Path_1277158" data-name="Path 1277158" d="M56.68,14.465a1.66,1.66,0,0,0,0,3.32,7.161,7.161,0,0,1,7.153,7.153,1.66,1.66,0,1,0,3.32,0A10.485,10.485,0,0,0,56.68,14.465Zm0,0"/>
        <path id="Path_1277159" data-name="Path 1277159" d="M30.214,68.472a1.661,1.661,0,1,0,1.174.486A1.673,1.673,0,0,0,30.214,68.472Zm0,0"/>
      </g>
    </g>
  </g>
</svg>
