<svg xmlns="http://www.w3.org/2000/svg" xmlns:xlink="http://www.w3.org/1999/xlink" width="115" height="115" viewBox="0 0 115 115">
  <defs>
    <clipPath id="clip-path">
      <rect id="Rectangle_412209" data-name="Rectangle 412209" width="115" height="115" transform="translate(800.781 1954)" fill="#e8bad8" opacity="0.41"/>
    </clipPath>
  </defs>
  <g id="Mask_Group_1099463" data-name="Mask Group 1099463" transform="translate(-800.781 -1954)" clip-path="url(#clip-path)">
    <g id="Group_1205036" data-name="Group 1205036" transform="translate(799.781 1960.273)">
      <g id="Group_1205035" data-name="Group 1205035" transform="translate(1)">
        <ellipse id="Ellipse_12877" data-name="Ellipse 12877" cx="28.658" cy="28.658" rx="28.658" ry="28.658" transform="translate(56.527 44.289)" fill="#ff9b08"/>
        <ellipse id="Ellipse_12878" data-name="Ellipse 12878" cx="20.842" cy="20.842" rx="20.842" ry="20.842" fill="#ff9b08"/>
      </g>
      <g id="bar-chart_938383_1_" data-name="bar-chart_938383 (1)" transform="translate(14.827 -14.747)">
        <path id="Path_1277765" data-name="Path 1277765" d="M62.881,419h29.94v2.862a6.565,6.565,0,0,1-6.565,6.565H16.565A6.565,6.565,0,0,1,10,421.862V419H62.881Z" transform="translate(-8.317 -326.012)" fill="#dbe7ff"/>
        <path id="Path_1277766" data-name="Path 1277766" d="M32,177.492V133.321a4.212,4.212,0,0,1,4.111-4.307H103.3a4.212,4.212,0,0,1,4.111,4.307h0v44.172Z" transform="translate(-26.611 -84.841)" fill="#eaf1ff"/>
        <circle id="Ellipse_12879" data-name="Ellipse 12879" cx="14.14" cy="14.14" r="14.14" transform="translate(14.792 28.683)" fill="#ffc365"/>
        <rect id="Rectangle_412205" data-name="Rectangle 412205" width="9.427" height="12.531" transform="translate(15.132 80.457)" fill="#b6ee7b"/>
        <rect id="Rectangle_412206" data-name="Rectangle 412206" width="9.427" height="36.712" transform="translate(46.099 56.275)" fill="#97baff"/>
        <rect id="Rectangle_412207" data-name="Rectangle 412207" width="9.427" height="22.932" transform="translate(30.612 70.055)" fill="#ffc365"/>
        <rect id="Rectangle_412208" data-name="Rectangle 412208" width="9.427" height="64.304" transform="translate(61.586 28.683)" fill="#ff5d5d"/>
        <path id="Path_1277767" data-name="Path 1277767" d="M220.886,437a1.683,1.683,0,0,0,0,3.367h8.979a1.683,1.683,0,0,0,0-3.367Z" transform="translate(-182.303 -340.982)"/>
        <path id="Path_1277768" data-name="Path 1277768" d="M371.16,465h0a1.683,1.683,0,1,0,1.685,1.683A1.683,1.683,0,0,0,371.158,465Z" transform="translate(-307.28 -364.269)"/>
        <path id="Path_1277769" data-name="Path 1277769" d="M84.5,91.3H82.484V48.479a5.9,5.9,0,0,0-5.794-5.99H72.7V28.683A1.683,1.683,0,0,0,71.013,27H61.586A1.683,1.683,0,0,0,59.9,28.683V42.489h-9.09a1.683,1.683,0,1,0,0,3.367H59.9V91.3H57.209V56.275a1.683,1.683,0,0,0-1.683-1.683H46.1a1.683,1.683,0,0,0-1.683,1.683V91.3H41.722V70.054a1.683,1.683,0,0,0-1.683-1.683H30.612a1.683,1.683,0,0,0-1.683,1.683V91.3H26.242V80.457a1.683,1.683,0,0,0-1.683-1.683H15.132a1.683,1.683,0,0,0-1.683,1.683V91.3H7.07V73.966a1.683,1.683,0,1,0-3.367,0V91.3H1.683A1.683,1.683,0,0,0,0,92.988v2.862A8.258,8.258,0,0,0,8.248,104.1H56.536a1.683,1.683,0,0,0,0-3.367H8.248a4.887,4.887,0,0,1-4.882-4.882V94.671H82.821v1.178a4.887,4.887,0,0,1-4.882,4.882H71.116a1.683,1.683,0,1,0,0,3.367h6.823a8.258,8.258,0,0,0,8.248-8.248V92.988A1.683,1.683,0,0,0,84.5,91.3ZM76.69,45.856a2.534,2.534,0,0,1,2.427,2.623V91.3H72.7V45.856ZM16.816,91.3V82.14h6.06V91.3Zm15.48,0V71.738h6.06V91.3Zm15.487,0V57.959h6.06V91.3Zm15.487,0V30.367h6.06V91.3Z" transform="translate(0 0)"/>
        <path id="Path_1277770" data-name="Path 1277770" d="M23.68,62.014a1.683,1.683,0,0,0,1.683-1.683V48.479a2.534,2.534,0,0,1,2.427-2.623h3.9a15.829,15.829,0,1,0-.289-3.367H27.791A5.9,5.9,0,0,0,22,48.479V60.33A1.683,1.683,0,0,0,23.68,62.014ZM47.226,30.367A12.457,12.457,0,1,1,34.77,42.824,12.471,12.471,0,0,1,47.226,30.367Z" transform="translate(-18.294 0)"/>
        <path id="Path_1277771" data-name="Path 1277771" d="M23.676,257.7a1.684,1.684,0,1,0-1.19-.493A1.693,1.693,0,0,0,23.676,257.7Z" transform="translate(-18.291 -189.062)"/>
        <path id="Path_1277772" data-name="Path 1277772" d="M146.965,80.823a1.545,1.545,0,0,1-1.675-1.364,1.683,1.683,0,0,0-3.367,0,4.769,4.769,0,0,0,3.365,4.461,1.682,1.682,0,0,0,3.352,0,4.769,4.769,0,0,0,3.365-4.461,4.9,4.9,0,0,0-5.041-4.731,1.393,1.393,0,1,1,1.675-1.364,1.683,1.683,0,1,0,3.367,0,4.769,4.769,0,0,0-3.359-4.459,1.682,1.682,0,0,0-3.364,0,4.769,4.769,0,0,0-3.359,4.459,4.9,4.9,0,0,0,5.041,4.731,1.393,1.393,0,1,1,0,2.728Z" transform="translate(-118.032 -33.473)"/>
      </g>
    </g>
  </g>
</svg>
